<ttFont>
        <CharString name=".notdef">
          -358 endchar
        </CharString>
        <CharString name="A">
          37 21 -21 193 44.5 341.5 60 hstem
          16 526 vstem
          542 hmoveto
          -223 639 rlineto
          -59 hlineto
          -244 -639 rlineto
          54 hlineto
          15 56 52 136 137 2 152 -2 48 -138 14 -54 rlineto
          -78 238 rmoveto
          -130 -1 -125 1 130 341 rlineto
          6 hlineto
          endchar
        </CharString>
        <CharString name="AE">
          270 0 44 535 60 -44 44 hstemhm
          -15 795 hintmask 10110000
          780 41 rmoveto
          -4 6 -164 -3 rlineto
          -118 hlineto
          -37 240 223 41 rlineto
          39 vlineto
          -5 4 -225 -42 -42 269 rlineto
          102 hlineto
          164 -3 6 41 -4 6 rlineto
          -339 hlineto
          -352 -639 rlineto
          56 hlineto
          23 56 93 168 250 50 35 -220 5 -54 rlineto
          327 hlineto
          -374 316 rmoveto
          -215 -41 rlineto
          hintmask 11010000
          169 304 rlineto
          4 hlineto
          endchar
        </CharString>
        <CharString name="AEacute">
          270 0 44 535 60 -44 44 hstemhm
          -15 795 hintmask 10110000
          432 726 rmoveto
          8 -3 62 28 59 28 64 33 rlinecurve
          2 7 -14 30 -7 2 -67 -40 -59 -30 -59 -29 rlinecurve
          359 -711 rmoveto
          -4 6 -164 -3 rlineto
          -118 hlineto
          -37 240 224 41 -1 39 -5 4 -225 -42 -42 269 rlineto
          102 hlineto
          164 -3 7 41 -5 6 rlineto
          -339 hlineto
          -352 -639 rlineto
          56 hlineto
          24 56 93 168 249 50 35 -220 5 -54 rlineto
          328 hlineto
          -375 316 rmoveto
          -214 -41 rlineto
          hintmask 11010000
          168 304 rlineto
          4 hlineto
          endchar
        </CharString>
        <CharString name="Aacute">
          37 21 -21 193 44.5 341.5 60 hstem
          16 526 vstem
          221 726 rmoveto
          8 -3 62 28 59 28 64 33 rlinecurve
          2 7 -14 30 -7 2 -67 -40 -59 -30 -59 -29 rlinecurve
          332 -752 rmoveto
          -223 639 rlineto
          -59 hlineto
          -244 -639 rlineto
          54 hlineto
          15 56 52 136 138 2 151 -2 48 -138 13 -54 rlineto
          -77 238 rmoveto
          -130 -1 -125 1 130 341 rlineto
          6 hlineto
          endchar
        </CharString>
        <CharString name="Abreve">
          37 21 -21 193 44.5 341.5 60 88 39 hstem
          16 526 vstem
          283 727 rmoveto
          56 42 29 53 18 hvcurveto
          -18 20 rlineto
          -9 hlineto
          -40 -13 -31 -23 -44 hhcurveto
          -45 -31 23 40 -12 hvcurveto
          -9 hlineto
          -17 -20 rlineto
          -53 16 40 -29 57 hhcurveto
          259 -727 rmoveto
          -223 639 rlineto
          -59 hlineto
          -244 -639 rlineto
          54 hlineto
          15 56 52 136 138 2 151 -2 48 -138 13 -54 rlineto
          -77 238 rmoveto
          -130 -1 -125 1 130 341 rlineto
          6 hlineto
          endchar
        </CharString>
        <CharString name="Abreveacute">
          37 21 -21 193 44.5 341.5 60 68 39 hstem
          16 526 vstem
          269 807 rmoveto
          7 -1 31 32 30 30 29 32 rlinecurve
          6 vlineto
          -25 18 rlineto
          -6 hlineto
          -29 -34 -27 -33 -30 -33 rrcurveto
          34 -117 rmoveto
          56 42 29 53 18 hvcurveto
          -18 20 rlineto
          -9 hlineto
          -40 -13 -31 -23 -44 hhcurveto
          -45 -31 23 40 -12 hvcurveto
          -9 hlineto
          -17 -20 rlineto
          -53 16 40 -29 57 hhcurveto
          259 -707 rmoveto
          -223 639 rlineto
          -59 hlineto
          -244 -639 rlineto
          54 hlineto
          15 56 52 136 138 2 151 -2 48 -138 13 -54 rlineto
          -77 238 rmoveto
          -130 -1 -125 1 130 341 rlineto
          6 hlineto
          endchar
        </CharString>
        <CharString name="Abrevedotbelow">
          37 -146 68 99 -21 193 44.5 341.5 60 87 39 hstem
          247 67 vstem
          282 726 rmoveto
          57 41 29 53 18 hvcurveto
          -18 20 rlineto
          -8 hlineto
          -40 -13 -31 -23 -44 hhcurveto
          -46 -30 23 40 -12 hvcurveto
          -9 hlineto
          -18 -20 rlineto
          -53 17 40 -29 56 hhcurveto
          260 -726 rmoveto
          -223 639 rlineto
          -59 hlineto
          -244 -639 rlineto
          54 hlineto
          15 56 52 136 138 2 151 -2 48 -138 13 -54 rlineto
          -77 238 rmoveto
          -130 -1 -125 1 130 341 rlineto
          6 hlineto
          -10 -657 rmoveto
          -21 -13 -14 -21 -21 12 -12 21 21 13 13 21 21 -12 13 -21 hvcurveto
          endchar
        </CharString>
        <CharString name="Abrevegrave">
          37 21 -21 193 44.5 341.5 60 68 39 hstem
          16 526 vstem
          295 807 rmoveto
          20 17 -30 33 -27 33 -28 34 rlinecurve
          -7 hlineto
          -25 -18 1 -6 29 -32 30 -30 30 -32 rlinecurve
          -5 -99 rmoveto
          56 42 29 53 18 hvcurveto
          -18 20 rlineto
          -9 hlineto
          -40 -13 -31 -23 -44 hhcurveto
          -45 -31 23 40 -12 hvcurveto
          -9 hlineto
          -17 -20 rlineto
          -53 16 40 -29 57 hhcurveto
          259 -707 rmoveto
          -223 639 rlineto
          -59 hlineto
          -244 -639 rlineto
          54 hlineto
          15 56 52 136 138 2 151 -2 48 -138 13 -54 rlineto
          -77 238 rmoveto
          -130 -1 -125 1 130 341 rlineto
          6 hlineto
          endchar
        </CharString>
        <CharString name="Abrevehookabove">
          37 21 -21 193 44.5 341.5 60 68 39 188 33 hstem
          306 35 vstem
          280 934 rmoveto
          16 10 -7 -13 -16 -18 -23 -32 -23 hvcurveto
          27 -48 26 13 -18 32 rlineto
          34 26 16 22 22 vvcurveto
          27 -23 21 -31 -24 -28 -13 -23 -23 vhcurveto
          12 -20 rlineto
          15 18 21 8 17 hhcurveto
          3 -227 rmoveto
          56 42 29 53 18 hvcurveto
          -18 20 rlineto
          -9 hlineto
          -40 -13 -31 -23 -44 hhcurveto
          -45 -31 23 40 -12 hvcurveto
          -9 hlineto
          -17 -20 rlineto
          -53 16 40 -29 57 hhcurveto
          259 -707 rmoveto
          -223 639 rlineto
          -59 hlineto
          -244 -639 rlineto
          54 hlineto
          15 56 52 136 138 2 151 -2 48 -138 13 -54 rlineto
          -77 238 rmoveto
          -130 -1 -125 1 130 341 rlineto
          6 hlineto
          endchar
        </CharString>
        <CharString name="Abrevetilde">
          37 21 -21 193 44.5 341.5 60 68 39 145 40 hstem
          16 526 vstem
          163 848 rmoveto
          6 hlineto
          24 24 14 19 13 hhcurveto
          24 85 -32 -5 37 hvcurveto
          8 3 54 58 rlineto
          6 vlineto
          -17 18 rlineto
          -5 hlineto
          -25 -25 -14 -18 -13 hhcurveto
          -23 -86 32 4 -37 hvcurveto
          -8 -2 -54 -58 rlineto
          -6 vlineto
          139 -120 rmoveto
          -45 -30 23 39 -12 hvcurveto
          -9 hlineto
          -17 -19 rlineto
          -53 16 40 -29 55 hhcurveto
          56 41 29 53 18 hvcurveto
          -18 19 rlineto
          -9 hlineto
          -39 -12 -30 -23 -44 hhcurveto
          257 -746 rmoveto
          -223 639 rlineto
          -59 hlineto
          -244 -639 rlineto
          54 hlineto
          15 56 52 136 138 2 151 -2 48 -138 13 -54 rlineto
          -77 238 rmoveto
          -130 -1 -125 1 130 341 rlineto
          6 hlineto
          endchar
        </CharString>
        <CharString name="Acaron">
          37 21 -21 193 44.5 341.5 60 hstem
          16 526 vstem
          294 727 rmoveto
          34 28 36 29 38 26 -12 25 rcurveline
          -7 hlineto
          -34 -23 -33 -22 -32 -23 -32 23 -33 22 -34 23 rrcurveto
          -7 hlineto
          -12 -25 38 -26 36 -29 35 -28 rlinecurve
          267 -727 rmoveto
          -223 639 rlineto
          -59 hlineto
          -244 -639 rlineto
          54 hlineto
          15 56 52 136 138 2 151 -2 48 -138 13 -54 rlineto
          -77 238 rmoveto
          -130 -1 -125 1 130 341 rlineto
          6 hlineto
          endchar
        </CharString>
        <CharString name="Acircumflex">
          37 21 -21 193 44.5 341.5 60 hstem
          16 526 vstem
          178 736 rmoveto
          7 hlineto
          34 23 33 22 32 23 32 -23 33 -22 34 -23 rrcurveto
          7 hlineto
          12 25 -38 26 -36 29 -35 28 rlinecurve
          -19 hlineto
          -34 -28 -36 -29 -38 -26 rrcurveto
          376 -761 rmoveto
          -223 639 rlineto
          -59 hlineto
          -244 -639 rlineto
          54 hlineto
          15 56 52 136 138 2 151 -2 48 -138 13 -54 rlineto
          -77 238 rmoveto
          -130 -1 -125 1 130 341 rlineto
          6 hlineto
          endchar
        </CharString>
        <CharString name="Acircumflexacute">
          37 21 -21 193 44.5 341.5 60 hstem
          16 526 vstem
          356 813 rmoveto
          7 hlineto
          75 88 rlineto
          7 vlineto
          -26 14 rlineto
          -7 hlineto
          -70 -92 rlineto
          -157 -114 rmoveto
          7 hlineto
          34 23 33 22 32 23 32 -23 33 -22 34 -23 rrcurveto
          7 hlineto
          12 25 -38 26 -36 29 -35 28 rlinecurve
          -19 hlineto
          -34 -28 -36 -29 -38 -26 rrcurveto
          376 -741 rmoveto
          -223 639 rlineto
          -59 hlineto
          -244 -639 rlineto
          54 hlineto
          15 56 52 136 138 2 151 -2 48 -138 13 -54 rlineto
          -77 238 rmoveto
          -130 -1 -125 1 130 341 rlineto
          6 hlineto
          endchar
        </CharString>
        <CharString name="Acircumflexdotbelow">
          37 -146 68 99 -21 193 44.5 341.5 60 hstem
          247 67 vstem
          177 735 rmoveto
          7 hlineto
          34 23 33 22 32 23 32 -23 33 -22 34 -23 rrcurveto
          7 hlineto
          12 25 -38 26 -36 29 -35 28 rlinecurve
          -19 hlineto
          -34 -28 -36 -29 -38 -26 rrcurveto
          377 -760 rmoveto
          -223 639 rlineto
          -59 hlineto
          -244 -639 rlineto
          54 hlineto
          15 56 52 136 138 2 151 -2 48 -138 13 -54 rlineto
          -77 238 rmoveto
          -130 -1 -125 1 130 341 rlineto
          6 hlineto
          -10 -657 rmoveto
          -21 -13 -14 -21 -21 12 -12 21 21 13 13 21 21 -12 13 -21 hvcurveto
          endchar
        </CharString>
        <CharString name="Acircumflexgrave">
          37 21 -21 193 44.5 341.5 60 hstem
          16 526 vstem
          382 813 rmoveto
          7 hlineto
          21 17 -70 92 rlineto
          -6 hlineto
          -27 -14 rlineto
          -7 vlineto
          -129 -185 rmoveto
          7 hlineto
          34 23 33 22 32 23 32 -23 33 -22 34 -23 rrcurveto
          7 hlineto
          12 25 -38 26 -36 29 -35 28 rlinecurve
          -19 hlineto
          -34 -28 -36 -29 -38 -26 rrcurveto
          376 -741 rmoveto
          -223 639 rlineto
          -59 hlineto
          -244 -639 rlineto
          54 hlineto
          15 56 52 136 138 2 151 -2 48 -138 13 -54 rlineto
          -77 238 rmoveto
          -130 -1 -125 1 130 341 rlineto
          6 hlineto
          endchar
        </CharString>
        <CharString name="Acircumflexhookabove">
          37 21 -21 193 44.5 341.5 60 285 31 hstem
          393 33 vstem
          368 924 rmoveto
          15 10 -7 -12 -15 -17 -22 -31 -22 hvcurveto
          26 -46 25 13 -17 30 rlineto
          32 25 15 21 21 vvcurveto
          26 -21 19 -30 -23 -26 -12 -22 -23 vhcurveto
          12 -19 rlineto
          15 17 20 7 16 hhcurveto
          -190 -208 rmoveto
          7 hlineto
          34 23 33 22 32 23 32 -23 33 -22 34 -23 rrcurveto
          7 hlineto
          12 25 -38 26 -36 29 -35 28 rlinecurve
          -19 hlineto
          -34 -28 -36 -29 -38 -26 rrcurveto
          376 -741 rmoveto
          -223 639 rlineto
          -59 hlineto
          -244 -639 rlineto
          54 hlineto
          15 56 52 136 138 2 151 -2 48 -138 13 -54 rlineto
          -77 238 rmoveto
          -130 -1 -125 1 130 341 rlineto
          6 hlineto
          endchar
        </CharString>
        <CharString name="Acircumflextilde">
          37 21 -21 193 44.5 341.5 60 252 40 hstem
          16 526 vstem
          163 848 rmoveto
          6 hlineto
          24 24 14 19 13 hhcurveto
          24 85 -32 -5 37 hvcurveto
          8 3 54 58 rlineto
          6 vlineto
          -17 18 rlineto
          -5 hlineto
          -25 -25 -14 -18 -13 hhcurveto
          -23 -86 32 4 -37 hvcurveto
          -8 -2 -54 -58 rlineto
          -6 vlineto
          128 -42 rmoveto
          -34 -28 -36 -29 -38 -26 12 -25 rcurveline
          7 hlineto
          34 23 33 22 32 23 32 -23 33 -22 34 -23 rrcurveto
          7 hlineto
          12 25 -38 26 -36 29 -35 28 rlinecurve
          249 -824 rmoveto
          -223 639 rlineto
          -59 hlineto
          -244 -639 rlineto
          54 hlineto
          15 56 52 136 138 2 151 -2 48 -138 13 -54 rlineto
          -77 238 rmoveto
          -130 -1 -125 1 130 341 rlineto
          6 hlineto
          endchar
        </CharString>
        <CharString name="Adieresis">
          37 21 -21 193 44.5 341.5 60 113 66 hstem
          177 66 83 66 vstem
          209 752 rmoveto
          21 13 13 21 20 -12 12 -20 -21 -13 -13 -21 -20 12 -12 20 hvcurveto
          149 hmoveto
          21 13 13 21 20 -12 12 -20 -21 -13 -13 -21 -20 12 -12 20 hvcurveto
          184 -752 rmoveto
          -223 639 rlineto
          -59 hlineto
          -244 -639 rlineto
          54 hlineto
          15 56 52 136 138 2 151 -2 48 -138 13 -54 rlineto
          -77 238 rmoveto
          -130 -1 -125 1 130 341 rlineto
          6 hlineto
          endchar
        </CharString>
        <CharString name="Adotbelow">
          37 -146 68 99 -21 193 44.5 341.5 60 hstem
          247 67 vstem
          542 hmoveto
          -223 639 rlineto
          -59 hlineto
          -244 -639 rlineto
          54 hlineto
          15 56 52 136 138 2 151 -2 48 -138 13 -54 rlineto
          -77 238 rmoveto
          -130 -1 -125 1 130 341 rlineto
          6 hlineto
          -10 -657 rmoveto
          -21 -13 -14 -21 -21 12 -12 21 21 13 13 21 21 -12 13 -21 hvcurveto
          endchar
        </CharString>
        <CharString name="Agrave">
          37 21 -21 193 44.5 341.5 60 hstem
          16 526 vstem
          376 728 rmoveto
          11 26 -59 29 -59 30 -67 40 rlinecurve
          -7 -2 -14 -30 2 -7 64 -33 59 -28 62 -28 rlinecurve
          174 -725 rmoveto
          -223 639 rlineto
          -59 hlineto
          -244 -639 rlineto
          54 hlineto
          15 56 52 136 138 2 151 -2 48 -138 13 -54 rlineto
          -77 238 rmoveto
          -130 -1 -125 1 130 341 rlineto
          6 hlineto
          endchar
        </CharString>
        <CharString name="Ahookabove">
          37 21 -21 193 44.5 341.5 60 207 33 hstem
          301 35 vstem
          275 846 rmoveto
          16 10 -7 -13 -16 -18 -23 -32 -23 hvcurveto
          27 -48 26 13 -18 32 rlineto
          34 26 16 22 22 vvcurveto
          27 -23 21 -31 -24 -28 -13 -23 -23 vhcurveto
          12 -20 rlineto
          15 18 21 8 17 hhcurveto
          267 -846 rmoveto
          -223 639 rlineto
          -59 hlineto
          -244 -639 rlineto
          54 hlineto
          15 56 52 136 138 2 151 -2 48 -138 13 -54 rlineto
          -77 238 rmoveto
          -130 -1 -125 1 130 341 rlineto
          6 hlineto
          endchar
        </CharString>
        <CharString name="Amacron">
          37 21 -21 193 44.5 341.5 60 129 37 hstem
          16 526 vstem
          142 768 rmoveto
          285 hlineto
          3 33 -4 4 rlineto
          -285 hlineto
          -3 -32 rlineto
          404 -773 rmoveto
          -223 639 rlineto
          -59 hlineto
          -244 -639 rlineto
          54 hlineto
          15 56 52 136 138 2 151 -2 48 -138 13 -54 rlineto
          -77 238 rmoveto
          -130 -1 -125 1 130 341 rlineto
          6 hlineto
          endchar
        </CharString>
        <CharString name="Aogonek">
          37 -197 38 180 -21 193 44.5 341.5 60 hstem
          437 37 vstem
          595 -114 rmoveto
          -4 hlineto
          -28 -23 -28 -17 -26 hhcurveto
          -26 -14 15 25 23 13 29 44 67 hvcurveto
          11 hlineto
          -223 639 rlineto
          -59 hlineto
          -244 -639 rlineto
          54 hlineto
          15 56 52 136 138 2 151 -2 48 -138 13 -54 rlineto
          8 hlineto
          -45 -68 -13 -30 -28 vvcurveto
          -43 28 -28 43 36 32 21 34 30 vhcurveto
          -196 380 rmoveto
          -130 -1 -125 1 130 341 rlineto
          6 hlineto
          endchar
        </CharString>
        <CharString name="Aring">
          37 21 -21 193 44.5 341.5 60 75 30 93 30 hstem
          205 30 96 29 vstem
          282 714 rmoveto
          41 37 28 50 40 -27 35 -50 -48 -30 -31 -45 -49 35 -28 42 hvcurveto
          123 vmoveto
          33 16 -20 -27 -30 -22 -16 -27 -27 -20 17 31 27 17 18 30 hvcurveto
          260 -837 rmoveto
          -223 639 rlineto
          -59 hlineto
          -244 -639 rlineto
          54 hlineto
          15 56 52 136 138 2 151 -2 48 -138 13 -54 rlineto
          -77 238 rmoveto
          -130 -1 -125 1 130 341 rlineto
          6 hlineto
          endchar
        </CharString>
        <CharString name="Aringacute">
          37 21 -21 192 44.5 339.5 62 -23 23 0 -20 113 30 hstemhm
          212 30 96 29 hintmask 11001111
          212 782 rmoveto
          6 -5 66 18 63 17 69 22 rlinecurve
          3 7 -8 32 -7 3 -73 -28 -63 -20 -63 -18 rlinecurve
          337 -810 rmoveto
          -218 616 rlineto
          25 11 18 24 35 vvcurveto
          40 -27 35 -50 -48 -30 -31 -45 vhcurveto
          hintmask 11010111
          -34 17 -24 25 -12 vhcurveto
          -238 -615 rlineto
          54 hlineto
          15 56 52 135 138 2 151 -2 48 -137 13 -54 rlineto
          -198 731 rmoveto
          33 16 -20 -27 -30 -22 -16 -27 -27 -20 17 31 27 17 18 30 hvcurveto
          121 -494 rmoveto
          -130 -1 -125 1 rlineto
          hintmask 11100111
          130 339 rlineto
          6 hlineto
          endchar
        </CharString>
        <CharString name="Atilde">
          37 21 -21 193 44.5 341.5 60 147 40 hstem
          16 526 vstem
          152 742 rmoveto
          6 hlineto
          24 27 14 20 13 hhcurveto
          26 90 -33 -5 40 hvcurveto
          8 3 57 59 rlineto
          6 vlineto
          -18 18 rlineto
          -5 hlineto
          -25 -27 -14 -19 -14 hhcurveto
          -25 -90 33 4 -40 hvcurveto
          -8 -2 -57 -59 rlineto
          -6 vlineto
          407 -760 rmoveto
          -223 639 rlineto
          -59 hlineto
          -244 -639 rlineto
          54 hlineto
          15 56 52 136 138 2 151 -2 48 -138 13 -54 rlineto
          -77 238 rmoveto
          -130 -1 -125 1 130 341 rlineto
          6 hlineto
          endchar
        </CharString>
        <CharString name="B">
          -14 -3 44 -20 -21 306.5 44.5 245 44 hstemhm
          102.5 50.5 223 53 -7 52 hintmask 00000000
          hintmask 10111010
          333 334 rmoveto
          hintmask 01111100
          61 25 35 52 78 vvcurveto
          98 -64 53 -112 vhcurveto
          -152 -1 3 -445 -3 -194 rlineto
          hintmask 10111010
          -2 38 62 -1 27 hhcurveto
          161 85 64 116 90 -51 52 -90 15 hvcurveto
          hintmask 10111100
          43 150 rmoveto
          -75 -37 -45 -67 -14 vhcurveto
          -120 2 2 244 rlineto
          33 32 0 29 hhcurveto
          84 44 -39 -73 hvcurveto
          hintmask 10111010
          -144 -443 rmoveto
          -24 -29 1 2 -26 hvcurveto
          -2 153 1 109 130 1 rlineto
          90 -9 50 -43 -75 vvcurveto
          -89 -69 -50 -121 vhcurveto
          endchar
        </CharString>
        <CharString name="C">
          -8 -6 46 551 -20 28 45 hstemhm
          43 53 hintmask 10110000
          318 644 rmoveto
          -176 -99 -118 -210 -207 95 -115 168 64 62 20 37 56 hvcurveto
          4 49 -8 3 rlineto
          -40 -51 -62 -23 -62 hhcurveto
          -136 -77 97 182 182 78 98 142 60 54 -21 -35 44 hvcurveto
          8 1 rlineto
          hintmask 11110000
          11 47 rlineto
          hintmask 10110000
          34 -48 -62 19 -65 hhcurveto
          endchar
        </CharString>
        <CharString name="C.ss01">
          -66 0 28 -28 43 409 43 -40 -20 32 28 hstemhm
          55 50 hintmask 10001100
          564 467 rmoveto
          28 -664 -28 263 vlineto
          -70 -37 -38 -76 -109 vvcurveto
          -106 35 -74 66 -37 vhcurveto
          -256 -28 664 28 -179 hlineto
          hintmask 01100100
          10 4 9 5 9 6 4 44 rcurveline
          -7 3 rlineto
          -29 -40 -51 -18 -49 hhcurveto
          -106 -59 72 134 134 60 69 110 48 45 -16 -27 34 hvcurveto
          7 2 rlineto
          hintmask 10011100
          10 44 rlineto
          hintmask 10001100
          -7 4 -7 4 -8 4 rrcurveto
          endchar
        </CharString>
        <CharString name="Cacute">
          -8 -6 46 551 -20 28 45 hstemhm
          43 53 hintmask 10110000
          432 849 rmoveto
          -7 2 -67 -40 -59 -30 -59 -29 rlinecurve
          11 -26 8 -3 62 28 59 28 64 33 rlinecurve
          2 7 rlineto
          -128 -175 rmoveto
          -176 -99 -118 -210 -207 95 -115 168 64 62 20 37 56 hvcurveto
          4 49 -8 3 rlineto
          -40 -50 -63 -23 -62 hhcurveto
          -136 -77 97 182 182 79 98 141 61 53 -21 -35 44 hvcurveto
          8 1 rlineto
          hintmask 11110000
          12 47 rlineto
          hintmask 10110000
          34 -49 -61 19 -66 hhcurveto
          endchar
        </CharString>
        <CharString name="Ccaron">
          -8 -6 46 551 -20 28 45 hstemhm
          43 53 hintmask 10110000
          420 835 rmoveto
          -7 hlineto
          -34 -23 -33 -22 -32 -23 -32 23 -33 22 -34 23 rrcurveto
          -7 hlineto
          -12 -25 38 -26 36 -29 35 -28 rlinecurve
          19 hlineto
          34 28 36 29 38 26 rrcurveto
          -114 -166 rmoveto
          -176 -99 -118 -210 -207 95 -115 168 64 62 20 37 56 hvcurveto
          4 49 -8 3 rlineto
          -40 -50 -63 -23 -62 hhcurveto
          -136 -77 97 182 182 79 98 141 61 53 -21 -35 44 hvcurveto
          8 1 rlineto
          hintmask 11110000
          12 47 rlineto
          hintmask 10110000
          34 -49 -61 19 -66 hhcurveto
          endchar
        </CharString>
        <CharString name="Ccedilla">
          -8 -186 31 149 46 -45 45 551 -20 28 45 hstemhm
          43 53 245 37 hintmask 11001110
          309 40 rmoveto
          -136 -77 97 182 182 79 98 141 61 53 -21 -35 44 hvcurveto
          8 1 rlineto
          hintmask 11011110
          12 47 rlineto
          hintmask 11001110
          34 -49 -61 19 -66 hhcurveto
          -176 -99 -118 -210 -201 89 -114 159 -7 hvcurveto
          -19 -62 46 -28 rlineto
          14 -8 9 -7 -14 vvcurveto
          -19 -15 -11 -21 -24 -14 13 18 -15 vhcurveto
          -4 -1 -7 -29 rlineto
          -16 13 21 -16 32 hhcurveto
          40 31 24 36 hvcurveto
          hintmask 10101110
          22 -10 16 -26 15 vhcurveto
          -32 20 15 48 57 3 55 20 51 33 rlinecurve
          hintmask 11001110
          4 49 -8 3 rlineto
          -40 -50 -63 -23 -62 hhcurveto
          endchar
        </CharString>
        <CharString name="Ccircumflex">
          -8 -6 46 551 -20 28 45 hstemhm
          43 53 hintmask 10110000
          208 736 rmoveto
          7 hlineto
          34 23 33 22 32 23 32 -23 33 -22 34 -23 rrcurveto
          7 hlineto
          12 25 -38 26 -36 29 -35 28 rlinecurve
          -19 hlineto
          -34 -28 -36 -29 -38 -26 rrcurveto
          122 -117 rmoveto
          -176 -99 -118 -210 -207 95 -115 168 64 62 20 37 56 hvcurveto
          4 49 -8 3 rlineto
          -40 -50 -63 -23 -62 hhcurveto
          -136 -77 97 182 182 79 98 141 61 53 -21 -35 44 hvcurveto
          8 1 rlineto
          hintmask 11110000
          12 47 rlineto
          hintmask 10110000
          34 -49 -61 19 -66 hhcurveto
          endchar
        </CharString>
        <CharString name="Cdotaccent">
          -8 -6 46 551 -20 28 45 120 68 hstemhm
          43 53 184 67 hintmask 10111100
          314 832 rmoveto
          -21 -13 -14 -21 -21 12 -12 21 21 13 13 22 20 -12 13 -21 hvcurveto
          4 -188 rmoveto
          -176 -99 -118 -210 -207 95 -115 168 64 62 20 37 56 hvcurveto
          4 49 -8 3 rlineto
          -40 -50 -63 -23 -62 hhcurveto
          -136 -77 97 182 182 79 98 141 61 53 -21 -35 44 hvcurveto
          8 1 rlineto
          hintmask 11111100
          12 47 rlineto
          hintmask 10111100
          34 -49 -61 19 -66 hhcurveto
          endchar
        </CharString>
        <CharString name="D">
          112 -5 44 -18 -21 599 44 hstemhm
          102.5 50 393.5 53 hintmask 10111000
          101 639 rmoveto
          3 -445 rlineto
          hintmask 01111000
          -3 -194 rlineto
          hintmask 10111000
          -2 50 119 -3 31 hhcurveto
          192 106 123 223 195 -100 107 -181 hvcurveto
          -10 -604 rmoveto
          -22 -87 3 3 -46 hvcurveto
          -2 152 3 397 rlineto
          2 41 99 3 21 hhcurveto
          150 81 -91 -176 -192 -86 -101 -152 hvcurveto
          endchar
        </CharString>
        <CharString name="D.ss01">
          33 0 28 -28 41 409 45 -28 28 hstemhm
          103.5 46.5 308 49 hintmask 10011100
          663 467 rmoveto
          28 -763 -28 203 vlineto
          1 -316 -1 -123 rlineto
          -203 -28 763 28 -272 hlineto
          76 39 40 80 116 vvcurveto
          100 -37 69 -69 35 vhcurveto
          hintmask 01101100
          57 -213 rmoveto
          -141 -67 -72 -118 -19 -71 2 2 -33 vhcurveto
          -1 110 2 292 rlineto
          1 32 78 2 16 hhcurveto
          119 62 -65 -131 hvcurveto
          endchar
        </CharString>
        <CharString name="Dcaron">
          112 -5 44 -18 -21 599 44 hstemhm
          102.5 50 393.5 53 hintmask 10111000
          322 727 rmoveto
          34 28 36 29 38 26 -12 25 rcurveline
          -7 hlineto
          -34 -23 -33 -22 -32 -23 -32 23 -33 22 -34 23 rrcurveto
          -7 hlineto
          -12 -25 38 -26 36 -29 35 -28 rlinecurve
          -202 -88 rmoveto
          3 -445 rlineto
          hintmask 01111000
          -3 -194 rlineto
          hintmask 10111000
          -2 50 118 -3 32 hhcurveto
          191 107 123 223 195 -100 107 -181 hvcurveto
          -10 -604 rmoveto
          -22 -87 3 3 -46 hvcurveto
          -2 152 3 397 rlineto
          2 42 99 3 20 hhcurveto
          150 81 -91 -176 -192 -86 -101 -152 hvcurveto
          endchar
        </CharString>
        <CharString name="Dcroat">
          112 -5 44 -18 -21 599 44 125 37 hstemhm
          102.5 50 393.5 53 hintmask 10111100
          169 768 rmoveto
          285 hlineto
          3 33 -4 4 rlineto
          -285 hlineto
          -3 -32 rlineto
          -64 -134 rmoveto
          3 -445 rlineto
          hintmask 01111100
          -3 -194 rlineto
          hintmask 10111100
          -2 50 118 -3 32 hhcurveto
          191 107 123 223 195 -100 107 -181 hvcurveto
          -10 -604 rmoveto
          -22 -87 3 3 -46 hvcurveto
          -2 152 3 397 rlineto
          2 42 99 3 20 hhcurveto
          150 81 -91 -176 -192 -86 -101 -152 hvcurveto
          endchar
        </CharString>
        <CharString name="Delta">
          37 0 45 534 60 hstem
          16 526 vstem
          542 hmoveto
          -223 639 rlineto
          -59 hlineto
          -244 -639 rlineto
          269 579 rmoveto
          6 hlineto
          185 -534 rlineto
          -395 hlineto
          endchar
        </CharString>
        <CharString name="E">
          -61 0 44.5 262 45 242 45.5 hstem
          102.5 50.5 vstem
          443 41 rmoveto
          -4 6 -157 -3 -129 1 -2 152 1 110 231 -1 5 41 -4 5 -107 -1 -125 1 2 241 132 1 149 -2 6 41 -4 6 rlineto
          -336 hlineto
          3 -445 -3 -194 rlineto
          337 hlineto
          endchar
        </CharString>
        <CharString name="Eacute">
          -61 0 44.5 262 45 242 45.5 hstem
          102.5 50.5 vstem
          207 726 rmoveto
          8 -3 62 28 59 28 64 33 rlinecurve
          2 7 -14 30 -7 2 -67 -40 -59 -30 -59 -29 rlinecurve
          247 -711 rmoveto
          -4 6 -157 -3 -129 1 -2 152 1 110 230 -1 6 41 -5 5 -106 -1 -125 1 2 241 132 1 149 -2 6 41 -4 6 rlineto
          -336 hlineto
          3 -445 -3 -194 rlineto
          337 hlineto
          endchar
        </CharString>
        <CharString name="Ebreve">
          -61 0 44.5 262 45 242 45.5 88 39 hstem
          102.5 50.5 vstem
          269 727 rmoveto
          56 42 29 53 18 hvcurveto
          -18 20 rlineto
          -9 hlineto
          -40 -13 -31 -23 -44 hhcurveto
          -45 -31 23 40 -12 hvcurveto
          -9 hlineto
          -17 -20 rlineto
          -53 16 40 -29 57 hhcurveto
          174 -686 rmoveto
          -4 6 -157 -3 -129 1 -2 152 1 110 230 -1 6 41 -5 5 -106 -1 -125 1 2 241 132 1 149 -2 6 41 -4 6 rlineto
          -336 hlineto
          3 -445 -3 -194 rlineto
          337 hlineto
          endchar
        </CharString>
        <CharString name="Ecaron">
          -61 0 44.5 262 45 242 45.5 hstem
          102.5 50.5 vstem
          281 727 rmoveto
          34 28 36 29 38 26 -12 25 rcurveline
          -7 hlineto
          -34 -23 -33 -22 -32 -23 -32 23 -33 22 -34 23 rrcurveto
          -7 hlineto
          -12 -25 38 -26 36 -29 35 -28 rlinecurve
          181 -686 rmoveto
          -4 6 -157 -3 -129 1 -2 152 1 110 230 -1 6 41 -5 5 -106 -1 -125 1 2 241 132 1 149 -2 6 41 -4 6 rlineto
          -336 hlineto
          3 -445 -3 -194 rlineto
          337 hlineto
          endchar
        </CharString>
        <CharString name="Ecircumflex">
          -61 0 44.5 262 45 242 45.5 hstem
          102.5 50.5 vstem
          165 736 rmoveto
          7 hlineto
          34 23 33 22 32 23 32 -23 33 -22 34 -23 rrcurveto
          7 hlineto
          12 25 -38 26 -36 29 -35 28 rlinecurve
          -19 hlineto
          -34 -28 -36 -29 -38 -26 rrcurveto
          290 -720 rmoveto
          -4 6 -157 -3 -129 1 -2 152 1 110 230 -1 6 41 -5 5 -106 -1 -125 1 2 241 132 1 149 -2 6 41 -4 6 rlineto
          -336 hlineto
          3 -445 -3 -194 rlineto
          337 hlineto
          endchar
        </CharString>
        <CharString name="Ecircumflexacute">
          -61 0 44.5 262 45 242 45.5 hstem
          102.5 50.5 vstem
          342 813 rmoveto
          7 hlineto
          75 88 rlineto
          7 vlineto
          -26 14 rlineto
          -7 hlineto
          -70 -92 rlineto
          -157 -114 rmoveto
          7 hlineto
          34 23 33 22 32 23 32 -23 33 -22 34 -23 rrcurveto
          7 hlineto
          12 25 -38 26 -36 29 -35 28 rlinecurve
          -19 hlineto
          -34 -28 -36 -29 -38 -26 rrcurveto
          291 -700 rmoveto
          -4 6 -157 -3 -129 1 -2 152 1 110 230 -1 6 41 -5 5 -106 -1 -125 1 2 241 132 1 149 -2 6 41 -4 6 rlineto
          -336 hlineto
          3 -445 -3 -194 rlineto
          337 hlineto
          endchar
        </CharString>
        <CharString name="Ecircumflexdotbelow">
          -61 -146 68 78 44.5 262 45 242 45.5 hstem
          102.5 50.5 87 67 vstem
          165 736 rmoveto
          7 hlineto
          34 23 33 22 32 23 32 -23 33 -22 34 -23 rrcurveto
          7 hlineto
          12 25 -38 26 -36 29 -35 28 rlinecurve
          -19 hlineto
          -34 -28 -36 -29 -38 -26 rrcurveto
          290 -720 rmoveto
          -4 6 -157 -3 -129 1 -2 152 1 110 230 -1 6 41 -5 5 -106 -1 -125 1 2 241 132 1 149 -2 6 41 -4 6 rlineto
          -336 hlineto
          3 -445 -3 -194 rlineto
          337 hlineto
          -164 -78 rmoveto
          -21 -13 -14 -21 -21 12 -12 21 21 13 13 21 21 -12 13 -21 hvcurveto
          endchar
        </CharString>
        <CharString name="Ecircumflexgrave">
          -61 0 44.5 262 45 242 45.5 hstem
          102.5 50.5 vstem
          368 813 rmoveto
          7 hlineto
          21 17 -70 92 rlineto
          -6 hlineto
          -27 -14 rlineto
          -7 vlineto
          -129 -185 rmoveto
          7 hlineto
          34 23 33 22 32 23 32 -23 33 -22 34 -23 rrcurveto
          7 hlineto
          12 25 -38 26 -36 29 -35 28 rlinecurve
          -19 hlineto
          -34 -28 -36 -29 -38 -26 rrcurveto
          291 -700 rmoveto
          -4 6 -157 -3 -129 1 -2 152 1 110 230 -1 6 41 -5 5 -106 -1 -125 1 2 241 132 1 149 -2 6 41 -4 6 rlineto
          -336 hlineto
          3 -445 -3 -194 rlineto
          337 hlineto
          endchar
        </CharString>
        <CharString name="Ecircumflexhookabove">
          -61 0 44.5 262 45 242 45.5 285 31 hstem
          102.5 50.5 226 33 vstem
          354 924 rmoveto
          15 10 -7 -12 -15 -17 -22 -31 -22 hvcurveto
          26 -46 25 13 -17 30 rlineto
          32 25 15 21 21 vvcurveto
          26 -21 19 -30 -23 -26 -12 -22 -23 vhcurveto
          12 -19 rlineto
          15 17 20 7 16 hhcurveto
          -190 -208 rmoveto
          7 hlineto
          34 23 33 22 32 23 32 -23 33 -22 34 -23 rrcurveto
          7 hlineto
          12 25 -38 26 -36 29 -35 28 rlinecurve
          -19 hlineto
          -34 -28 -36 -29 -38 -26 rrcurveto
          291 -700 rmoveto
          -4 6 -157 -3 -129 1 -2 152 1 110 230 -1 6 41 -5 5 -106 -1 -125 1 2 241 132 1 149 -2 6 41 -4 6 rlineto
          -336 hlineto
          3 -445 -3 -194 rlineto
          337 hlineto
          endchar
        </CharString>
        <CharString name="Ecircumflextilde">
          -61 0 44.5 262 45 242 45.5 hstem
          102.5 50.5 vstem
          368 813 rmoveto
          7 hlineto
          21 17 -70 92 rlineto
          -6 hlineto
          -27 -14 rlineto
          -7 vlineto
          -129 -185 rmoveto
          7 hlineto
          34 23 33 22 32 23 32 -23 33 -22 34 -23 rrcurveto
          7 hlineto
          12 25 -38 26 -36 29 -35 28 rlinecurve
          -19 hlineto
          -34 -28 -36 -29 -38 -26 rrcurveto
          291 -700 rmoveto
          -4 6 -157 -3 -129 1 -2 152 1 110 230 -1 6 41 -5 5 -106 -1 -125 1 2 241 132 1 149 -2 6 41 -4 6 rlineto
          -336 hlineto
          3 -445 -3 -194 rlineto
          337 hlineto
          endchar
        </CharString>
        <CharString name="Edieresis">
          -61 0 44.5 262 45 242 45.5 113 66 hstemhm
          102.5 50.5 10 66 83 66 hintmask 00000000
          hintmask 11111110
          195 752 rmoveto
          21 13 13 21 20 -12 12 -20 -21 -13 -13 -21 -20 12 -12 20 hvcurveto
          149 hmoveto
          21 13 13 21 20 -12 12 -20 -21 -13 -13 -21 -20 12 -12 20 hvcurveto
          99 -711 rmoveto
          -4 6 -157 -3 rlineto
          hintmask 11101000
          -129 1 -2 152 1 110 230 -1 6 41 -5 5 -106 -1 -125 1 2 241 132 1 149 -2 6 41 -4 6 rlineto
          -336 hlineto
          3 -445 -3 -194 rlineto
          337 hlineto
          endchar
        </CharString>
        <CharString name="Edotaccent">
          -61 0 44.5 262 45 242 45.5 125 68 hstem
          102.5 50.5 84 67 vstem
          270 764 rmoveto
          21 13 13 22 20 -12 13 -21 -21 -13 -14 -21 -21 12 -12 21 hvcurveto
          173 -723 rmoveto
          -4 6 -157 -3 -129 1 -2 152 1 110 230 -1 6 41 -5 5 -106 -1 -125 1 2 241 132 1 149 -2 6 41 -4 6 rlineto
          -336 hlineto
          3 -445 -3 -194 rlineto
          337 hlineto
          endchar
        </CharString>
        <CharString name="Edotbelow">
          -61 -146 68 78 44.5 262 45 242 45.5 hstem
          102.5 50.5 87 67 vstem
          443 41 rmoveto
          -4 6 -157 -3 -129 1 -2 152 1 110 230 -1 6 41 -5 5 -106 -1 -125 1 2 241 132 1 149 -2 6 41 -4 6 rlineto
          -336 hlineto
          3 -445 -3 -194 rlineto
          337 hlineto
          -164 -78 rmoveto
          -21 -13 -14 -21 -21 12 -12 21 21 13 13 21 21 -12 13 -21 hvcurveto
          endchar
        </CharString>
        <CharString name="Egrave">
          -61 0 44.5 262 45 242 45.5 hstem
          102.5 50.5 vstem
          363 728 rmoveto
          11 26 -59 29 -59 30 -67 40 rlinecurve
          -7 -2 -14 -30 2 -7 64 -33 59 -28 62 -28 rlinecurve
          88 -684 rmoveto
          -4 6 -157 -3 -129 1 -2 152 1 110 230 -1 6 41 -5 5 -106 -1 -125 1 2 241 132 1 149 -2 6 41 -4 6 rlineto
          -336 hlineto
          3 -445 -3 -194 rlineto
          337 hlineto
          endchar
        </CharString>
        <CharString name="Ehookabove">
          -61 0 44.5 262 45 242 45.5 207 33 hstem
          102.5 50.5 135 35 vstem
          262 846 rmoveto
          16 10 -7 -13 -16 -18 -23 -32 -23 hvcurveto
          27 -48 26 13 -18 32 rlineto
          34 26 16 22 22 vvcurveto
          27 -23 21 -31 -24 -28 -13 -23 -23 vhcurveto
          12 -20 rlineto
          15 18 21 8 17 hhcurveto
          181 -805 rmoveto
          -4 6 -157 -3 -129 1 -2 152 1 110 230 -1 6 41 -5 5 -106 -1 -125 1 2 241 132 1 149 -2 6 41 -4 6 rlineto
          -336 hlineto
          3 -445 -3 -194 rlineto
          337 hlineto
          endchar
        </CharString>
        <CharString name="Emacron">
          -61 0 44.5 262 45 242 45.5 129 37 hstem
          102.5 50.5 vstem
          128 768 rmoveto
          285 hlineto
          3 33 -4 4 rlineto
          -285 hlineto
          -3 -32 rlineto
          319 -732 rmoveto
          -4 6 -157 -3 -129 1 -2 152 1 110 230 -1 6 41 -5 5 -106 -1 -125 1 2 241 132 1 149 -2 6 41 -4 6 rlineto
          -336 hlineto
          3 -445 -3 -194 rlineto
          337 hlineto
          endchar
        </CharString>
        <CharString name="Eng">
          147 21 -21 552 87 hstem
          103 45.5 378 46.5 vstem
          573 182 rmoveto
          3 458 -49 -4 -1 -548 rlineto
          -5 hlineto
          -365 551 rlineto
          -54 hlineto
          2 -449 -3 -190 rlineto
          49 hlineto
          -2 205 1 347 rlineto
          6 hlineto
          363 -549 -12 -46 -36 -34 -69 -39 rlinecurve
          -8 vlineto
          21 -29 rlineto
          111 58 40 54 89 vvcurveto
          endchar
        </CharString>
        <CharString name="Eogonek">
          -61 -197 38 159 44.5 262 45 242 45.5 hstem
          102.5 50.5 128 37 vstem
          438 -114 rmoveto
          -3 hlineto
          -28 -23 -27 -17 -25 hhcurveto
          -27 -15 18 24 16 6 16 13 20 hvcurveto
          43 65 rlineto
          58 hlineto
          5 41 -4 6 -157 -3 -129 1 -2 152 1 110 230 -1 6 41 -5 5 -106 -1 -125 1 2 241 132 1 149 -2 6 41 -4 6 rlineto
          -336 hlineto
          3 -445 -3 -194 rlineto
          242 hlineto
          -39 -57 rlineto
          -16 -22 -7 -23 -22 vvcurveto
          -44 29 -29 44 35 31 20 35 29 vhcurveto
          endchar
        </CharString>
        <CharString name="Eth">
          131 -5 44 -18 -21 307 39 253 44 hstemhm
          121 50 395 53 hintmask 10111100
          121 639 rmoveto
          -1 hlineto
          2 -293 rlineto
          -110 hlineto
          -2 -34 3 -5 rlineto
          109 hlineto
          1 -113 rlineto
          hintmask 01111100
          -3 -194 rlineto
          1 hlineto
          hintmask 10111100
          -2 50 118 -3 32 hhcurveto
          191 107 123 223 195 -100 107 -181 hvcurveto
          -10 -604 rmoveto
          -22 -86 3 3 -47 hvcurveto
          -2 152 rlineto
          110 159 vlineto
          2 34 -3 5 rlineto
          -157 hlineto
          1 248 rlineto
          2 41 99 3 22 hhcurveto
          150 81 -91 -176 -192 -86 -101 -152 hvcurveto
          endchar
        </CharString>
        <CharString name="Etilde">
          -61 0 44.5 262 45 242 45.5 147 40 hstem
          102.5 50.5 vstem
          138 742 rmoveto
          6 hlineto
          24 27 14 20 13 hhcurveto
          26 90 -33 -5 40 hvcurveto
          8 3 57 59 rlineto
          6 vlineto
          -18 18 rlineto
          -5 hlineto
          -25 -27 -14 -19 -14 hhcurveto
          -25 -90 33 4 -40 hvcurveto
          -8 -2 -57 -59 rlineto
          -6 vlineto
          322 -719 rmoveto
          -4 6 -157 -3 -129 1 -2 152 1 110 230 -1 6 41 -5 5 -106 -1 -125 1 2 241 132 1 149 -2 6 41 -4 6 rlineto
          -336 hlineto
          3 -445 -3 -194 rlineto
          337 hlineto
          endchar
        </CharString>
        <CharString name="Euro">
          -37 -5 39 129 34 84 34 143 -20 22 38 hstemhm
          95 44 hintmask 11101100
          306 34 rmoveto
          -85 -54 45 84 -19 hvcurveto
          198 hlineto
          3 30 -4 4 rlineto
          -203 hlineto
          -2 15 -1 15 17 vvcurveto
          13 0 12 2 12 vhcurveto
          205 hlineto
          3 30 -4 4 rlineto
          -199 hlineto
          95 17 58 50 93 hhcurveto
          44 45 -14 -26 34 hvcurveto
          6 1 rlineto
          hintmask 11110100
          10 37 rlineto
          hintmask 11101100
          25 -39 -50 15 -48 hhcurveto
          -120 -75 -65 -118 -22 hvcurveto
          -77 hlineto
          -3 -30 3 -4 rlineto
          73 hlineto
          -2 -13 0 -13 0 -14 0 -16 1 -14 -14 flex1
          -73 hlineto
          -3 -30 3 -4 rlineto
          78 hlineto
          -109 21 70 -59 113 hhcurveto
          47 51 16 28 43 hvcurveto
          4 36 -7 4 rlineto
          -29 -39 -51 -16 -46 hhcurveto
          endchar
        </CharString>
        <CharString name="F">
          -107 21 -21 295.5 44 254 45.5 hstem
          102.5 49.5 vstem
          154 593 rmoveto
          123 1 143 -3 6 42 -5 6 rlineto
          -320 hlineto
          3 -445 -3 -194 rlineto
          52 hlineto
          -2 197 1 99 218 -1 6 40 -5 6 -102 -2 -117 1 rlineto
          endchar
        </CharString>
        <CharString name="G">
          72 -6 46 554 -20 25 45 hstemhm
          43 53 380.5 49.5 hintmask 10111000
          347 644 rmoveto
          -194 -110 -118 -216 -201 92 -115 182 hvcurveto
          67 1 55 10 88 25 -2 135 rcurveline
          1 83 -50 -4 1 -85 -1 -93 rlineto
          -20 -71 -37 -6 -50 hhcurveto
          -146 -76 90 182 190 86 97 159 56 54 -18 -36 60 hvcurveto
          8 1 rlineto
          hintmask 11011000
          12 48 rlineto
          hintmask 10111000
          34 -61 -62 16 -61 hhcurveto
          endchar
        </CharString>
        <CharString name="Gbreve">
          72 -6 46 554 -20 25 45 83 39 hstemhm
          43 53 381.5 48 hintmask 10111100
          422 829 rmoveto
          -9 hlineto
          -40 -13 -31 -23 -44 hhcurveto
          -45 -31 23 40 -12 hvcurveto
          -9 hlineto
          -17 -20 rlineto
          -53 16 40 -29 57 hhcurveto
          56 42 29 53 18 hvcurveto
          -93 -165 rmoveto
          -194 -110 -118 -216 -201 93 -115 181 hvcurveto
          67 1 55 10 88 25 -2 135 rcurveline
          1 83 -49 -4 1 -85 -2 -93 rlineto
          -20 -70 -38 -6 -50 hhcurveto
          -146 -76 90 182 190 87 97 158 56 54 -18 -36 60 hvcurveto
          9 1 rlineto
          hintmask 11011100
          12 48 rlineto
          hintmask 10111100
          34 -61 -62 16 -62 hhcurveto
          endchar
        </CharString>
        <CharString name="Gcircumflex">
          72 -6 46 554 -20 25 45 hstemhm
          43 53 381.5 48 hintmask 10111000
          220 736 rmoveto
          7 hlineto
          34 23 33 22 32 23 32 -23 33 -22 34 -23 rrcurveto
          7 hlineto
          12 25 -38 26 -36 29 -35 28 rlinecurve
          -19 hlineto
          -34 -28 -36 -29 -38 -26 rrcurveto
          139 -117 rmoveto
          -194 -110 -118 -216 -201 93 -115 181 hvcurveto
          67 1 55 10 88 25 -2 135 rcurveline
          1 83 -49 -4 1 -85 -2 -93 rlineto
          -20 -70 -38 -6 -50 hhcurveto
          -146 -76 90 182 190 87 97 158 56 54 -18 -36 60 hvcurveto
          9 1 rlineto
          hintmask 11011000
          12 48 rlineto
          hintmask 10111000
          34 -61 -62 16 -62 hhcurveto
          endchar
        </CharString>
        <CharString name="Gcommaaccent">
          72 -6 46 554 -20 25 45 hstemhm
          43 53 219 44 118.5 48 hintmask 10110100
          347 644 rmoveto
          -194 -110 -118 -216 -201 93 -115 181 hvcurveto
          67 1 55 10 88 25 -2 135 rcurveline
          1 83 -49 -4 1 -85 -2 -93 rlineto
          -20 -70 -38 -6 -50 hhcurveto
          -146 -76 90 182 190 87 97 158 56 54 -18 -36 60 hvcurveto
          9 1 rlineto
          hintmask 11010100
          12 48 rlineto
          hintmask 10110100
          34 -61 -62 16 -62 hhcurveto
          hintmask 10111100
          -27 -705 rmoveto
          -13 -4 -11 -7 -10 -7 rrcurveto
          -6 vlineto
          19 -11 10 -13 -16 vvcurveto
          -26 -18 -28 -34 -26 vhcurveto
          -1 -5 19 -17 rlineto
          52 38 26 38 34 vvcurveto
          23 -14 19 -25 14 vhcurveto
          endchar
        </CharString>
        <CharString name="Gdieresis">
          72 -6 46 554 -20 25 45 108 66 hstemhm
          43 53 122 66 83 66 44.5 48 hintmask 10111111
          252 818 rmoveto
          -21 -13 -13 -21 -20 12 -12 20 21 13 13 21 20 -12 12 -20 hvcurveto
          149 hmoveto
          -21 -13 -13 -21 -20 12 -12 20 21 13 13 21 20 -12 12 -20 hvcurveto
          -54 -174 rmoveto
          -194 -110 -118 -216 -201 93 -115 181 hvcurveto
          67 1 55 10 88 25 -2 135 rcurveline
          1 83 -49 -4 1 -85 -2 -93 rlineto
          -20 -70 -38 -6 -50 hhcurveto
          -146 -76 90 182 190 87 97 158 56 54 -18 -36 60 hvcurveto
          9 1 rlineto
          hintmask 11011111
          12 48 rlineto
          hintmask 10111111
          34 -61 -62 16 -62 hhcurveto
          endchar
        </CharString>
        <CharString name="Gdotaccent">
          72 -6 46 554 -20 25 45 120 68 hstemhm
          43 53 196 67 118.5 48 hintmask 10111110
          326 832 rmoveto
          -21 -13 -14 -21 -21 12 -12 21 21 13 13 22 20 -12 13 -21 hvcurveto
          21 -188 rmoveto
          -194 -110 -118 -216 -201 93 -115 181 hvcurveto
          67 1 55 10 88 25 -2 135 rcurveline
          1 83 -49 -4 1 -85 -2 -93 rlineto
          -20 -70 -38 -6 -50 hhcurveto
          -146 -76 90 182 190 87 97 158 56 54 -18 -36 60 hvcurveto
          9 1 rlineto
          hintmask 11011110
          12 48 rlineto
          hintmask 10111110
          34 -61 -62 16 -62 hhcurveto
          endchar
        </CharString>
        <CharString name="Germandbls">
          83 -5 43 -17 -21 585 -20 34 44 hstemhm
          81 48.5 395.5 51 hintmask 10011100
          312 643 rmoveto
          -141 -92 -86 -129 1 hvcurveto
          2 -238 rlineto
          hintmask 01011100
          -3 -190 rlineto
          52 hlineto
          -2 198 1 231 rlineto
          104 1 68 66 112 hhcurveto
          50 50 -12 -27 57 hvcurveto
          -180 -221 4 -17 rlineto
          154 -27 79 -46 -85 vvcurveto
          hintmask 10111100
          -71 -54 -55 -80 -48 -60 20 38 -44 vhcurveto
          -8 -3 -6 -53 rlineto
          -30 47 63 -15 52 hhcurveto
          107 82 67 106 104 -80 54 -141 29 hvcurveto
          179 216 -4 14 rlineto
          hintmask 10011100
          37 -76 -70 21 -72 hhcurveto
          endchar
        </CharString>
        <CharString name="Gtilde">
          72 -6 46 554 -20 25 45 142 40 hstemhm
          43 53 381.5 48 hintmask 10111100
          474 816 rmoveto
          -18 18 rlineto
          -5 hlineto
          -25 -27 -14 -19 -14 hhcurveto
          -25 -90 33 4 -40 hvcurveto
          -8 -2 -57 -59 rlineto
          -6 vlineto
          17 -18 rlineto
          6 hlineto
          24 27 14 20 13 hhcurveto
          26 90 -33 -5 40 hvcurveto
          8 3 57 59 rlineto
          -127 -166 rmoveto
          -194 -110 -118 -216 -201 93 -115 181 hvcurveto
          67 1 55 10 88 25 -2 135 rcurveline
          1 83 -49 -4 1 -85 -2 -93 rlineto
          -20 -70 -38 -6 -50 hhcurveto
          -146 -76 90 182 190 87 97 158 56 54 -18 -36 60 hvcurveto
          9 1 rlineto
          hintmask 11011100
          12 48 rlineto
          hintmask 10111100
          34 -61 -62 16 -62 hhcurveto
          endchar
        </CharString>
        <CharString name="H">
          147 21 -21 301.5 45 292.5 -20 hstem
          102.5 50.5 371.5 50 vstem
          574 197 rmoveto
          2 442 rlineto
          -53 hlineto
          2 -292 -189 -1 -184 1 2 292 rlineto
          -53 hlineto
          3 -445 -3 -194 rlineto
          52 hlineto
          -2 197 1 104 179 1 194 -1 1 -107 -3 -194 rlineto
          52 hlineto
          endchar
        </CharString>
        <CharString name="Hbar">
          178 21 -21 301.5 45 134.5 39 -39 158 hstemhm
          117 50 371.5 50 hintmask 11101100
          589 481 rmoveto
          69 hlineto
          3 34 -5 5 rlineto
          -67 hlineto
          hintmask 11011100
          1 119 rlineto
          -52 hlineto
          hintmask 11101100
          1 -119 rlineto
          -372 hlineto
          hintmask 11011100
          1 119 rlineto
          -53 hlineto
          hintmask 11101100
          1 -119 rlineto
          -66 hlineto
          -3 -35 4 -4 rlineto
          65 hlineto
          2 -287 -3 -194 rlineto
          53 hlineto
          -2 197 rlineto
          104 vlineto
          179 1 195 -1 1 -107 -3 -194 rlineto
          52 hlineto
          -2 197 rlineto
          -49 284 rmoveto
          1 -134 -189 -1 -184 1 rlineto
          134 vlineto
          endchar
        </CharString>
        <CharString name="Hcircumflex">
          147 21 -21 301.5 45 292.5 -20 hstem
          102.5 50.5 371.5 50 vstem
          229 736 rmoveto
          7 hlineto
          34 23 33 22 32 23 32 -23 33 -22 34 -23 rrcurveto
          7 hlineto
          12 25 -38 26 -36 29 -35 28 rlinecurve
          -19 hlineto
          -34 -28 -36 -29 -38 -26 rrcurveto
          356 -564 rmoveto
          3 442 rlineto
          -53 hlineto
          2 -292 -188 -1 -185 1 2 292 rlineto
          -53 hlineto
          3 -445 -3 -194 rlineto
          52 hlineto
          -2 197 1 104 179 1 194 -1 1 -107 -3 -194 rlineto
          52 hlineto
          endchar
        </CharString>
        <CharString name="I">
          -275 21 -21 639 -20 hstem
          102.5 50 vstem
          151 197 rmoveto
          3 442 rlineto
          -53 hlineto
          3 -445 -3 -194 rlineto
          52 hlineto
          endchar
        </CharString>
        <CharString name="I.ss01">
          -281 0 28 439 28 hstem
          99.5 47.5 vstem
          146 154 rmoveto
          2 313 rlineto
          201 28 -449 -28 199 hlineto
          1 -317 -1 -122 rlineto
          -199 -28 449 28 -202 hlineto
          endchar
        </CharString>
        <CharString name="IJ">
          15 -79 -21 121 -21 595 44 hstem
          102.5 50 242.5 49 vstem
          154 639 rmoveto
          -53 hlineto
          3 -445 -3 -194 rlineto
          52 hlineto
          -2 197 rlineto
          292 15 rmoveto
          2 427 rlineto
          -179 hlineto
          -4 -39 6 -5 rlineto
          125 hlineto
          2 -389 rlineto
          -91 vlineto
          -79 -35 -47 -88 -52 vhcurveto
          -8 vlineto
          21 -29 rlineto
          110 61 41 58 97 vvcurveto
          endchar
        </CharString>
        <CharString name="Iacute">
          -275 21 -21 639 -20 hstem
          102.5 50 vstem
          245 849 rmoveto
          -7 2 -67 -40 -59 -30 -59 -29 rlinecurve
          11 -26 8 -3 62 28 59 28 64 33 rlinecurve
          2 7 rlineto
          -108 -622 rmoveto
          3 442 rlineto
          -53 hlineto
          3 -445 -3 -194 rlineto
          52 hlineto
          endchar
        </CharString>
        <CharString name="Iacute_J.loclNLD">
          15 -79 -21 121 -21 595 44 hstem
          102.5 50 242.5 49 vstem
          245 849 rmoveto
          -7 2 -67 -40 -59 -30 -59 -29 rlinecurve
          11 -26 8 -3 62 28 59 28 64 33 rlinecurve
          2 7 rlineto
          249 hmoveto
          -14 30 -7 2 -67 -40 -59 -30 -59 -29 rlinecurve
          11 -26 8 -3 62 28 59 28 64 33 rlinecurve
          -352 -173 rmoveto
          -53 hlineto
          3 -445 -3 -194 rlineto
          52 hlineto
          -2 197 rlineto
          294 442 rmoveto
          -179 hlineto
          -4 -39 6 -5 rlineto
          125 hlineto
          2 -389 rlineto
          -91 vlineto
          -79 -35 -47 -88 -52 vhcurveto
          -8 vlineto
          21 -29 rlineto
          110 61 41 58 97 vvcurveto
          -1 96 rlineto
          endchar
        </CharString>
        <CharString name="Ibreve">
          -275 21 -21 639 -20 108 39 hstem
          102.5 50 vstem
          224 829 rmoveto
          -9 hlineto
          -40 -13 -31 -23 -44 hhcurveto
          -45 -31 23 40 -12 hvcurveto
          -9 hlineto
          -17 -20 rlineto
          -53 16 40 -29 57 hhcurveto
          56 42 29 53 18 hvcurveto
          -91 -612 rmoveto
          3 442 rlineto
          -53 hlineto
          3 -445 -3 -194 rlineto
          52 hlineto
          endchar
        </CharString>
        <CharString name="Icaron">
          -275 21 -21 639 -20 hstem
          102.5 50 vstem
          234 835 rmoveto
          -7 hlineto
          -34 -23 -33 -22 -32 -23 -32 23 -33 22 -34 23 rrcurveto
          -7 hlineto
          -12 -25 38 -26 36 -29 35 -28 rlinecurve
          19 hlineto
          34 28 36 29 38 26 rrcurveto
          -95 -613 rmoveto
          3 442 rlineto
          -53 hlineto
          3 -445 -3 -194 rlineto
          52 hlineto
          endchar
        </CharString>
        <CharString name="Icircumflex">
          -275 21 -21 639 -20 hstem
          102.5 50 vstem
          22 736 rmoveto
          7 hlineto
          34 23 33 22 32 23 32 -23 33 -22 34 -23 rrcurveto
          7 hlineto
          12 25 -38 26 -36 29 -35 28 rlinecurve
          -19 hlineto
          -34 -28 -36 -29 -38 -26 rrcurveto
          141 -564 rmoveto
          3 442 rlineto
          -53 hlineto
          3 -445 -3 -194 rlineto
          52 hlineto
          endchar
        </CharString>
        <CharString name="Idieresis">
          -275 21 -21 639 -20 133 66 hstemhm
          37 66 -0.5 50 -0.5 66 hintmask 00000000
          hintmask 11110100
          71 818 rmoveto
          -21 -13 -13 -21 -20 12 -12 20 21 13 13 21 20 -12 12 -20 hvcurveto
          115 hmoveto
          -21 -13 -13 -21 -20 12 -12 20 21 13 13 21 20 -12 12 -20 hvcurveto
          hintmask 11101000
          -35 -621 rmoveto
          3 442 rlineto
          -53 hlineto
          3 -445 -3 -194 rlineto
          52 hlineto
          endchar
        </CharString>
        <CharString name="Idotaccent">
          -275 21 -21 639 -20 145 68 hstemhm
          94 67 -58.5 50 hintmask 00000000
          hintmask 11110000
          128 832 rmoveto
          -21 -13 -14 -21 -21 12 -12 21 21 13 13 22 20 -12 13 -21 hvcurveto
          hintmask 11101000
          23 -635 rmoveto
          3 442 rlineto
          -53 hlineto
          3 -445 -3 -194 rlineto
          52 hlineto
          endchar
        </CharString>
        <CharString name="Idotbelow">
          -275 -146 68 99 -21 639 -20 hstemhm
          88 67 -52.5 50 hintmask 11101000
          151 197 rmoveto
          3 442 rlineto
          -53 hlineto
          3 -445 -3 -194 rlineto
          52 hlineto
          hintmask 11110000
          -31 -78 rmoveto
          -21 -13 -14 -21 -21 12 -12 21 21 13 13 21 21 -12 13 -21 hvcurveto
          endchar
        </CharString>
        <CharString name="Igrave">
          -275 21 -21 639 -20 hstem
          102.5 50 vstem
          39 851 rmoveto
          -14 -30 2 -7 64 -33 59 -28 62 -28 rlinecurve
          8 3 11 26 -59 29 -59 30 -67 40 rlinecurve
          105 -656 rmoveto
          3 442 rlineto
          -53 hlineto
          3 -445 -3 -194 rlineto
          52 hlineto
          endchar
        </CharString>
        <CharString name="Ihookabove">
          -275 21 -21 639 -20 227 33 hstemhm
          102.5 50 -7.5 35 hintmask 00000000
          hintmask 11101000
          126 879 rmoveto
          -24 -28 -13 -23 -23 hvcurveto
          12 -20 rlineto
          15 18 21 8 17 hhcurveto
          16 10 -7 -13 -16 -18 -23 -32 -23 hvcurveto
          27 -48 26 13 -18 32 rlineto
          34 26 16 22 22 vvcurveto
          27 -23 21 -31 vhcurveto
          hintmask 11110000
          25 -682 rmoveto
          3 442 rlineto
          -53 hlineto
          3 -445 -3 -194 rlineto
          52 hlineto
          endchar
        </CharString>
        <CharString name="Imacron">
          -275 21 -21 639 -20 149 37 hstem
          102.5 50 vstem
          237 801 rmoveto
          -5 4 rlineto
          -211 hlineto
          -4 -32 5 -5 rlineto
          212 hlineto
          -83 -571 rmoveto
          3 442 rlineto
          -53 hlineto
          3 -445 -3 -194 rlineto
          52 hlineto
          endchar
        </CharString>
        <CharString name="Iogonek">
          -275 -197 38 180 -21 639 -20 hstem
          34 37 31.5 50 vstem
          150 -126 rmoveto
          -5 hlineto
          -21 -11 -14 -12 -18 hhcurveto
          -19 -12 11 20 23 18 35 48 70 hvcurveto
          16 hlineto
          -2 197 3 442 rlineto
          -53 hlineto
          3 -445 -3 -194 rlineto
          -47 -67 -20 -37 -31 vvcurveto
          -37 24 -25 38 27 20 13 26 18 vhcurveto
          endchar
        </CharString>
        <CharString name="Itilde">
          -275 21 -21 639 -20 128 41 hstem
          102.5 50 vstem
          260 813 rmoveto
          -17 18 rlineto
          -6 hlineto
          -24 -23 -12 -19 -13 hhcurveto
          -22 -77 33 4 -36 hvcurveto
          -7 -3 -52 -58 rlineto
          -6 vlineto
          18 -18 rlineto
          5 hlineto
          24 23 12 19 13 hhcurveto
          22 78 -33 -4 35 hvcurveto
          7 2 52 59 rlineto
          -109 -610 rmoveto
          3 442 rlineto
          -53 hlineto
          3 -445 -3 -194 rlineto
          52 hlineto
          endchar
        </CharString>
        <CharString name="J">
          -240 -79 -21 695 44 hstem
          140 49 vstem
          188 212 rmoveto
          2 427 rlineto
          -179 hlineto
          -4 -39 6 -5 rlineto
          125 hlineto
          2 -389 rlineto
          -91 vlineto
          -79 -35 -47 -88 -52 vhcurveto
          -8 vlineto
          21 -29 rlineto
          110 61 41 58 97 vvcurveto
          endchar
        </CharString>
        <CharString name="Jcircumflex">
          -240 -79 -21 695 44 hstem
          141 48.5 vstem
          111 844 rmoveto
          -34 -28 -36 -29 -38 -26 12 -25 rcurveline
          7 hlineto
          34 23 33 22 32 23 32 -23 33 -22 34 -23 rrcurveto
          7 hlineto
          12 25 -38 26 -36 29 -35 28 rlinecurve
          61 -205 rmoveto
          -180 hlineto
          -4 -39 6 -5 rlineto
          125 hlineto
          3 -389 rlineto
          -91 vlineto
          -79 -36 -47 -88 -52 vhcurveto
          -8 vlineto
          22 -29 rlineto
          109 61 41 58 97 vvcurveto
          -1 96 rlineto
          endchar
        </CharString>
        <CharString name="K">
          -2 13 -21 29 -21 639 -20 hstemhm
          101.5 50.5 hintmask 01110000
          151 197 rmoveto
          2 442 rlineto
          -53 hlineto
          3 -445 -3 -194 rlineto
          53 hlineto
          354 639 rmoveto
          -63 hlineto
          -41 -51 -231 -247 rlineto
          -4 vlineto
          hintmask 10110000
          92 -118 103 -116 102 -108 7 -3 rcurveline
          16 3 16 3 15 6 1 7 rcurveline
          -103 102 -101 114 -90 113 rrcurveto
          endchar
        </CharString>
        <CharString name="Kcommaaccent">
          -2 13 -21 29 -21 639 -20 hstemhm
          101.5 50 134.5 44 hintmask 01110000
          150 197 rmoveto
          3 442 rlineto
          -53 hlineto
          3 -445 -3 -194 rlineto
          52 hlineto
          355 639 rmoveto
          -63 hlineto
          -41 -51 -231 -247 rlineto
          -4 vlineto
          hintmask 10111000
          92 -118 103 -116 102 -108 7 -3 rcurveline
          16 3 16 3 15 6 1 7 rcurveline
          -103 102 -101 114 -90 113 rrcurveto
          61 -401 rmoveto
          -13 -4 -11 -7 -10 -7 rrcurveto
          -6 vlineto
          19 -11 10 -13 -16 vvcurveto
          -26 -18 -28 -34 -26 vhcurveto
          -1 -5 19 -17 rlineto
          52 38 26 38 34 vvcurveto
          23 -14 19 -25 14 vhcurveto
          endchar
        </CharString>
        <CharString name="L">
          -122 0 45 594 -20 hstem
          100.5 50 vstem
          404 39 rmoveto
          -5 6 rlineto
          -248 hlineto
          -2 152 3 442 rlineto
          -53 hlineto
          3 -445 -3 -194 rlineto
          299 hlineto
          endchar
        </CharString>
        <CharString name="L.ss01">
          -150 0 28 -28 43 424 28 hstemhm
          98 46 177 37.5 hintmask 10111000
          144 167 rmoveto
          2 300 rlineto
          334 28 -580 -28 197 hlineto
          2 -303 -2 -136 rlineto
          -197 -28 580 28 -122 hlineto
          hintmask 01111000
          1 104 -37 -1 -2 -88 rlineto
          -176 hlineto
          endchar
        </CharString>
        <CharString name="Lacute">
          -122 0 45 594 -20 hstem
          100.5 50 vstem
          137 726 rmoveto
          8 -3 62 28 59 28 64 33 rlinecurve
          2 7 -14 30 -7 2 -67 -40 -59 -30 -59 -29 rlinecurve
          278 -713 rmoveto
          -5 6 rlineto
          -248 hlineto
          -2 152 3 442 rlineto
          -53 hlineto
          3 -445 -3 -194 rlineto
          299 hlineto
          endchar
        </CharString>
        <CharString name="Lcaron">
          -113 0 45 370 164.5 59.5 -20 hstem
          100.5 50 vstem
          404 39 rmoveto
          -5 6 rlineto
          -248 hlineto
          -2 152 3 442 rlineto
          -53 hlineto
          3 -445 -3 -194 rlineto
          299 hlineto
          -76 413 rmoveto
          28 4 18 158 -4 6 -39 -3 -8 -160 rlineto
          endchar
        </CharString>
        <CharString name="Lcommaaccent">
          -122 0 45 594 -20 hstem
          100.5 50 89.5 44 vstem
          404 39 rmoveto
          -5 6 rlineto
          -248 hlineto
          -2 152 3 442 rlineto
          -53 hlineto
          3 -445 -3 -194 rlineto
          299 hlineto
          -153 -61 rmoveto
          -13 -4 -11 -7 -10 -7 rrcurveto
          -6 vlineto
          19 -11 10 -13 -16 vvcurveto
          -26 -18 -28 -34 -26 vhcurveto
          -1 -5 19 -17 rlineto
          52 38 26 38 34 vvcurveto
          23 -14 19 -25 14 vhcurveto
          endchar
        </CharString>
        <CharString name="Ldot">
          -122 0 45 294 68 232 -20 hstem
          100.5 50 139.5 67 vstem
          404 39 rmoveto
          -5 6 rlineto
          -248 hlineto
          -2 152 3 442 rlineto
          -53 hlineto
          3 -445 -3 -194 rlineto
          299 hlineto
          -75 339 rmoveto
          21 13 13 22 20 -12 13 -21 -21 -13 -14 -21 -21 12 -12 21 hvcurveto
          endchar
        </CharString>
        <CharString name="Lslash">
          -111 0 45 413 -20 201 -20 hstem
          113.5 48 vstem
          416 39 rmoveto
          -5 6 rlineto
          -248 hlineto
          -2 152 1 139 163 87 -11 32 -7 3 -145 -77 2 258 rlineto
          -53 hlineto
          2 -284 -97 -51 11 -33 7 -4 79 42 1 -115 -3 -194 rlineto
          299 hlineto
          endchar
        </CharString>
        <CharString name="M">
          255 21 -21 77 69 403 90 hstem
          67 650 vstem
          717 hmoveto
          -65 639 rlineto
          -59 hlineto
          -34 -90 -166 -403 rlineto
          -5 hlineto
          -157 395 -36 98 rlineto
          -59 hlineto
          -69 -639 rlineto
          46 hlineto
          19 198 39 351 rlineto
          6 hlineto
          188 -472 rlineto
          47 hlineto
          195 472 rlineto
          6 hlineto
          39 -354 17 -195 rlineto
          endchar
        </CharString>
        <CharString name="M.ss01">
          150 0 28 53 63 269 82 -28 28 hstemhm
          -100 880 hintmask 11011000
          549 467 rmoveto
          231 28 -880 -28 231 hlineto
          -50 -439 rlineto
          -181 -28 880 28 -184 hlineto
          -111 439 rmoveto
          -19 -44 -126 -279 rlineto
          -5 hlineto
          -120 274 -19 49 rlineto
          357 -439 rmoveto
          -430 hlineto
          13 136 rlineto
          hintmask 11101000
          29 249 rlineto
          4 hlineto
          146 -332 rlineto
          42 hlineto
          151 332 rlineto
          5 hlineto
          28 -252 rlineto
          endchar
        </CharString>
        <CharString name="N">
          147 0 87 465 87 hstem
          103 45.5 378 46.5 vstem
          573 182 rmoveto
          3 458 -49 -4 -1 -549 rlineto
          -5 hlineto
          -365 552 rlineto
          -54 hlineto
          2 -449 -3 -190 rlineto
          49 hlineto
          -2 205 1 347 rlineto
          6 hlineto
          365 -552 rlineto
          53 hlineto
          endchar
        </CharString>
        <CharString name="Nacute">
          147 0 87 465 87 hstem
          103 45.5 378.5 48 vstem
          453 849 rmoveto
          -7 2 -67 -40 -59 -30 -59 -29 rlinecurve
          11 -26 8 -3 62 28 59 28 64 33 rlinecurve
          2 7 rlineto
          106 -637 rmoveto
          4 458 -50 -4 rlineto
          -549 -6 vlineto
          -365 552 rlineto
          -54 hlineto
          2 -449 -3 -190 rlineto
          49 hlineto
          -2 205 1 347 rlineto
          6 hlineto
          365 -552 rlineto
          54 hlineto
          endchar
        </CharString>
        <CharString name="Ncaron">
          147 0 87 465 87 hstem
          103 45.5 378.5 48 vstem
          442 835 rmoveto
          -7 hlineto
          -34 -23 -33 -22 -32 -23 -32 23 -33 22 -34 23 rrcurveto
          -7 hlineto
          -12 -25 38 -26 36 -29 35 -28 rlinecurve
          19 hlineto
          34 28 36 29 38 26 rrcurveto
          119 -628 rmoveto
          4 458 -50 -4 rlineto
          -549 -6 vlineto
          -365 552 rlineto
          -54 hlineto
          2 -449 -3 -190 rlineto
          49 hlineto
          -2 205 1 347 rlineto
          6 hlineto
          365 -552 rlineto
          54 hlineto
          endchar
        </CharString>
        <CharString name="Ncommaaccent">
          147 0 87 465 87 hstem
          103 45.5 190.5 44 144 48 vstem
          573 182 rmoveto
          4 458 -50 -4 rlineto
          -549 -6 vlineto
          -365 552 rlineto
          -54 hlineto
          2 -449 -3 -190 rlineto
          49 hlineto
          -2 205 1 347 rlineto
          6 hlineto
          365 -552 rlineto
          54 hlineto
          -230 -61 rmoveto
          -13 -4 -11 -7 -10 -7 rrcurveto
          -6 vlineto
          19 -11 10 -13 -16 vvcurveto
          -26 -18 -28 -34 -26 vhcurveto
          -1 -5 19 -17 rlineto
          52 38 26 38 34 vvcurveto
          23 -14 19 -25 14 vhcurveto
          endchar
        </CharString>
        <CharString name="Ntilde">
          147 0 87 465 87 147 40 hstem
          103 45.5 378.5 48 vstem
          484 816 rmoveto
          -18 18 rlineto
          -5 hlineto
          -25 -27 -14 -19 -14 hhcurveto
          -25 -90 33 4 -40 hvcurveto
          -8 -2 -57 -59 rlineto
          -6 vlineto
          17 -18 rlineto
          6 hlineto
          24 27 14 20 13 hhcurveto
          26 90 -33 -5 40 hvcurveto
          8 3 57 59 rlineto
          89 -628 rmoveto
          4 458 -50 -4 rlineto
          -549 -6 vlineto
          -365 552 rlineto
          -54 hlineto
          2 -449 -3 -190 rlineto
          49 hlineto
          -2 205 1 347 rlineto
          6 hlineto
          365 -552 rlineto
          54 hlineto
          endchar
        </CharString>
        <CharString name="O">
          101 -6 44 562 45 hstem
          43 52 441 53 vstem
          322 645 rmoveto
          -179 -100 -118 -211 -206 95 -116 171 179 101 120 217 201 -95 113 -172 hvcurveto
          -4 -45 rmoveto
          143 75 -94 -182 -188 -79 -98 -145 -142 -75 97 186 183 77 96 146 hvcurveto
          endchar
        </CharString>
        <CharString name="OE">
          313 -12 45 -33 44.5 262 45 242.5 45 -33 45 0 -20 hstemhm
          43 52 379 51 hintmask 00000000
          hintmask 10101011
          357 651 rmoveto
          -200 -114 -124 -210 -207 109 -122 192 hvcurveto
          hintmask 01110011
          55 61 12 58 hhcurveto
          293 hlineto
          6 41 -5 6 -154 -3 -133 1 rlineto
          262 vlineto
          232 -1 5 41 -4 5 -115 -1 -117 1 rlineto
          242 144 vlineto
          139 -2 rlineto
          hintmask 01100111
          5 41 -4 6 rlineto
          hintmask 01110011
          -292 hlineto
          hintmask 10101011
          -56 -47 12 -58 hhcurveto
          -4 -45 rmoveto
          hintmask 10110011
          43 49 -7 -5 15 hvcurveto
          11 -3 3 -7 -25 vvcurveto
          3 -486 rlineto
          -19 -6 -6 -20 -5 vhcurveto
          -4 -17 -46 -6 -38 hhcurveto
          -169 -86 102 183 hvcurveto
          hintmask 10101011
          186 91 102 167 vhcurveto
          endchar
        </CharString>
        <CharString name="Oacute">
          101 -6 44 562 45 hstem
          43 52 440 54 vstem
          434 849 rmoveto
          -7 2 -67 -40 -59 -30 -59 -29 rlinecurve
          11 -26 8 -3 62 28 59 28 64 33 rlinecurve
          2 7 rlineto
          -125 -174 rmoveto
          -180 -100 -118 -211 -206 95 -116 171 180 100 120 217 201 -95 113 -171 hvcurveto
          -5 -45 rmoveto
          142 75 -94 -182 -188 -78 -98 -146 -141 -75 97 186 183 77 96 146 hvcurveto
          endchar
        </CharString>
        <CharString name="Obreve">
          101 -6 44 562 45 82 39 hstem
          43 52 440 54 vstem
          413 829 rmoveto
          -9 hlineto
          -40 -13 -31 -23 -44 hhcurveto
          -45 -31 23 40 -12 hvcurveto
          -9 hlineto
          -17 -20 rlineto
          -53 16 40 -29 57 hhcurveto
          56 42 29 53 18 hvcurveto
          -108 -164 rmoveto
          -180 -100 -118 -211 -206 95 -116 171 180 100 120 217 201 -95 113 -171 hvcurveto
          -5 -45 rmoveto
          142 75 -94 -182 -188 -78 -98 -146 -141 -75 97 186 183 77 96 146 hvcurveto
          endchar
        </CharString>
        <CharString name="Ocaron">
          101 -6 44 562 45 hstem
          43 52 440 54 vstem
          423 835 rmoveto
          -7 hlineto
          -34 -23 -33 -22 -32 -23 -32 23 -33 22 -34 23 rrcurveto
          -7 hlineto
          -12 -25 38 -26 36 -29 35 -28 rlinecurve
          19 hlineto
          34 28 36 29 38 26 rrcurveto
          -112 -165 rmoveto
          -180 -100 -118 -211 -206 95 -116 171 180 100 120 217 201 -95 113 -171 hvcurveto
          -5 -45 rmoveto
          142 75 -94 -182 -188 -78 -98 -146 -141 -75 97 186 183 77 96 146 hvcurveto
          endchar
        </CharString>
        <CharString name="Ocircumflex">
          101 -6 44 562 45 hstem
          43 52 440 54 vstem
          211 736 rmoveto
          7 hlineto
          34 23 33 22 32 23 32 -23 33 -22 34 -23 rrcurveto
          7 hlineto
          12 25 -38 26 -36 29 -35 28 rlinecurve
          -19 hlineto
          -34 -28 -36 -29 -38 -26 rrcurveto
          124 -116 rmoveto
          -180 -100 -118 -211 -206 95 -116 171 180 100 120 217 201 -95 113 -171 hvcurveto
          -5 -45 rmoveto
          142 75 -94 -182 -188 -78 -98 -146 -141 -75 97 186 183 77 96 146 hvcurveto
          endchar
        </CharString>
        <CharString name="Ocircumflexacute">
          101 -6 44 562 45 hstem
          43 52 440 54 vstem
          470 908 rmoveto
          -26 14 rlineto
          -7 hlineto
          -70 -92 21 -17 rlineto
          7 hlineto
          75 88 rlineto
          -260 -185 rmoveto
          7 hlineto
          34 23 33 22 32 23 32 -23 33 -22 34 -23 rrcurveto
          7 hlineto
          12 25 -38 26 -36 29 -35 28 rlinecurve
          -19 hlineto
          -34 -28 -36 -29 -38 -26 rrcurveto
          125 -96 rmoveto
          -180 -100 -118 -211 -206 95 -116 171 180 100 120 217 201 -95 113 -171 hvcurveto
          -5 -45 rmoveto
          142 75 -94 -182 -188 -78 -98 -146 -141 -75 97 186 183 77 96 146 hvcurveto
          endchar
        </CharString>
        <CharString name="Ocircumflexdotbelow">
          101 -146 68 72 44 562 45 hstem
          43 52 185 67 188 54 vstem
          223 727 rmoveto
          7 hlineto
          34 23 33 22 32 23 32 -23 33 -22 34 -23 rrcurveto
          7 hlineto
          12 25 -38 26 -36 29 -35 28 rlinecurve
          -19 hlineto
          -34 -28 -36 -29 -38 -26 rrcurveto
          112 -107 rmoveto
          -180 -100 -118 -211 -206 95 -116 171 180 100 120 217 201 -95 113 -171 hvcurveto
          -5 -45 rmoveto
          142 75 -94 -182 -188 -78 -98 -146 -141 -75 97 186 183 77 96 146 hvcurveto
          -4 -678 rmoveto
          -21 -13 -14 -21 -21 12 -12 21 21 13 13 21 21 -12 13 -21 hvcurveto
          endchar
        </CharString>
        <CharString name="Ocircumflexgrave">
          101 -6 44 562 45 hstem
          43 52 440 54 vstem
          372 922 rmoveto
          -6 hlineto
          -27 -14 rlineto
          -7 vlineto
          75 -88 rlineto
          7 hlineto
          21 17 rlineto
          -232 -114 rmoveto
          7 hlineto
          34 23 33 22 32 23 32 -23 33 -22 34 -23 rrcurveto
          7 hlineto
          12 25 -38 26 -36 29 -35 28 rlinecurve
          -19 hlineto
          -34 -28 -36 -29 -38 -26 rrcurveto
          125 -96 rmoveto
          -180 -100 -118 -211 -206 95 -116 171 180 100 120 217 201 -95 113 -171 hvcurveto
          -5 -45 rmoveto
          142 75 -94 -182 -188 -78 -98 -146 -141 -75 97 186 183 77 96 146 hvcurveto
          endchar
        </CharString>
        <CharString name="Ocircumflexhookabove">
          101 -6 44 562 45 279 31 hstem
          43 52 330 33 77 54 vstem
          407 955 rmoveto
          -23 -26 -12 -22 -23 hvcurveto
          12 -19 rlineto
          15 17 20 7 16 hhcurveto
          15 10 -7 -12 -15 -17 -22 -31 -22 hvcurveto
          26 -46 25 13 -17 30 rlineto
          32 25 15 21 21 vvcurveto
          26 -21 19 -30 vhcurveto
          -197 -239 rmoveto
          7 hlineto
          34 23 33 22 32 23 32 -23 33 -22 34 -23 rrcurveto
          7 hlineto
          12 25 -38 26 -36 29 -35 28 rlinecurve
          -19 hlineto
          -34 -28 -36 -29 -38 -26 rrcurveto
          125 -96 rmoveto
          -180 -100 -118 -211 -206 95 -116 171 180 100 120 217 201 -95 113 -171 hvcurveto
          -5 -45 rmoveto
          142 75 -94 -182 -188 -78 -98 -146 -141 -75 97 186 183 77 96 146 hvcurveto
          endchar
        </CharString>
        <CharString name="Ocircumflextilde">
          101 -6 44 562 45 246 40 hstem
          43 52 440 54 vstem
          460 921 rmoveto
          -17 18 rlineto
          -5 hlineto
          -25 -25 -14 -18 -13 hhcurveto
          -23 -86 32 4 -37 hvcurveto
          -8 -2 -54 -58 rlineto
          -6 vlineto
          17 -18 rlineto
          6 hlineto
          24 24 14 19 13 hhcurveto
          24 85 -32 -5 37 hvcurveto
          8 3 54 58 rlineto
          -250 -199 rmoveto
          7 hlineto
          34 23 33 22 32 23 32 -23 33 -22 34 -23 rrcurveto
          7 hlineto
          12 25 -38 26 -36 29 -35 28 rlinecurve
          -19 hlineto
          -34 -28 -36 -29 -38 -26 rrcurveto
          125 -96 rmoveto
          -180 -100 -118 -211 -206 95 -116 171 180 100 120 217 201 -95 113 -171 hvcurveto
          -5 -45 rmoveto
          142 75 -94 -182 -188 -78 -98 -146 -141 -75 97 186 183 77 96 146 hvcurveto
          endchar
        </CharString>
        <CharString name="Odieresis">
          101 -6 44 562 45 107 66 hstem
          43 52 114 66 83 66 111 54 vstem
          243 818 rmoveto
          -21 -13 -13 -21 -20 12 -12 20 21 13 13 21 20 -12 12 -20 hvcurveto
          149 hmoveto
          -21 -13 -13 -21 -20 12 -12 20 21 13 13 21 20 -12 12 -20 hvcurveto
          -69 -173 rmoveto
          -180 -100 -118 -211 -206 95 -116 171 180 100 120 217 201 -95 113 -171 hvcurveto
          -5 -45 rmoveto
          142 75 -94 -182 -188 -78 -98 -146 -141 -75 97 186 183 77 96 146 hvcurveto
          endchar
        </CharString>
        <CharString name="Odotbelow">
          101 -146 68 72 44 562 45 hstem
          43 52 185 67 188 54 vstem
          323 645 rmoveto
          -180 -100 -118 -211 -206 95 -116 171 180 100 120 217 201 -95 113 -171 hvcurveto
          -5 -45 rmoveto
          142 75 -94 -182 -188 -78 -98 -146 -141 -75 97 186 183 77 96 146 hvcurveto
          -4 -678 rmoveto
          -21 -13 -14 -21 -21 12 -12 21 21 13 13 21 21 -12 13 -21 hvcurveto
          endchar
        </CharString>
        <CharString name="Ograve">
          101 -6 44 562 45 hstem
          43 52 440 54 vstem
          228 851 rmoveto
          -14 -30 2 -7 64 -33 59 -28 62 -28 rlinecurve
          8 3 11 26 -59 29 -59 30 -67 40 rlinecurve
          88 -208 rmoveto
          -180 -100 -118 -211 -206 95 -116 171 180 100 120 217 201 -95 113 -171 hvcurveto
          -5 -45 rmoveto
          142 75 -94 -182 -188 -78 -98 -146 -141 -75 97 186 183 77 96 146 hvcurveto
          endchar
        </CharString>
        <CharString name="Ohm">
          209 0 42 -20 -21 600 44 hstemhm
          95 53 92.5 70.5 116 70.5 93.5 53 hintmask 10110010
          375 645 rmoveto
          -183 -97 -122 -172 -121 51 -112 95 -72 hvcurveto
          -1 -4 rlineto
          -104 hlineto
          -85 4 rlineto
          hintmask 01110010
          -7 -43 4 -5 rlineto
          hintmask 10111110
          84 2 rlineto
          137 hlineto
          39 -1 3 2 rlineto
          42 vlineto
          -105 69 -58 118 125 vvcurveto
          147 76 99 147 145 75 -99 -147 -124 -58 -118 -106 -70 vhcurveto
          -42 vlineto
          3 -2 39 1 rlineto
          128 hlineto
          91 -2 7 44 -4 5 -80 -5 rlineto
          -113 hlineto
          -1 4 rlineto
          97 74 50 116 122 vvcurveto
          hintmask 10110010
          168 -90 119 -179 vhcurveto
          endchar
        </CharString>
        <CharString name="Ohookabove">
          101 -6 44 562 45 201 33 hstem
          43 52 239 35 166 54 vstem
          315 879 rmoveto
          -24 -28 -13 -23 -23 hvcurveto
          12 -20 rlineto
          15 18 21 8 17 hhcurveto
          16 10 -7 -13 -16 -18 -23 -32 -23 hvcurveto
          27 -48 26 13 -18 32 rlineto
          34 26 16 22 22 vvcurveto
          27 -23 21 -31 vhcurveto
          8 -234 rmoveto
          -180 -100 -118 -211 -206 95 -116 171 180 100 120 217 201 -95 113 -171 hvcurveto
          -5 -45 rmoveto
          142 75 -94 -182 -188 -78 -98 -146 -141 -75 97 186 183 77 96 146 hvcurveto
          endchar
        </CharString>
        <CharString name="Ohorn">
          105 -6 44 542 29 -9 45 hstemhm
          43 52 441 53 -17 43 hintmask 00000000
          hintmask 11010100
          568 759 rmoveto
          -8 -9 -4 -7 -10 hvcurveto
          -2 -6 rlineto
          22 -22 11 -25 -23 vvcurveto
          -41 -37 -22 -40 vhcurveto
          -48 -31 36 -95 hhcurveto
          hintmask 10111000
          -178 -100 -118 -211 -206 95 -116 172 178 101 123 210 hvcurveto
          hintmask 11011000
          115 -30 84 -60 54 vhcurveto
          hintmask 11010100
          66 50 34 63 47 -28 35 -19 hvcurveto
          hintmask 10111000
          -250 -159 rmoveto
          143 75 -93 -185 -185 -79 -99 -145 -142 -75 97 186 183 77 96 146 hvcurveto
          endchar
        </CharString>
        <CharString name="Ohornacute">
          105 -6 44 542 29 -9 45 hstemhm
          43 52 440 54 -16 43 hintmask 10111000
          434 849 rmoveto
          -7 2 -67 -40 -59 -30 -59 -29 rlinecurve
          11 -26 8 -3 62 28 59 28 64 33 rlinecurve
          2 7 rlineto
          hintmask 11010100
          120 -60 rmoveto
          -7 -10 -4 -7 -10 hvcurveto
          -2 -6 rlineto
          22 -22 12 -25 -23 vvcurveto
          -41 -38 -22 -40 vhcurveto
          -48 -31 36 -94 hhcurveto
          hintmask 10111000
          -179 -100 -118 -211 -206 95 -116 172 179 100 123 210 hvcurveto
          hintmask 11011000
          115 -30 84 -60 54 vhcurveto
          hintmask 11010100
          66 51 34 63 47 -29 35 -19 hvcurveto
          hintmask 10111000
          -251 -159 rmoveto
          143 75 -93 -185 -185 -78 -99 -145 -142 -75 97 186 183 77 96 145 hvcurveto
          endchar
        </CharString>
        <CharString name="Ohorndotbelow">
          105 -146 68 72 44 542 29 -9 45 hstemhm
          43 52 185 67 188 54 -16 43 hintmask 00000000
          hintmask 01101001
          568 759 rmoveto
          -7 -10 -4 -7 -10 hvcurveto
          -2 -6 rlineto
          22 -22 12 -25 -23 vvcurveto
          -41 -38 -22 -40 vhcurveto
          -48 -31 36 -94 hhcurveto
          hintmask 01011010
          -179 -100 -118 -211 -206 95 -116 172 179 100 123 210 hvcurveto
          hintmask 01101010
          115 -30 84 -60 54 vhcurveto
          hintmask 01101001
          66 51 34 63 47 -29 35 -19 hvcurveto
          hintmask 11011110
          -251 -159 rmoveto
          143 75 -93 -185 -185 -78 -99 -145 -142 -75 97 186 183 77 96 145 hvcurveto
          -3 -678 rmoveto
          -21 -13 -14 -21 -21 12 -12 21 21 13 13 21 21 -12 13 -21 hvcurveto
          endchar
        </CharString>
        <CharString name="Ohorngrave">
          105 -6 44 542 29 -9 45 hstemhm
          43 52 440 54 -16 43 hintmask 10111000
          228 851 rmoveto
          -14 -30 2 -7 64 -33 59 -28 62 -28 rlinecurve
          8 3 11 26 -59 29 -59 30 -67 40 rlinecurve
          hintmask 11010100
          333 -94 rmoveto
          -7 -10 -4 -7 -10 hvcurveto
          -2 -6 rlineto
          22 -22 12 -25 -23 vvcurveto
          -41 -38 -22 -40 vhcurveto
          -48 -31 36 -94 hhcurveto
          hintmask 10111000
          -179 -100 -118 -211 -206 95 -116 172 179 100 123 210 hvcurveto
          hintmask 11011000
          115 -30 84 -60 54 vhcurveto
          hintmask 11010100
          66 51 34 63 47 -29 35 -19 hvcurveto
          hintmask 10111000
          -251 -159 rmoveto
          143 75 -93 -185 -185 -78 -99 -145 -142 -75 97 186 183 77 96 145 hvcurveto
          endchar
        </CharString>
        <CharString name="Ohornhookabove">
          105 -6 44 542 29 -9 45 201 33 hstemhm
          43 52 239 35 166 54 -16 43 hintmask 10111110
          315 879 rmoveto
          -24 -28 -13 -23 -23 hvcurveto
          12 -20 rlineto
          15 18 21 8 17 hhcurveto
          16 10 -7 -13 -16 -18 -23 -32 -23 hvcurveto
          27 -48 26 13 -18 32 rlineto
          34 26 16 22 22 vvcurveto
          27 -23 21 -31 vhcurveto
          hintmask 11011101
          253 -120 rmoveto
          -7 -10 -4 -7 -10 hvcurveto
          -2 -6 rlineto
          22 -22 12 -25 -23 vvcurveto
          -41 -38 -22 -40 vhcurveto
          -48 -31 36 -94 hhcurveto
          hintmask 10111110
          -179 -100 -118 -211 -206 95 -116 172 179 100 123 210 hvcurveto
          hintmask 11011110
          115 -30 84 -60 54 vhcurveto
          hintmask 11011101
          66 51 34 63 47 -29 35 -19 hvcurveto
          hintmask 10111110
          -251 -159 rmoveto
          143 75 -93 -185 -185 -78 -99 -145 -142 -75 97 186 183 77 96 145 hvcurveto
          endchar
        </CharString>
        <CharString name="Ohorntilde">
          105 -6 44 542 29 -9 45 141 40 hstemhm
          43 52 440 54 -16 43 hintmask 10111100
          465 816 rmoveto
          -18 18 rlineto
          -5 hlineto
          -25 -27 -14 -19 -14 hhcurveto
          -25 -90 33 4 -40 hvcurveto
          -8 -2 -57 -59 rlineto
          -6 vlineto
          17 -18 rlineto
          6 hlineto
          24 27 14 20 13 hhcurveto
          26 90 -33 -5 40 hvcurveto
          8 3 57 59 rlineto
          hintmask 11011010
          103 -51 rmoveto
          -7 -10 -4 -7 -10 hvcurveto
          -2 -6 rlineto
          22 -22 12 -25 -23 vvcurveto
          -41 -38 -22 -40 vhcurveto
          -48 -31 36 -94 hhcurveto
          hintmask 10111100
          -179 -100 -118 -211 -206 95 -116 172 179 100 123 210 hvcurveto
          hintmask 11011100
          115 -30 84 -60 54 vhcurveto
          hintmask 11011010
          66 51 34 63 47 -29 35 -19 hvcurveto
          hintmask 10111100
          -251 -159 rmoveto
          143 75 -93 -185 -185 -78 -99 -145 -142 -75 97 186 183 77 96 145 hvcurveto
          endchar
        </CharString>
        <CharString name="Ohungarumlaut">
          101 -6 44 562 45 hstem
          43 52 440 54 vstem
          222 720 rmoveto
          7 hlineto
          39 36 38 35 38 37 1 7 rcurveline
          -24 18 rlineto
          -7 hlineto
          -36 -39 -37 -37 -38 -38 rrcurveto
          156 -19 rmoveto
          7 hlineto
          39 36 38 35 38 37 1 7 rcurveline
          -25 18 rlineto
          -6 hlineto
          -36 -39 -37 -37 -38 -38 rrcurveto
          -17 -94 rmoveto
          -180 -100 -118 -211 -206 95 -116 171 180 100 120 217 201 -95 113 -171 hvcurveto
          -5 -45 rmoveto
          142 75 -94 -182 -188 -78 -98 -146 -141 -75 97 186 183 77 96 146 hvcurveto
          endchar
        </CharString>
        <CharString name="Omacron">
          101 -6 44 562 45 123 37 hstem
          43 52 440 54 vstem
          462 801 rmoveto
          -4 4 rlineto
          -285 hlineto
          -3 -32 4 -5 rlineto
          285 hlineto
          -136 -123 rmoveto
          -180 -100 -118 -211 -206 95 -116 171 180 100 120 217 201 -95 113 -171 hvcurveto
          -5 -45 rmoveto
          142 75 -94 -182 -188 -78 -98 -146 -141 -75 97 186 183 77 96 146 hvcurveto
          endchar
        </CharString>
        <CharString name="Omega">
          209 0 42 -20 -21 600 44 hstemhm
          95 53 92.5 70.5 116 70.5 93.5 53 hintmask 10110010
          374 645 rmoveto
          -182 -97 -122 -172 -121 50 -112 96 -72 hvcurveto
          -1 -4 rlineto
          -104 hlineto
          -85 4 rlineto
          hintmask 01110010
          -7 -43 4 -5 rlineto
          hintmask 10111110
          84 2 rlineto
          137 hlineto
          39 -1 3 2 rlineto
          42 vlineto
          -105 69 -58 118 125 vvcurveto
          147 76 99 146 146 75 -99 -147 -124 -58 -118 -106 -70 vhcurveto
          -42 vlineto
          3 -2 39 1 rlineto
          127 hlineto
          92 -2 7 44 -4 5 -80 -5 rlineto
          -113 hlineto
          -1 4 rlineto
          96 74 51 116 122 vvcurveto
          hintmask 10110010
          168 -91 119 -179 vhcurveto
          endchar
        </CharString>
        <CharString name="Oogonek">
          101 -197 38 153 44 562 45 hstem
          43 52 218 37 185 54 vstem
          420 13 rmoveto
          110 41 59 110 167 vvcurveto
          201 -95 113 -171 -180 -100 -118 -211 -206 95 -116 171 23 22 2 4 21 vhcurveto
          -39 -57 rlineto
          -16 -22 -7 -23 -22 vvcurveto
          -44 29 -29 44 35 31 20 35 29 vhcurveto
          -11 28 rlineto
          -3 hlineto
          -28 -23 -27 -17 -25 hhcurveto
          -27 -15 18 24 16 6 16 13 20 hvcurveto
          -274 386 rmoveto
          183 77 96 146 142 75 -94 -182 -188 -78 -98 -146 -141 -75 97 186 vhcurveto
          endchar
        </CharString>
        <CharString name="Oslash">
          101 -74 -21 89 44 562 45 hstem
          43 52 440 54 vstem
          510 699 rmoveto
          -4 7 -33 11 -42 -91 rlineto
          13 -32 -36 6 -40 hhcurveto
          -180 -100 -118 -211 -133 40 -96 74 -51 hvcurveto
          -53 -115 3 -5 33 -11 52 112 rlineto
          -15 34 39 -8 44 hhcurveto
          180 100 120 217 134 -42 95 -79 48 hvcurveto
          -373 -287 rmoveto
          183 77 96 146 35 31 -6 -11 27 vhcurveto
          -233 -502 rlineto
          -55 45 -28 81 114 vvcurveto
          216 -283 rmoveto
          -38 -33 7 14 -28 hvcurveto
          234 504 rlineto
          59 -43 30 -81 -115 vvcurveto
          -188 -78 -98 -146 vhcurveto
          endchar
        </CharString>
        <CharString name="Oslashacute">
          101 -74 -21 89 44 562 45 hstem
          43 52 440 54 vstem
          251 726 rmoveto
          8 -3 62 28 59 28 64 33 rlinecurve
          2 7 -14 30 -7 2 -67 -40 -59 -30 -59 -29 rlinecurve
          270 -53 rmoveto
          -4 7 -33 11 -42 -91 rlineto
          13 -32 -36 6 -40 hhcurveto
          -180 -100 -118 -211 -133 40 -96 74 -51 hvcurveto
          -53 -115 3 -5 33 -11 52 112 rlineto
          -15 34 39 -8 44 hhcurveto
          180 100 120 217 134 -42 95 -79 48 hvcurveto
          -373 -287 rmoveto
          183 77 96 146 35 31 -6 -11 27 vhcurveto
          -233 -502 rlineto
          -55 45 -28 81 114 vvcurveto
          216 -283 rmoveto
          -38 -33 7 14 -28 hvcurveto
          234 504 rlineto
          59 -43 30 -81 -115 vvcurveto
          -188 -78 -98 -146 vhcurveto
          endchar
        </CharString>
        <CharString name="Otilde">
          101 -6 44 562 45 141 40 hstem
          43 52 440 54 vstem
          465 816 rmoveto
          -18 18 rlineto
          -5 hlineto
          -25 -27 -14 -19 -14 hhcurveto
          -25 -90 33 4 -40 hvcurveto
          -8 -2 -57 -59 rlineto
          -6 vlineto
          17 -18 rlineto
          6 hlineto
          24 27 14 20 13 hhcurveto
          26 90 -33 -5 40 hvcurveto
          8 3 57 59 rlineto
          -142 -165 rmoveto
          -180 -100 -118 -211 -206 95 -116 171 180 100 120 217 201 -95 113 -171 hvcurveto
          -5 -45 rmoveto
          142 75 -94 -182 -188 -78 -98 -146 -141 -75 97 186 183 77 96 146 hvcurveto
          endchar
        </CharString>
        <CharString name="P">
          -27 21 -21 236 45 314 45 hstem
          102.5 48.5 256 53 vstem
          101 639 rmoveto
          3 -445 -3 -194 rlineto
          52 hlineto
          -2 197 rlineto
          39 82 vlineto
          144 83 82 139 118 -68 65 -121 hvcurveto
          -119 -358 rmoveto
          2 312 111 2 rlineto
          92 -3 50 -48 -92 vvcurveto
          -99 -51 -62 -93 -12 vhcurveto
          endchar
        </CharString>
        <CharString name="Q">
          104 -166 -21 181 44 562 45 hstem
          43 52 441 53 vstem
          729 -145 rmoveto
          -126 20 -118 51 -99 76 rrcurveto
          131 31 72 115 181 vvcurveto
          204 -95 112 -172 -179 -100 -118 -211 -206 95 -116 172 vhcurveto
          25 1 106 -93 129 -64 132 -25 rlinecurve
          6 1 8 7 6 9 9 17 rlinecurve
          -636 472 rmoveto
          185 77 96 146 142 76 -94 -180 -189 -80 -99 -143 -142 -76 97 184 vhcurveto
          endchar
        </CharString>
        <CharString name="R">
          8 13 -21 29 -21 250 45 300 45 hstemhm
          102.5 48.5 256 53 hintmask 01111100
          321 262 rmoveto
          89 35 50 71 93 vvcurveto
          116 -68 63 -121 vhcurveto
          -170 -1 3 -445 -3 -194 rlineto
          52 hlineto
          -2 197 rlineto
          53 126 vlineto
          hintmask 10111100
          50 -86 56 -85 58 -83 8 -4 rcurveline
          16 3 14 3 15 7 rrcurveto
          7 vlineto
          hintmask 01111100
          -62 82 -58 83 -53 85 rrcurveto
          -169 34 rmoveto
          2 298 111 2 rlineto
          92 -3 50 -46 -89 vvcurveto
          -86 -44 -56 -81 -22 vhcurveto
          endchar
        </CharString>
        <CharString name="Racute">
          8 -8 20 9 -21 250 45 300 45 hstemhm
          102.5 48.5 256 53 hintmask 10111100
          224 703 rmoveto
          7 -1 53 43 51 41 54 47 rlinecurve
          1 7 -21 27 -6 1 -56 -55 -49 -44 -51 -42 rlinecurve
          115 -465 rmoveto
          88 35 50 71 93 vvcurveto
          116 -68 63 -121 vhcurveto
          -170 -1 3 -445 rlineto
          hintmask 01111100
          -3 -194 rlineto
          52 hlineto
          -2 197 rlineto
          53 126 vlineto
          hintmask 10111100
          50 -86 56 -85 58 -83 8 -4 rcurveline
          16 3 15 3 14 7 1 7 rcurveline
          -63 83 -57 82 -53 85 rrcurveto
          -170 34 rmoveto
          2 298 110 2 rlineto
          93 -3 50 -46 -89 vvcurveto
          -86 -44 -56 -81 -22 vhcurveto
          endchar
        </CharString>
        <CharString name="Rcaron">
          8 -8 20 9 -21 250 45 300 45 65 43 hstemhm
          102.5 48.5 256 53 hintmask 10111110
          280 705 rmoveto
          40 50 36 42 36 38 -16 23 rcurveline
          -7 hlineto
          -37 -38 -31 -35 -31 -37 -31 37 -32 35 -37 38 rrcurveto
          -7 hlineto
          -16 -23 38 -39 36 -43 38 -48 rlinecurve
          63 -443 rmoveto
          88 35 50 71 93 vvcurveto
          116 -68 63 -121 vhcurveto
          -170 -1 3 -445 rlineto
          hintmask 01111110
          -3 -194 rlineto
          52 hlineto
          -2 197 rlineto
          53 126 vlineto
          hintmask 10111110
          50 -86 56 -85 58 -83 8 -4 rcurveline
          16 3 15 3 14 7 1 7 rcurveline
          -63 83 -57 82 -53 85 rrcurveto
          -170 34 rmoveto
          2 298 110 2 rlineto
          93 -3 50 -46 -89 vvcurveto
          -86 -44 -56 -81 -22 vhcurveto
          endchar
        </CharString>
        <CharString name="Rcommaaccent">
          8 -8 20 9 -21 250 45 300 45 hstemhm
          102.5 48.5 123 44 89 53 hintmask 10111010
          322 262 rmoveto
          88 35 50 71 93 vvcurveto
          116 -68 63 -121 vhcurveto
          -170 -1 3 -445 rlineto
          hintmask 01111010
          -3 -194 rlineto
          52 hlineto
          -2 197 rlineto
          53 126 vlineto
          hintmask 10111010
          50 -86 56 -85 58 -83 8 -4 rcurveline
          16 3 15 3 14 7 1 7 rcurveline
          -63 83 -57 82 -53 85 rrcurveto
          -170 34 rmoveto
          2 298 110 2 rlineto
          93 -3 50 -46 -89 vvcurveto
          -86 -44 -56 -81 -22 vhcurveto
          hintmask 10111110
          -3 -355 rmoveto
          -13 -4 -11 -7 -10 -7 rrcurveto
          -6 vlineto
          19 -11 10 -13 -16 vvcurveto
          -26 -18 -28 -34 -26 vhcurveto
          -1 -5 19 -17 rlineto
          52 38 26 38 34 vvcurveto
          23 -14 19 -25 14 vhcurveto
          endchar
        </CharString>
        <CharString name="S">
          -71 -5 43 561 44 hstem
          62 51 246 52 vstem
          257 643 rmoveto
          -116 -79 -75 -93 hvcurveto
          -184 297 22 -149 vvcurveto
          -63 -55 -63 -91 -47 -60 18 40 -46 vhcurveto
          -7 -3 -6 -53 rlineto
          -30 48 61 -15 53 hhcurveto
          120 82 80 95 hvcurveto
          185 -298 -18 142 vvcurveto
          56 49 64 89 37 44 -12 -25 39 vhcurveto
          10 3 9 48 rlineto
          23 -51 -47 7 -35 hhcurveto
          endchar
        </CharString>
        <CharString name="Sacute">
          -71 -5 43 561 44 hstem
          62 51 247 51 vstem
          341 867 rmoveto
          -6 1 -56 -55 -49 -44 -51 -42 rlinecurve
          17 -24 7 -1 53 43 51 41 54 47 rlinecurve
          1 7 rlineto
          -105 -197 rmoveto
          -116 -79 -75 -93 hvcurveto
          -184 298 22 -149 vvcurveto
          -63 -56 -63 -91 -47 -59 18 40 -46 vhcurveto
          -8 -3 -6 -53 rlineto
          -30 48 62 -15 53 hhcurveto
          119 82 80 95 hvcurveto
          185 -298 -18 142 vvcurveto
          56 49 64 89 37 44 -12 -25 39 vhcurveto
          11 3 8 48 rlineto
          23 -50 -48 7 -35 hhcurveto
          endchar
        </CharString>
        <CharString name="Scaron">
          -71 -5 43 561 44 62 43 hstem
          62 51 247 51 vstem
          347 858 rmoveto
          -7 hlineto
          -37 -38 -31 -35 -31 -37 -31 37 -32 35 -37 38 rrcurveto
          -7 hlineto
          -16 -23 38 -39 36 -43 38 -48 rlinecurve
          21 hlineto
          40 50 36 42 36 38 rrcurveto
          -106 -192 rmoveto
          -116 -79 -75 -93 hvcurveto
          -184 298 22 -149 vvcurveto
          -63 -56 -63 -91 -47 -59 18 40 -46 vhcurveto
          -8 -3 -6 -53 rlineto
          -30 48 62 -15 53 hhcurveto
          119 82 80 95 hvcurveto
          185 -298 -18 142 vvcurveto
          56 49 64 89 37 44 -12 -25 39 vhcurveto
          11 3 8 48 rlineto
          23 -50 -48 7 -35 hhcurveto
          endchar
        </CharString>
        <CharString name="Scedilla">
          -71 -186 31 150 43 561 44 hstem
          62 51 145 37 65 51 vstem
          411 170 rmoveto
          185 -298 -18 142 vvcurveto
          56 49 64 89 37 44 -12 -25 39 vhcurveto
          11 3 8 48 rlineto
          23 -50 -48 7 -35 hhcurveto
          -116 -79 -75 -93 hvcurveto
          -184 298 22 -149 vvcurveto
          -63 -56 -63 -91 -47 -59 18 40 -46 vhcurveto
          -8 -3 -6 -53 rlineto
          -30 47 61 -15 53 hhcurveto
          -19 -63 46 -28 rlineto
          14 -8 9 -7 -14 vvcurveto
          -19 -15 -11 -21 -24 -14 13 18 -15 vhcurveto
          -4 -1 -7 -29 rlineto
          -16 13 21 -16 32 hhcurveto
          40 31 24 36 22 -10 16 -26 15 hvcurveto
          -32 20 15 50 rlineto
          102 13 67 74 86 vvcurveto
          endchar
        </CharString>
        <CharString name="Scircumflex">
          -71 -5 43 561 44 172 43 hstem
          62 51 247 51 vstem
          135 705 rmoveto
          7 hlineto
          37 38 31 35 31 37 31 -37 32 -35 37 -38 rrcurveto
          7 hlineto
          16 23 -38 39 -36 43 -38 48 rlinecurve
          -21 hlineto
          -40 -50 -36 -42 -36 -38 rrcurveto
          138 -85 rmoveto
          -116 -79 -75 -93 hvcurveto
          -184 298 22 -149 vvcurveto
          -63 -56 -63 -91 -47 -59 18 40 -46 vhcurveto
          -8 -3 -6 -53 rlineto
          -30 48 62 -15 53 hhcurveto
          119 82 80 95 hvcurveto
          185 -298 -18 142 vvcurveto
          56 49 64 89 37 44 -12 -25 39 vhcurveto
          11 3 8 48 rlineto
          23 -50 -48 7 -35 hhcurveto
          endchar
        </CharString>
        <CharString name="Scommaaccent">
          -71 -5 43 561 44 hstem
          62 51 114 44 89 51 vstem
          257 643 rmoveto
          -116 -79 -75 -93 hvcurveto
          -184 298 22 -149 vvcurveto
          -63 -56 -63 -91 -47 -59 18 40 -46 vhcurveto
          -8 -3 -6 -53 rlineto
          -30 48 62 -15 53 hhcurveto
          119 82 80 95 hvcurveto
          185 -298 -18 142 vvcurveto
          56 49 64 89 37 44 -12 -25 39 vhcurveto
          11 3 8 48 rlineto
          23 -50 -48 7 -35 hhcurveto
          -25 -704 rmoveto
          -13 -4 -11 -7 -10 -7 rrcurveto
          -6 vlineto
          19 -11 10 -13 -16 vvcurveto
          -26 -18 -28 -34 -26 vhcurveto
          -1 -5 19 -17 rlineto
          52 38 26 38 34 vvcurveto
          23 -14 19 -25 14 vhcurveto
          endchar
        </CharString>
        <CharString name="T">
          -47 21 -21 596 43 -40 -20 hstemhm
          217.5 50 hintmask 11010000
          459 633 rmoveto
          -5 6 rlineto
          -424 hlineto
          hintmask 10110000
          -5 -40 4 -6 rlineto
          hintmask 11010000
          109 3 rlineto
          78 hlineto
          3 -402 -3 -194 rlineto
          52 hlineto
          -2 197 3 399 rlineto
          78 hlineto
          107 -3 rlineto
          endchar
        </CharString>
        <CharString name="Tbar">
          -47 21 -21 312 36 248 43 -40 -20 hstemhm
          217 51 hintmask 11101000
          269 596 rmoveto
          78 hlineto
          107 -3 5 40 -4 6 rlineto
          -425 hlineto
          hintmask 11011000
          -5 -40 4 -6 rlineto
          hintmask 11101000
          110 3 rlineto
          77 hlineto
          2 -248 rlineto
          -98 hlineto
          -3 -32 4 -4 rlineto
          97 hlineto
          1 -118 -3 -194 rlineto
          52 hlineto
          -2 197 1 115 rlineto
          106 hlineto
          3 31 -5 5 rlineto
          -104 hlineto
          endchar
        </CharString>
        <CharString name="Tcaron">
          -47 21 -21 596 43 -40 -20 126 43 hstemhm
          217.5 50 hintmask 11011000
          256 705 rmoveto
          40 50 36 42 36 38 -16 23 rcurveline
          -7 hlineto
          -37 -38 -31 -35 -31 -37 -31 37 -32 35 -37 38 rrcurveto
          -7 hlineto
          -16 -23 38 -39 36 -43 38 -48 rlinecurve
          224 -72 rmoveto
          -4 6 rlineto
          -425 hlineto
          hintmask 10111000
          -5 -40 4 -6 rlineto
          hintmask 11011000
          110 3 rlineto
          77 hlineto
          3 -402 -3 -194 rlineto
          52 hlineto
          -2 197 3 399 rlineto
          78 hlineto
          107 -3 rlineto
          endchar
        </CharString>
        <CharString name="Tcedilla">
          -47 -186 31 176 -21 596 43 -40 -20 hstemhm
          217.5 50 3.5 37 hintmask 11101000
          459 633 rmoveto
          -4 6 rlineto
          -425 hlineto
          hintmask 11011000
          -5 -40 4 -6 rlineto
          hintmask 11101000
          110 3 rlineto
          77 hlineto
          3 -402 -3 -194 rlineto
          6 hlineto
          hintmask 11100100
          -20 -68 46 -28 rlineto
          14 -8 9 -7 -14 vvcurveto
          -19 -15 -11 -21 -24 -14 13 18 -15 vhcurveto
          -4 -1 -7 -29 rlineto
          -16 13 21 -16 32 hhcurveto
          40 31 24 36 22 -10 16 -26 15 hvcurveto
          hintmask 11101000
          -32 20 16 53 rlineto
          12 hlineto
          -2 197 3 399 rlineto
          78 hlineto
          107 -3 rlineto
          endchar
        </CharString>
        <CharString name="Tcommaaccent">
          -47 21 -21 596 43 -40 -20 hstemhm
          217.5 50 -27.5 44 hintmask 11010000
          459 633 rmoveto
          -4 6 rlineto
          -425 hlineto
          hintmask 10110000
          -5 -40 4 -6 rlineto
          hintmask 11010000
          110 3 rlineto
          77 hlineto
          3 -402 -3 -194 rlineto
          52 hlineto
          -2 197 3 399 rlineto
          78 hlineto
          107 -3 rlineto
          hintmask 11001000
          -209 -654 rmoveto
          -13 -4 -11 -7 -10 -7 rrcurveto
          -6 vlineto
          19 -11 10 -13 -16 vvcurveto
          -26 -18 -28 -34 -26 vhcurveto
          -1 -5 19 -17 rlineto
          52 38 26 38 34 vvcurveto
          23 -14 19 -25 14 vhcurveto
          endchar
        </CharString>
        <CharString name="Thorn">
          -23 21 -21 121 44 314 45 115 -20 hstem
          102 50 256 53 vstem
          153 523 rmoveto
          1 116 rlineto
          -53 hlineto
          2 -445 -2 -194 rlineto
          52 hlineto
          -1 120 82 1 rlineto
          147 80 79 139 120 -67 65 -122 hvcurveto
          -120 -358 rmoveto
          31 vlineto
          1 281 113 2 rlineto
          92 -4 50 -48 -91 vvcurveto
          -100 -52 -59 -92 -14 vhcurveto
          endchar
        </CharString>
        <CharString name="U">
          89 -5 46 598 -20 hstem
          80 50 359 50 vstem
          539 313 rmoveto
          1 326 rlineto
          -52 hlineto
          2 -407 rlineto
          -125 1 -64 -66 -118 hhcurveto
          -118 -63 68 128 1 hvcurveto
          2 402 rlineto
          -51 -407 hlineto
          -153 -2 81 -84 147 hhcurveto
          150 86 88 153 -3 hvcurveto
          endchar
        </CharString>
        <CharString name="Uacute">
          89 -5 46 598 -20 hstem
          79.5 50.5 360 49.5 vstem
          431 849 rmoveto
          -7 2 -67 -40 -59 -30 -59 -29 rlinecurve
          11 -26 8 -3 62 28 59 28 64 33 rlinecurve
          2 7 rlineto
          94 -506 rmoveto
          1 326 rlineto
          -52 hlineto
          2 -407 rlineto
          -125 -63 -66 -118 -118 -63 68 128 1 vhcurveto
          2 402 rlineto
          -52 hlineto
          1 -317 -1 -90 rlineto
          -153 -1 80 -84 148 hhcurveto
          150 86 88 153 -4 hvcurveto
          endchar
        </CharString>
        <CharString name="Ubreve">
          89 -5 46 598 -20 89 40 hstem
          79.5 50.5 360 49.5 vstem
          410 840 rmoveto
          -9 hlineto
          -62 -11 -29 -30 -48 hhcurveto
          -48 -29 30 62 -11 hvcurveto
          -9 hlineto
          -17 -21 rlineto
          -71 13 36 -40 64 hhcurveto
          64 37 39 72 15 hvcurveto
          111 -506 rmoveto
          1 326 rlineto
          -52 hlineto
          2 -407 rlineto
          -125 -63 -66 -118 -118 -63 68 128 1 vhcurveto
          2 402 rlineto
          -52 hlineto
          1 -317 -1 -90 rlineto
          -153 -1 80 -84 148 hhcurveto
          150 86 88 153 -4 hvcurveto
          endchar
        </CharString>
        <CharString name="Ucaron">
          89 -5 46 598 -20 86 43 hstem
          79.5 50.5 360 49.5 vstem
          419 858 rmoveto
          -7 hlineto
          -37 -38 -31 -35 -31 -37 -31 37 -32 35 -37 38 rrcurveto
          -7 hlineto
          -16 -23 38 -39 36 -43 38 -48 rlinecurve
          21 hlineto
          40 50 36 42 36 38 rrcurveto
          104 -522 rmoveto
          1 326 rlineto
          -52 hlineto
          2 -407 rlineto
          -125 -63 -66 -118 -118 -63 68 128 1 vhcurveto
          2 402 rlineto
          -52 hlineto
          1 -317 -1 -90 rlineto
          -153 -1 80 -84 148 hhcurveto
          150 86 88 153 -4 hvcurveto
          endchar
        </CharString>
        <CharString name="Ucircumflex">
          89 -5 46 598 -20 hstem
          79.5 50.5 360 49.5 vstem
          207 736 rmoveto
          7 hlineto
          34 23 33 22 32 23 32 -23 33 -22 34 -23 rrcurveto
          7 hlineto
          12 25 -38 26 -36 29 -35 28 rlinecurve
          -19 hlineto
          -34 -28 -36 -29 -38 -26 rrcurveto
          344 -448 rmoveto
          1 326 rlineto
          -52 hlineto
          2 -407 rlineto
          -125 -63 -66 -118 -118 -63 68 128 1 vhcurveto
          2 402 rlineto
          -52 hlineto
          1 -317 -1 -90 rlineto
          -153 -1 80 -84 148 hhcurveto
          150 86 88 153 -4 hvcurveto
          endchar
        </CharString>
        <CharString name="Udieresis">
          89 -5 46 598 -20 133 66 hstem
          79.5 50.5 76 66 83 66 69 49.5 vstem
          240 818 rmoveto
          -21 -13 -13 -21 -20 12 -12 20 21 13 13 21 20 -12 12 -20 hvcurveto
          149 hmoveto
          -21 -13 -13 -21 -20 12 -12 20 21 13 13 21 20 -12 12 -20 hvcurveto
          150 -505 rmoveto
          1 326 rlineto
          -52 hlineto
          2 -407 rlineto
          -125 -63 -66 -118 -118 -63 68 128 1 vhcurveto
          2 402 rlineto
          -52 hlineto
          1 -317 -1 -90 rlineto
          -153 -1 80 -84 148 hhcurveto
          150 86 88 153 -4 hvcurveto
          endchar
        </CharString>
        <CharString name="Udieresisacute">
          89 -5 46 598 -20 115 63 hstem
          79.5 50.5 76 63 86 63 72 49.5 vstem
          411 946 rmoveto
          -6 4 -73 -28 -63 -20 -63 -17 rlinecurve
          6 -28 7 -5 66 17 63 17 68 21 rlinecurve
          4 7 rlineto
          -182 -117 rmoveto
          -20 -12 -13 -19 -19 12 -12 19 19 13 13 19 19 -12 12 -19 hvcurveto
          149 hmoveto
          -19 -13 -13 -19 -19 12 -12 19 20 12 13 19 19 -12 12 -19 hvcurveto
          152 -484 rmoveto
          1 326 rlineto
          -52 hlineto
          2 -407 rlineto
          -125 -63 -66 -118 -118 -63 68 128 1 vhcurveto
          2 402 rlineto
          -52 hlineto
          1 -317 -1 -90 rlineto
          -153 -1 80 -84 148 hhcurveto
          150 86 88 153 -4 hvcurveto
          endchar
        </CharString>
        <CharString name="Udieresiscaron">
          89 -5 46 598 -20 115 63 hstem
          79.5 50.5 76 63 86 63 72 49.5 vstem
          419 933 rmoveto
          -7 hlineto
          -34 -23 -33 -22 -32 -23 -32 23 -33 22 -34 23 rrcurveto
          -7 hlineto
          -12 -25 38 -27 36 -28 35 -28 rlinecurve
          19 hlineto
          34 28 36 28 38 27 rrcurveto
          -193 -111 rmoveto
          -20 -12 -13 -19 -19 12 -12 19 19 13 13 19 19 -12 12 -19 hvcurveto
          149 hmoveto
          -19 -13 -13 -19 -19 12 -12 19 20 12 13 19 19 -12 12 -19 hvcurveto
          152 -484 rmoveto
          1 326 rlineto
          -52 hlineto
          2 -407 rlineto
          -125 -63 -66 -118 -118 -63 68 128 1 vhcurveto
          2 402 rlineto
          -52 hlineto
          1 -317 -1 -90 rlineto
          -153 -1 80 -84 148 hhcurveto
          150 86 88 153 -4 hvcurveto
          endchar
        </CharString>
        <CharString name="Udieresisgrave">
          89 -5 46 598 -20 115 63 hstemhm
          79.5 50.5 76 63 86 63 -11 10 73 49.5 hintmask 11111011
          215 946 rmoveto
          -9 -32 4 -7 68 -21 64 -17 65 -17 rlinecurve
          7 5 6 28 -63 17 -63 20 -73 28 rlinecurve
          17 -153 rmoveto
          -20 -12 -13 -19 -19 12 -12 19 19 13 13 19 19 -12 12 -19 hvcurveto
          hintmask 11111101
          149 hmoveto
          -19 -13 -13 -19 -19 12 -12 19 20 12 13 19 19 -12 12 -19 hvcurveto
          152 -484 rmoveto
          1 326 rlineto
          -52 hlineto
          2 -407 rlineto
          -125 -63 -66 -118 -118 -63 68 128 1 vhcurveto
          2 402 rlineto
          -52 hlineto
          1 -317 -1 -90 rlineto
          -153 -1 80 -84 148 hhcurveto
          150 86 88 153 -4 hvcurveto
          endchar
        </CharString>
        <CharString name="Udieresismacron">
          89 -5 46 598 -20 115 63 71 37 hstem
          79.5 50.5 76 63 86 63 72 49.5 vstem
          441 900 rmoveto
          -4 5 rlineto
          -249 hlineto
          -3 -33 5 -4 rlineto
          248 hlineto
          -200 -71 rmoveto
          -20 -12 -13 -19 -19 12 -12 19 19 13 13 19 19 -12 12 -19 hvcurveto
          149 hmoveto
          -19 -13 -13 -19 -19 12 -12 19 20 12 13 19 19 -12 12 -19 hvcurveto
          152 -484 rmoveto
          1 326 rlineto
          -52 hlineto
          2 -407 rlineto
          -125 -63 -66 -118 -118 -63 68 128 1 vhcurveto
          2 402 rlineto
          -52 hlineto
          1 -317 -1 -90 rlineto
          -153 -1 80 -84 148 hhcurveto
          150 86 88 153 -4 hvcurveto
          endchar
        </CharString>
        <CharString name="Udotbelow">
          89 -146 68 73 46 598 -20 hstem
          79.5 50.5 143 67 150 49.5 vstem
          539 313 rmoveto
          1 326 rlineto
          -52 hlineto
          2 -407 rlineto
          -125 -63 -66 -118 -118 -63 68 128 1 vhcurveto
          2 402 rlineto
          -52 hlineto
          1 -317 -1 -90 rlineto
          -153 -1 80 -84 148 hhcurveto
          150 86 88 153 -4 hvcurveto
          -231 -314 rmoveto
          -21 -13 -14 -21 -21 12 -12 21 21 13 13 21 21 -12 13 -21 hvcurveto
          endchar
        </CharString>
        <CharString name="Ugrave">
          89 -5 46 598 -20 hstem
          79.5 50.5 360 49.5 vstem
          224 851 rmoveto
          -14 -30 2 -7 64 -33 59 -28 62 -28 rlinecurve
          8 3 11 26 -59 29 -59 30 -67 40 rlinecurve
          308 -540 rmoveto
          1 326 rlineto
          -52 hlineto
          2 -407 rlineto
          -125 -63 -66 -118 -118 -63 68 128 1 vhcurveto
          2 402 rlineto
          -52 hlineto
          1 -317 -1 -90 rlineto
          -153 -1 80 -84 148 hhcurveto
          150 86 88 153 -4 hvcurveto
          endchar
        </CharString>
        <CharString name="Uhookabove">
          89 -5 46 598 -20 227 33 hstem
          79.5 50.5 200 35 125 49.5 vstem
          311 879 rmoveto
          -24 -28 -13 -23 -23 hvcurveto
          12 -20 rlineto
          15 18 21 8 17 hhcurveto
          16 10 -7 -13 -16 -18 -23 -32 -23 hvcurveto
          27 -48 26 13 -18 32 rlineto
          34 26 16 22 22 vvcurveto
          27 -23 21 -31 vhcurveto
          228 -566 rmoveto
          1 326 rlineto
          -52 hlineto
          2 -407 rlineto
          -125 -63 -66 -118 -118 -63 68 128 1 vhcurveto
          2 402 rlineto
          -52 hlineto
          1 -317 -1 -90 rlineto
          -153 -1 80 -84 148 hhcurveto
          150 86 88 153 -4 hvcurveto
          endchar
        </CharString>
        <CharString name="Uhorn">
          99 -5 46 568 30 hstem
          79.5 50.5 360 49.5 40.5 43 vstem
          623 694 rmoveto
          42 -30 33 -18 -7 -9 -4 -7 -10 vhcurveto
          -2 -7 rlineto
          25 -23 8 -18 -19 vvcurveto
          -33 -25 -19 -42 vhcurveto
          -25 hlineto
          2 -407 rlineto
          -125 -63 -66 -118 -118 -63 68 128 1 vhcurveto
          2 402 rlineto
          -52 hlineto
          1 -317 -1 -90 rlineto
          -153 -1 80 -84 148 hhcurveto
          150 86 88 153 -4 hvcurveto
          1 77 1 296 rlineto
          50 9 33 32 44 vvcurveto
          endchar
        </CharString>
        <CharString name="Uhornacute">
          99 -5 46 568 30 hstem
          79.5 50.5 360 49.5 40.5 43 vstem
          250 726 rmoveto
          8 -3 62 28 59 28 64 33 rlinecurve
          2 7 -14 30 -7 2 -67 -40 -59 -30 -59 -29 rlinecurve
          384 -58 rmoveto
          42 -30 33 -18 -7 -9 -4 -7 -10 vhcurveto
          -2 -7 rlineto
          25 -23 8 -18 -19 vvcurveto
          -33 -25 -19 -42 vhcurveto
          -25 hlineto
          2 -407 rlineto
          -125 -63 -66 -118 -118 -63 68 128 1 vhcurveto
          2 402 rlineto
          -52 hlineto
          1 -317 -1 -90 rlineto
          -153 -1 80 -84 148 hhcurveto
          150 86 88 153 -4 hvcurveto
          1 77 1 296 rlineto
          50 9 33 32 44 vvcurveto
          endchar
        </CharString>
        <CharString name="Uhorndotbelow">
          99 -146 68 73 46 568 30 hstem
          79.5 50.5 145 67 148 49.5 40.5 43 vstem
          623 694 rmoveto
          42 -30 33 -18 -7 -9 -4 -7 -10 vhcurveto
          -2 -7 rlineto
          25 -23 8 -18 -19 vvcurveto
          -33 -25 -19 -42 vhcurveto
          -25 hlineto
          2 -407 rlineto
          -125 -63 -66 -118 -118 -63 68 128 1 vhcurveto
          2 402 rlineto
          -52 hlineto
          1 -317 -1 -90 rlineto
          -153 -1 80 -84 148 hhcurveto
          150 86 88 153 -4 hvcurveto
          1 77 1 296 rlineto
          50 9 33 32 44 vvcurveto
          -314 -772 rmoveto
          -21 -13 -14 -21 -21 12 -12 21 21 13 13 21 21 -12 13 -21 hvcurveto
          endchar
        </CharString>
        <CharString name="Uhorngrave">
          99 -5 46 568 30 hstem
          79.5 50.5 360 49.5 40.5 43 vstem
          405 728 rmoveto
          11 26 -59 29 -59 30 -67 40 rlinecurve
          -7 -2 -14 -30 2 -7 64 -33 59 -28 62 -28 rlinecurve
          226 -31 rmoveto
          42 -30 33 -18 -7 -9 -4 -7 -10 vhcurveto
          -2 -7 rlineto
          25 -23 8 -18 -19 vvcurveto
          -33 -25 -19 -42 vhcurveto
          -25 hlineto
          2 -407 rlineto
          -125 -63 -66 -118 -118 -63 68 128 1 vhcurveto
          2 402 rlineto
          -52 hlineto
          1 -317 -1 -90 rlineto
          -153 -1 80 -84 148 hhcurveto
          150 86 88 153 -4 hvcurveto
          1 77 1 296 rlineto
          50 9 33 32 44 vvcurveto
          endchar
        </CharString>
        <CharString name="Uhornhookabove">
          99 -5 46 568 30 207 33 hstem
          79.5 50.5 201 35 124 49.5 40.5 43 vstem
          305 846 rmoveto
          16 10 -7 -13 -16 -18 -23 -32 -23 hvcurveto
          27 -48 26 13 -18 32 rlineto
          34 26 16 22 22 vvcurveto
          27 -23 21 -31 -24 -28 -13 -23 -23 vhcurveto
          12 -20 rlineto
          15 18 21 8 17 hhcurveto
          318 -152 rmoveto
          42 -30 33 -18 -7 -9 -4 -7 -10 vhcurveto
          -2 -7 rlineto
          25 -23 8 -18 -19 vvcurveto
          -33 -25 -19 -42 vhcurveto
          -25 hlineto
          2 -407 rlineto
          -125 -63 -66 -118 -118 -63 68 128 1 vhcurveto
          2 402 rlineto
          -52 hlineto
          1 -317 -1 -90 rlineto
          -153 -1 80 -84 148 hhcurveto
          150 86 88 153 -4 hvcurveto
          1 77 1 296 rlineto
          50 9 33 32 44 vvcurveto
          endchar
        </CharString>
        <CharString name="Uhorntilde">
          99 -5 46 568 30 147 40 hstem
          79.5 50.5 360 49.5 40.5 43 vstem
          181 742 rmoveto
          6 hlineto
          24 27 14 20 13 hhcurveto
          26 90 -33 -5 40 hvcurveto
          8 3 57 59 rlineto
          6 vlineto
          -18 18 rlineto
          -5 hlineto
          -25 -27 -14 -19 -14 hhcurveto
          -25 -90 33 4 -40 hvcurveto
          -8 -2 -57 -59 rlineto
          -6 vlineto
          459 -66 rmoveto
          42 -30 33 -18 -7 -9 -4 -7 -10 vhcurveto
          -2 -7 rlineto
          25 -23 8 -18 -19 vvcurveto
          -33 -25 -19 -42 vhcurveto
          -25 hlineto
          2 -407 rlineto
          -125 -63 -66 -118 -118 -63 68 128 1 vhcurveto
          2 402 rlineto
          -52 hlineto
          1 -317 -1 -90 rlineto
          -153 -1 80 -84 148 hhcurveto
          150 86 88 153 -4 hvcurveto
          1 77 1 296 rlineto
          50 9 33 32 44 vvcurveto
          endchar
        </CharString>
        <CharString name="Uhungarumlaut">
          89 -5 46 598 -20 hstem
          79.5 50.5 360 49.5 vstem
          218 720 rmoveto
          7 hlineto
          39 36 38 35 38 37 1 7 rcurveline
          -24 18 rlineto
          -7 hlineto
          -36 -39 -37 -37 -38 -38 rrcurveto
          156 -19 rmoveto
          7 hlineto
          39 36 38 35 38 37 1 7 rcurveline
          -25 18 rlineto
          -6 hlineto
          -36 -39 -37 -37 -38 -38 rrcurveto
          203 -426 rmoveto
          1 326 rlineto
          -52 hlineto
          2 -407 rlineto
          -125 -63 -66 -118 -118 -63 68 128 1 vhcurveto
          2 402 rlineto
          -52 hlineto
          1 -317 -1 -90 rlineto
          -153 -1 80 -84 148 hhcurveto
          150 86 88 153 -4 hvcurveto
          endchar
        </CharString>
        <CharString name="Umacron">
          89 -5 46 598 -20 149 37 hstem
          79.5 50.5 360 49.5 vstem
          459 801 rmoveto
          -4 4 rlineto
          -285 hlineto
          -3 -32 4 -5 rlineto
          285 hlineto
          83 -455 rmoveto
          1 326 rlineto
          -52 hlineto
          2 -407 rlineto
          -125 -63 -66 -118 -118 -63 68 128 1 vhcurveto
          2 402 rlineto
          -52 hlineto
          1 -317 -1 -90 rlineto
          -153 -1 80 -84 148 hhcurveto
          150 86 88 153 -4 hvcurveto
          endchar
        </CharString>
        <CharString name="Uogonek">
          89 -197 37 155 46 598 -20 hstem
          79.5 50.5 198 36 126 49.5 vstem
          539 313 rmoveto
          1 326 rlineto
          -52 hlineto
          2 -407 rlineto
          -125 -63 -66 -118 -118 -63 68 128 1 vhcurveto
          2 402 rlineto
          -52 hlineto
          1 -317 -1 -90 rlineto
          -153 -1 80 -84 148 hhcurveto
          33 29 4 8 27 hvcurveto
          -46 -68 rlineto
          -14 -21 -7 -22 -20 vvcurveto
          -44 28 -29 44 35 32 21 34 30 vhcurveto
          -12 28 rlineto
          -3 hlineto
          -30 -24 -27 -16 -26 hhcurveto
          -26 -15 16 24 15 6 17 13 20 hvcurveto
          64 100 61 39 32 70 -2 95 rlinecurve
          endchar
        </CharString>
        <CharString name="Uring">
          89 -5 46 598 -20 95 30 93 30 hstem
          79.5 50.5 104 30 96 29 101 49.5 vstem
          312 867 rmoveto
          -48 -30 -31 -45 -49 35 -28 42 41 37 28 50 40 -27 35 -50 hvcurveto
          -1 -30 rmoveto
          33 16 -20 -27 -30 -22 -16 -27 -27 -20 17 31 27 17 18 30 hvcurveto
          228 -524 rmoveto
          1 326 rlineto
          -52 hlineto
          2 -407 rlineto
          -125 -63 -66 -118 -118 -63 68 128 1 vhcurveto
          2 402 rlineto
          -52 hlineto
          1 -317 -1 -90 rlineto
          -153 -1 80 -84 148 hhcurveto
          150 86 88 153 -4 hvcurveto
          endchar
        </CharString>
        <CharString name="Utilde">
          89 -5 46 598 -20 167 40 hstem
          79.5 50.5 360 49.5 vstem
          462 816 rmoveto
          -18 18 rlineto
          -5 hlineto
          -25 -27 -14 -19 -14 hhcurveto
          -25 -90 33 4 -40 hvcurveto
          -8 -2 -57 -59 rlineto
          -6 vlineto
          17 -18 rlineto
          6 hlineto
          24 27 14 20 13 hhcurveto
          26 90 -33 -5 40 hvcurveto
          8 3 57 59 rlineto
          77 -497 rmoveto
          1 326 rlineto
          -52 hlineto
          2 -407 rlineto
          -125 -63 -66 -118 -118 -63 68 128 1 vhcurveto
          2 402 rlineto
          -52 hlineto
          1 -317 -1 -90 rlineto
          -153 -1 80 -84 148 hhcurveto
          150 86 88 153 -4 hvcurveto
          endchar
        </CharString>
        <CharString name="V">
          22 0 59 580 -20 hstem
          17 526 vstem
          299 hmoveto
          244 639 rlineto
          -54 hlineto
          -15 -57 -200 -523 rlineto
          -5 hlineto
          -184 525 -14 55 rlineto
          -54 hlineto
          223 -639 rlineto
          endchar
        </CharString>
        <CharString name="V.ss01">
          -39 0 28 -28 56 411 28 hstemhm
          -100 691 hintmask 10110000
          455 467 rmoveto
          136 28 -691 -28 143 hlineto
          161 -439 rlineto
          -304 -28 691 28 -312 hlineto
          129 439 rmoveto
          -6 -23 rlineto
          hintmask 01110000
          -157 -388 rlineto
          -4 hlineto
          -144 390 -6 21 rlineto
          endchar
        </CharString>
        <CharString name="W">
          359 0 63 576 -20 hstem
          22 856 vstem
          639 hmoveto
          239 639 rlineto
          -51 hlineto
          -14 -55 -195 -521 rlineto
          -6 hlineto
          -178 519 -14 57 rlineto
          -54 hlineto
          57 -164 -153 -412 rlineto
          -5 hlineto
          -178 523 -12 53 rlineto
          -53 hlineto
          216 -639 rlineto
          53 hlineto
          150 403 rlineto
          5 hlineto
          140 -403 rlineto
          endchar
        </CharString>
        <CharString name="Wacute">
          359 0 63 576 -20 hstem
          22 856 vstem
          555 849 rmoveto
          -7 2 -67 -40 -59 -30 -59 -29 rlinecurve
          11 -26 8 -3 62 28 59 28 64 33 rlinecurve
          2 7 rlineto
          70 -819 rmoveto
          239 639 rlineto
          -51 hlineto
          -14 -55 -195 -521 rlineto
          -6 hlineto
          -178 519 -14 57 rlineto
          -54 hlineto
          57 -164 -153 -412 rlineto
          -5 hlineto
          -178 523 -12 53 rlineto
          -53 hlineto
          216 -639 rlineto
          53 hlineto
          150 403 rlineto
          5 hlineto
          140 -403 rlineto
          endchar
        </CharString>
        <CharString name="Wcircumflex">
          359 0 63 576 -20 hstem
          22 856 vstem
          331 736 rmoveto
          7 hlineto
          34 23 33 22 32 23 32 -23 33 -22 34 -23 rrcurveto
          7 hlineto
          12 25 -38 26 -36 29 -35 28 rlinecurve
          -19 hlineto
          -34 -28 -36 -29 -38 -26 rrcurveto
          320 -761 rmoveto
          239 639 rlineto
          -51 hlineto
          -14 -55 -195 -521 rlineto
          -6 hlineto
          -178 519 -14 57 rlineto
          -54 hlineto
          57 -164 -153 -412 rlineto
          -5 hlineto
          -178 523 -12 53 rlineto
          -53 hlineto
          216 -639 rlineto
          53 hlineto
          150 403 rlineto
          5 hlineto
          140 -403 rlineto
          endchar
        </CharString>
        <CharString name="Wdieresis">
          359 0 63 576 -20 133 66 hstem
          330 66 83 66 vstem
          364 818 rmoveto
          -21 -13 -13 -21 -20 12 -12 20 21 13 13 21 20 -12 12 -20 hvcurveto
          149 hmoveto
          -21 -13 -13 -21 -20 12 -12 20 21 13 13 21 20 -12 12 -20 hvcurveto
          126 -818 rmoveto
          239 639 rlineto
          -51 hlineto
          -14 -55 -195 -521 rlineto
          -6 hlineto
          -178 519 -14 57 rlineto
          -54 hlineto
          57 -164 -153 -412 rlineto
          -5 hlineto
          -178 523 -12 53 rlineto
          -53 hlineto
          216 -639 rlineto
          53 hlineto
          150 403 rlineto
          5 hlineto
          140 -403 rlineto
          endchar
        </CharString>
        <CharString name="Wgrave">
          359 0 63 576 -20 hstem
          22 856 vstem
          348 851 rmoveto
          -14 -30 2 -7 64 -33 59 -28 62 -28 rlinecurve
          8 3 11 26 -59 29 -59 30 -67 40 rlinecurve
          284 -853 rmoveto
          239 639 rlineto
          -51 hlineto
          -14 -55 -195 -521 rlineto
          -6 hlineto
          -178 519 -14 57 rlineto
          -54 hlineto
          57 -164 -153 -412 rlineto
          -5 hlineto
          -178 523 -12 53 rlineto
          -53 hlineto
          216 -639 rlineto
          53 hlineto
          150 403 rlineto
          5 hlineto
          140 -403 rlineto
          endchar
        </CharString>
        <CharString name="X">
          48 21 -21 639 -20 hstem
          28 513 vstem
          316 332 rmoveto
          208 307 rlineto
          -59 hlineto
          -25 -45 -155 -227 -157 229 -25 43 rlineto
          -64 hlineto
          212 -312 -223 -327 rlineto
          58 hlineto
          24 42 172 249 169 -246 26 -45 rlineto
          64 hlineto
          endchar
        </CharString>
        <CharString name="X.ss01">
          -17 0 28 439 28 hstem
          -100 713 vstem
          284 257 rmoveto
          151 210 rlineto
          178 28 -713 -28 168 hlineto
          155 -215 -162 -224 rlineto
          -161 -28 713 28 -165 hlineto
          -193 261 rmoveto
          -121 164 -8 14 rlineto
          257 hlineto
          -8 -15 rlineto
          -123 -232 rmoveto
          130 -176 9 -16 rlineto
          -280 hlineto
          7 13 rlineto
          endchar
        </CharString>
        <CharString name="Y">
          -18 21 -21 639 -20 hstem
          222.5 49.5 vstem
          271 191 rmoveto
          1 44 220 404 rlineto
          -57 hlineto
          -13 -32 -170 -309 rlineto
          -6 hlineto
          -156 310 -12 31 rlineto
          -58 hlineto
          203 -403 1 -45 -3 -191 rlineto
          52 hlineto
          endchar
        </CharString>
        <CharString name="Yacute">
          -18 21 -21 639 -20 hstem
          222.5 49.5 vstem
          186 726 rmoveto
          8 -3 62 28 59 28 64 33 rlinecurve
          2 7 -14 30 -7 2 -67 -40 -59 -30 -59 -29 rlinecurve
          96 -561 rmoveto
          1 44 220 404 rlineto
          -58 hlineto
          -12 -32 -170 -309 rlineto
          -7 hlineto
          -155 310 -12 31 rlineto
          -58 hlineto
          203 -403 1 -45 -3 -191 rlineto
          52 hlineto
          endchar
        </CharString>
        <CharString name="Ycircumflex">
          -18 21 -21 639 -20 hstem
          222.5 49.5 vstem
          144 736 rmoveto
          7 hlineto
          34 23 33 22 32 23 32 -23 33 -22 34 -23 rrcurveto
          7 hlineto
          12 25 -38 26 -36 29 -35 28 rlinecurve
          -19 hlineto
          -34 -28 -36 -29 -38 -26 rrcurveto
          139 -570 rmoveto
          1 44 220 404 rlineto
          -58 hlineto
          -12 -32 -170 -309 rlineto
          -7 hlineto
          -155 310 -12 31 rlineto
          -58 hlineto
          203 -403 1 -45 -3 -191 rlineto
          52 hlineto
          endchar
        </CharString>
        <CharString name="Ydieresis">
          -18 21 -21 639 -20 133 66 hstemhm
          142 66 14.5 49.5 19 66 hintmask 00000000
          hintmask 11111100
          174 752 rmoveto
          21 13 13 21 20 -12 12 -20 -21 -13 -13 -21 -20 12 -12 20 hvcurveto
          149 hmoveto
          21 13 13 21 20 -12 12 -20 -21 -13 -13 -21 -20 12 -12 20 hvcurveto
          hintmask 11101000
          -52 -561 rmoveto
          1 44 220 404 rlineto
          -58 hlineto
          -12 -32 -170 -309 rlineto
          -7 hlineto
          -155 310 -12 31 rlineto
          -58 hlineto
          203 -403 1 -45 -3 -191 rlineto
          52 hlineto
          endchar
        </CharString>
        <CharString name="Ydotbelow">
          -18 -146 68 99 -21 639 -20 hstemhm
          213 67 -57.5 49.5 hintmask 11101000
          223 236 rmoveto
          1 -45 -3 -191 rlineto
          52 hlineto
          -2 191 1 44 220 404 rlineto
          -58 hlineto
          -12 -32 -170 -309 rlineto
          -7 hlineto
          -155 310 -12 31 rlineto
          -58 hlineto
          hintmask 11110000
          227 -717 rmoveto
          -21 -13 -14 -21 -21 12 -12 21 21 13 13 21 21 -12 13 -21 hvcurveto
          endchar
        </CharString>
        <CharString name="Ygrave">
          -18 21 -21 639 -20 hstem
          222.5 49.5 vstem
          342 728 rmoveto
          11 26 -59 29 -59 30 -67 40 rlinecurve
          -7 -2 -14 -30 2 -7 64 -33 59 -28 62 -28 rlinecurve
          -63 -534 rmoveto
          1 44 220 404 rlineto
          -58 hlineto
          -12 -32 -170 -309 rlineto
          -7 hlineto
          -155 310 -12 31 rlineto
          -58 hlineto
          203 -403 1 -45 -3 -191 rlineto
          52 hlineto
          endchar
        </CharString>
        <CharString name="Yhookabove">
          -18 21 -21 639 -20 227 33 hstemhm
          222.5 49.5 -5 35 hintmask 00000000
          hintmask 11101000
          241 846 rmoveto
          16 10 -7 -13 -16 -18 -23 -32 -23 hvcurveto
          27 -48 26 13 -18 32 rlineto
          34 26 16 22 22 vvcurveto
          27 -23 21 -31 -24 -28 -13 -23 -23 vhcurveto
          12 -20 rlineto
          15 18 21 8 17 hhcurveto
          hintmask 11110000
          30 -655 rmoveto
          1 44 220 404 rlineto
          -58 hlineto
          -12 -32 -170 -309 rlineto
          -7 hlineto
          -155 310 -12 31 rlineto
          -58 hlineto
          203 -403 1 -45 -3 -191 rlineto
          52 hlineto
          endchar
        </CharString>
        <CharString name="Ytilde">
          -18 21 -21 639 -20 167 40 hstem
          222.5 49.5 vstem
          117 742 rmoveto
          6 hlineto
          24 27 14 20 13 hhcurveto
          26 90 -33 -5 40 hvcurveto
          8 3 57 59 rlineto
          6 vlineto
          -18 18 rlineto
          -5 hlineto
          -25 -27 -14 -19 -14 hhcurveto
          -25 -90 33 4 -40 hvcurveto
          -8 -2 -57 -59 rlineto
          -6 vlineto
          171 -569 rmoveto
          1 44 220 404 rlineto
          -58 hlineto
          -12 -32 -170 -309 rlineto
          -7 hlineto
          -155 310 -12 31 rlineto
          -58 hlineto
          203 -403 1 -45 -3 -191 rlineto
          52 hlineto
          endchar
        </CharString>
        <CharString name="Z">
          -12 0 44 551 44 hstem
          32 446 vstem
          474 600 rmoveto
          40 vlineto
          -44 -1 rlineto
          -289 hlineto
          -89 1 -5 -44 4 -6 78 5 rlineto
          282 hlineto
          -379 -557 rlineto
          -40 vlineto
          47 2 rlineto
          298 hlineto
          96 -1 5 44 -4 5 -83 -4 rlineto
          -296 hlineto
          endchar
        </CharString>
        <CharString name="Zacute">
          -12 0 44 551 44 hstem
          32 446 vstem
          383 849 rmoveto
          -7 2 -67 -40 -59 -30 -59 -29 rlinecurve
          11 -26 8 -3 62 28 59 28 64 33 rlinecurve
          2 7 rlineto
          77 -219 rmoveto
          40 vlineto
          -43 -1 rlineto
          -290 hlineto
          -89 1 -5 -44 5 -6 78 5 rlineto
          281 hlineto
          -379 -557 rlineto
          -40 vlineto
          47 2 rlineto
          298 hlineto
          96 -1 5 44 -4 5 -82 -4 rlineto
          -296 hlineto
          endchar
        </CharString>
        <CharString name="Zcaron">
          -12 0 44 551 44 hstem
          32 446 vstem
          372 835 rmoveto
          -7 hlineto
          -34 -23 -33 -22 -32 -23 -32 23 -33 22 -34 23 rrcurveto
          -7 hlineto
          -12 -25 38 -26 36 -29 35 -28 rlinecurve
          19 hlineto
          34 28 36 29 38 26 rrcurveto
          90 -210 rmoveto
          40 vlineto
          -43 -1 rlineto
          -290 hlineto
          -89 1 -5 -44 5 -6 78 5 rlineto
          281 hlineto
          -379 -557 rlineto
          -40 vlineto
          47 2 rlineto
          298 hlineto
          96 -1 5 44 -4 5 -82 -4 rlineto
          -296 hlineto
          endchar
        </CharString>
        <CharString name="Zdotaccent">
          -12 0 44 551 44 125 68 hstem
          232 67 vstem
          266 832 rmoveto
          -21 -13 -14 -21 -21 12 -12 21 21 13 13 22 20 -12 13 -21 hvcurveto
          208 -232 rmoveto
          40 vlineto
          -43 -1 rlineto
          -290 hlineto
          -89 1 -5 -44 5 -6 78 5 rlineto
          281 hlineto
          -379 -557 rlineto
          -40 vlineto
          47 2 rlineto
          298 hlineto
          96 -1 5 44 -4 5 -82 -4 rlineto
          -296 hlineto
          endchar
        </CharString>
        <CharString name="a">
          -26 21 -21 144 40.5 257.5 53 hstem
          29 437 vstem
          466 hmoveto
          -182 495 rlineto
          -56 hlineto
          -199 -495 rlineto
          50 hlineto
          13 47 39 97 rlineto
          236 hlineto
          37 -99 11 -45 rlineto
          -63 185 rmoveto
          -104 -1 -100 1 104 257 rlineto
          5 hlineto
          endchar
        </CharString>
        <CharString name="a.sups">
          -221 339 36 236 35 hstemhm
          37 44 -30 8 146 44 hintmask 11101000
          158 646 rmoveto
          hintmask 11011000
          -36 -40 -14 -26 -34 hvcurveto
          6 -32 5 -2 rlineto
          26 34 31 13 26 hhcurveto
          37 18 -19 -34 hvcurveto
          -1 -47 rlineto
          hintmask 11101000
          -107 -22 rlineto
          -39 -8 -21 -23 -38 vvcurveto
          -50 31 -30 53 -1 vhcurveto
          28 4 28 18 24 27 rrcurveto
          3 hlineto
          -35 3 13 -13 27 hhcurveto
          15 12 4 8 11 hvcurveto
          5 29 -5 3 rlineto
          -5 -7 -9 -2 -6 hhcurveto
          -14 -6 9 21 hvcurveto
          16 6 126 18 vvcurveto
          50 -33 29 -58 vhcurveto
          45 -161 rmoveto
          -2 -66 rlineto
          -28 -23 -26 -16 -22 hhcurveto
          -32 -17 19 30 22 12 14 24 5 hvcurveto
          endchar
        </CharString>
        <CharString name="aacute">
          -26 21 -21 144 40.5 257.5 53 hstem
          29 437 vstem
          211 558 rmoveto
          7 -1 53 43 51 41 54 47 rlinecurve
          1 7 -21 27 -6 1 -56 -55 -49 -44 -51 -42 rlinecurve
          272 -582 rmoveto
          -182 495 rlineto
          -56 hlineto
          -199 -495 rlineto
          50 hlineto
          13 47 39 97 rlineto
          236 hlineto
          37 -99 11 -45 rlineto
          -63 185 rmoveto
          -104 -1 -100 1 104 257 rlineto
          5 hlineto
          endchar
        </CharString>
        <CharString name="abreve">
          -26 21 -21 144 40.5 257.5 53 68 40 hstem
          29 437 vstem
          256 563 rmoveto
          64 37 39 72 15 hvcurveto
          -18 21 rlineto
          -9 hlineto
          -62 -11 -29 -30 -48 hhcurveto
          -48 -29 30 62 -11 hvcurveto
          -9 hlineto
          -17 -21 rlineto
          -71 13 36 -40 64 hhcurveto
          210 -563 rmoveto
          -182 495 rlineto
          -56 hlineto
          -199 -495 rlineto
          50 hlineto
          13 47 39 97 rlineto
          236 hlineto
          37 -99 11 -45 rlineto
          -63 185 rmoveto
          -104 -1 -100 1 104 257 rlineto
          5 hlineto
          endchar
        </CharString>
        <CharString name="abreveacute">
          -26 21 -21 144 40.5 257.5 53 67 39 43 -20 hstem
          29 437 vstem
          241 662 rmoveto
          7 -1 31 32 30 30 29 32 rlinecurve
          6 vlineto
          -25 18 rlineto
          -6 hlineto
          -29 -34 -27 -33 -30 -33 rrcurveto
          34 -117 rmoveto
          56 42 29 53 18 hvcurveto
          -18 20 rlineto
          -9 hlineto
          -40 -13 -31 -23 -44 hhcurveto
          -45 -31 23 40 -12 hvcurveto
          -9 hlineto
          -17 -20 rlineto
          -53 16 40 -29 57 hhcurveto
          211 -562 rmoveto
          -182 495 rlineto
          -56 hlineto
          -199 -495 rlineto
          50 hlineto
          13 47 39 97 rlineto
          236 hlineto
          37 -99 11 -45 rlineto
          -63 185 rmoveto
          -104 -1 -100 1 104 257 rlineto
          5 hlineto
          endchar
        </CharString>
        <CharString name="abrevedotbelow">
          -26 -146 68 99 -21 144 40.5 257.5 53 68 40 hstem
          216 67 vstem
          256 563 rmoveto
          64 37 39 72 15 hvcurveto
          -18 21 rlineto
          -9 hlineto
          -62 -11 -29 -30 -48 hhcurveto
          -48 -29 30 62 -11 hvcurveto
          -9 hlineto
          -17 -21 rlineto
          -71 13 36 -40 64 hhcurveto
          210 -563 rmoveto
          -182 495 rlineto
          -56 hlineto
          -199 -495 rlineto
          50 hlineto
          13 47 39 97 rlineto
          236 hlineto
          37 -99 11 -45 rlineto
          -63 185 rmoveto
          -104 -1 -100 1 104 257 rlineto
          5 hlineto
          -7 -520 rmoveto
          -21 -13 -14 -21 -21 12 -12 21 21 13 13 21 21 -12 13 -21 hvcurveto
          endchar
        </CharString>
        <CharString name="abrevegrave">
          -26 21 -21 144 40.5 257.5 53 67 39 43 -20 hstem
          29 437 vstem
          267 662 rmoveto
          20 17 -30 33 -27 33 -28 34 rlinecurve
          -7 hlineto
          -25 -18 1 -6 29 -32 30 -30 30 -32 rlinecurve
          -5 -99 rmoveto
          56 42 29 53 18 hvcurveto
          -18 20 rlineto
          -9 hlineto
          -40 -13 -31 -23 -44 hhcurveto
          -45 -31 23 40 -12 hvcurveto
          -9 hlineto
          -17 -20 rlineto
          -53 16 40 -29 57 hhcurveto
          211 -562 rmoveto
          -182 495 rlineto
          -56 hlineto
          -199 -495 rlineto
          50 hlineto
          13 47 39 97 rlineto
          236 hlineto
          37 -99 11 -45 rlineto
          -63 185 rmoveto
          -104 -1 -100 1 104 257 rlineto
          5 hlineto
          endchar
        </CharString>
        <CharString name="abrevehookabove">
          -26 21 -21 144 40.5 257.5 53 67 39 43 -20 80 -20 105 33 hstem
          278 35 vstem
          252 789 rmoveto
          16 10 -7 -13 -16 -18 -23 -32 -23 hvcurveto
          27 -48 26 13 -18 32 rlineto
          34 26 16 22 22 vvcurveto
          27 -23 21 -31 -24 -28 -13 -23 -23 vhcurveto
          12 -20 rlineto
          15 18 21 8 17 hhcurveto
          3 -227 rmoveto
          56 42 29 53 18 hvcurveto
          -18 20 rlineto
          -9 hlineto
          -40 -13 -31 -23 -44 hhcurveto
          -45 -31 23 40 -12 hvcurveto
          -9 hlineto
          -17 -20 rlineto
          -53 16 40 -29 57 hhcurveto
          211 -562 rmoveto
          -182 495 rlineto
          -56 hlineto
          -199 -495 rlineto
          50 hlineto
          13 47 39 97 rlineto
          236 hlineto
          37 -99 11 -45 rlineto
          -63 185 rmoveto
          -104 -1 -100 1 104 257 rlineto
          5 hlineto
          endchar
        </CharString>
        <CharString name="abrevetilde">
          -26 21 -21 144 40.5 257.5 53 67 39 43 -20 122 40 hstem
          29 437 vstem
          135 703 rmoveto
          6 hlineto
          24 24 14 19 13 hhcurveto
          24 85 -32 -5 37 hvcurveto
          8 3 54 58 rlineto
          6 vlineto
          -17 18 rlineto
          -5 hlineto
          -25 -25 -14 -18 -13 hhcurveto
          -23 -86 32 4 -37 hvcurveto
          -8 -2 -54 -58 rlineto
          -6 vlineto
          139 -120 rmoveto
          -45 -30 23 39 -12 hvcurveto
          -9 hlineto
          -17 -19 rlineto
          -53 16 40 -29 55 hhcurveto
          56 41 29 53 18 hvcurveto
          -18 19 rlineto
          -9 hlineto
          -39 -12 -30 -23 -44 hhcurveto
          209 -601 rmoveto
          -182 495 rlineto
          -56 hlineto
          -199 -495 rlineto
          50 hlineto
          13 47 39 97 rlineto
          236 hlineto
          37 -99 11 -45 rlineto
          -63 185 rmoveto
          -104 -1 -100 1 104 257 rlineto
          5 hlineto
          endchar
        </CharString>
        <CharString name="acaron">
          -26 21 -21 144 40.5 257.5 53 65 43 87 23 0 -20 hstemhm
          29 437 hintmask 11110110
          267 560 rmoveto
          hintmask 11111010
          40 50 36 42 36 38 -16 23 rcurveline
          -7 hlineto
          -37 -38 -31 -35 -31 -37 -31 37 -32 35 -37 38 rrcurveto
          -7 hlineto
          -16 -23 38 -39 36 -43 38 -48 rlinecurve
          220 -560 rmoveto
          -182 495 rlineto
          -56 hlineto
          -199 -495 rlineto
          50 hlineto
          13 47 39 97 rlineto
          236 hlineto
          37 -99 11 -45 rlineto
          -63 185 rmoveto
          -104 -1 -100 1 104 257 rlineto
          5 hlineto
          endchar
        </CharString>
        <CharString name="acircumflex">
          -26 21 -21 144 40.5 257.5 53 175 43 0 -20 hstemhm
          29 437 hintmask 11101100
          151 560 rmoveto
          7 hlineto
          hintmask 11110100
          37 38 31 35 31 37 31 -37 32 -35 37 -38 rrcurveto
          7 hlineto
          16 23 -38 39 -36 43 -38 48 rlinecurve
          -21 hlineto
          -40 -50 -36 -42 -36 -38 rrcurveto
          331 -583 rmoveto
          -182 495 rlineto
          -56 hlineto
          -199 -495 rlineto
          50 hlineto
          13 47 39 97 rlineto
          236 hlineto
          37 -99 11 -45 rlineto
          -63 185 rmoveto
          -104 -1 -100 1 104 257 rlineto
          5 hlineto
          endchar
        </CharString>
        <CharString name="acircumflexacute">
          -26 21 -21 144 40.5 257.5 53 101 -20 hstem
          29 437 vstem
          328 668 rmoveto
          7 hlineto
          75 88 rlineto
          7 vlineto
          -26 14 rlineto
          -7 hlineto
          -70 -92 rlineto
          -157 -114 rmoveto
          7 hlineto
          34 23 33 22 32 23 32 -23 33 -22 34 -23 rrcurveto
          7 hlineto
          12 25 -38 26 -36 29 -35 28 rlinecurve
          -19 hlineto
          -34 -28 -36 -29 -38 -26 rrcurveto
          328 -596 rmoveto
          -182 495 rlineto
          -56 hlineto
          -199 -495 rlineto
          50 hlineto
          13 47 39 97 rlineto
          236 hlineto
          37 -99 11 -45 rlineto
          -63 185 rmoveto
          -104 -1 -100 1 104 257 rlineto
          5 hlineto
          endchar
        </CharString>
        <CharString name="acircumflexdotbelow">
          -26 -146 68 99 -21 144 40.5 257.5 53 175 43 0 -20 hstemhm
          216 67 hintmask 11110110
          151 560 rmoveto
          7 hlineto
          hintmask 11111010
          37 38 31 35 31 37 31 -37 32 -35 37 -38 rrcurveto
          7 hlineto
          16 23 -38 39 -36 43 -38 48 rlinecurve
          -21 hlineto
          -40 -50 -36 -42 -36 -38 rrcurveto
          331 -583 rmoveto
          -182 495 rlineto
          -56 hlineto
          -199 -495 rlineto
          50 hlineto
          13 47 39 97 rlineto
          236 hlineto
          37 -99 11 -45 rlineto
          -63 185 rmoveto
          -104 -1 -100 1 104 257 rlineto
          5 hlineto
          -7 -520 rmoveto
          -21 -13 -14 -21 -21 12 -12 21 21 13 13 21 21 -12 13 -21 hvcurveto
          endchar
        </CharString>
        <CharString name="acircumflexgrave">
          -26 21 -21 144 40.5 257.5 53 101 -20 hstem
          29 437 vstem
          354 668 rmoveto
          7 hlineto
          21 17 -70 92 rlineto
          -6 hlineto
          -27 -14 rlineto
          -7 vlineto
          -129 -185 rmoveto
          7 hlineto
          34 23 33 22 32 23 32 -23 33 -22 34 -23 rrcurveto
          7 hlineto
          12 25 -38 26 -36 29 -35 28 rlinecurve
          -19 hlineto
          -34 -28 -36 -29 -38 -26 rrcurveto
          328 -596 rmoveto
          -182 495 rlineto
          -56 hlineto
          -199 -495 rlineto
          50 hlineto
          13 47 39 97 rlineto
          236 hlineto
          37 -99 11 -45 rlineto
          -63 185 rmoveto
          -104 -1 -100 1 104 257 rlineto
          5 hlineto
          endchar
        </CharString>
        <CharString name="acircumflexhookabove">
          -26 21 -21 144 40.5 257.5 53 101 -20 203 31 hstem
          365 33 vstem
          340 779 rmoveto
          15 10 -7 -12 -15 -17 -22 -31 -22 hvcurveto
          26 -46 25 13 -17 30 rlineto
          32 25 15 21 21 vvcurveto
          26 -21 19 -30 -23 -26 -12 -22 -23 vhcurveto
          12 -19 rlineto
          15 17 20 7 16 hhcurveto
          -190 -208 rmoveto
          7 hlineto
          34 23 33 22 32 23 32 -23 33 -22 34 -23 rrcurveto
          7 hlineto
          12 25 -38 26 -36 29 -35 28 rlinecurve
          -19 hlineto
          -34 -28 -36 -29 -38 -26 rrcurveto
          328 -596 rmoveto
          -182 495 rlineto
          -56 hlineto
          -199 -495 rlineto
          50 hlineto
          13 47 39 97 rlineto
          236 hlineto
          37 -99 11 -45 rlineto
          -63 185 rmoveto
          -104 -1 -100 1 104 257 rlineto
          5 hlineto
          endchar
        </CharString>
        <CharString name="acircumflextilde">
          -26 21 -21 144 40.5 257.5 53 101 -20 170 40 hstem
          29 437 vstem
          135 703 rmoveto
          6 hlineto
          24 24 14 19 13 hhcurveto
          24 85 -32 -5 37 hvcurveto
          8 3 54 58 rlineto
          6 vlineto
          -17 18 rlineto
          -5 hlineto
          -25 -25 -14 -18 -13 hhcurveto
          -23 -86 32 4 -37 hvcurveto
          -8 -2 -54 -58 rlineto
          -6 vlineto
          128 -42 rmoveto
          -34 -28 -36 -29 -38 -26 12 -25 rcurveline
          7 hlineto
          34 23 33 22 32 23 32 -23 33 -22 34 -23 rrcurveto
          7 hlineto
          12 25 -38 26 -36 29 -35 28 rlinecurve
          201 -679 rmoveto
          -182 495 rlineto
          -56 hlineto
          -199 -495 rlineto
          50 hlineto
          13 47 39 97 rlineto
          236 hlineto
          37 -99 11 -45 rlineto
          -63 185 rmoveto
          -104 -1 -100 1 104 257 rlineto
          5 hlineto
          endchar
        </CharString>
        <CharString name="acute">
          518 166 hstem
          104 183 vstem
          266 683 rmoveto
          -6 1 -56 -55 -49 -44 -51 -42 rlinecurve
          17 -24 7 -1 53 43 51 41 54 47 rlinecurve
          1 7 rlineto
          endchar
        </CharString>
        <CharString name="acute.cap">
          539 128 hstem
          92 206 vstem
          284 665 rmoveto
          -7 2 -67 -40 -59 -30 -59 -29 rlinecurve
          11 -26 8 -3 62 28 59 28 64 33 rlinecurve
          2 7 rlineto
          endchar
        </CharString>
        <CharString name="adieresis">
          -26 21 -21 144 40.5 257.5 53 112 66 hstem
          149 66 83 66 vstem
          181 607 rmoveto
          21 13 13 21 20 -12 12 -20 -21 -13 -13 -21 -20 12 -12 20 hvcurveto
          149 hmoveto
          21 13 13 21 20 -12 12 -20 -21 -13 -13 -21 -20 12 -12 20 hvcurveto
          136 -607 rmoveto
          -182 495 rlineto
          -56 hlineto
          -199 -495 rlineto
          50 hlineto
          13 47 39 97 rlineto
          236 hlineto
          37 -99 11 -45 rlineto
          -63 185 rmoveto
          -104 -1 -100 1 104 257 rlineto
          5 hlineto
          endchar
        </CharString>
        <CharString name="adotbelow">
          -26 -146 68 99 -21 144 40.5 257.5 53 hstem
          216 67 vstem
          466 hmoveto
          -182 495 rlineto
          -56 hlineto
          -199 -495 rlineto
          50 hlineto
          13 47 39 97 rlineto
          236 hlineto
          37 -99 11 -45 rlineto
          -63 185 rmoveto
          -104 -1 -100 1 104 257 rlineto
          5 hlineto
          -7 -520 rmoveto
          -21 -13 -14 -21 -21 12 -12 21 21 13 13 21 21 -12 13 -21 hvcurveto
          endchar
        </CharString>
        <CharString name="ae">
          164 0 41 401 53 -40 40 hstemhm
          4 658 hintmask 10110000
          662 39 rmoveto
          -3 5 -136 -3 rlineto
          -96 hlineto
          -28 173 182 31 -1 40 -4 3 -184 -34 -33 201 rlineto
          82 hlineto
          135 -4 6 38 -4 6 rlineto
          -286 hlineto
          -288 -495 rlineto
          52 hlineto
          19 47 68 115 209 43 27 -160 5 -45 rlineto
          274 hlineto
          -312 245 rmoveto
          -174 -33 rlineto
          hintmask 11010000
          136 230 rlineto
          5 hlineto
          endchar
        </CharString>
        <CharString name="aeacute">
          164 0 41 401 53 -40 40 hstemhm
          4 658 hintmask 10110000
          363 558 rmoveto
          7 -1 53 43 51 41 54 47 rlinecurve
          1 7 -21 27 -6 1 -56 -55 -49 -44 -51 -42 rlinecurve
          316 -543 rmoveto
          -4 5 -135 -3 rlineto
          -96 hlineto
          -29 172 184 32 -2 40 -4 3 -184 -34 -34 201 rlineto
          83 hlineto
          135 -4 6 38 -4 6 rlineto
          -286 hlineto
          -288 -495 rlineto
          52 hlineto
          18 47 68 115 210 42 27 -159 5 -45 rlineto
          273 hlineto
          -312 245 rmoveto
          -173 -33 rlineto
          hintmask 11010000
          136 230 rlineto
          4 hlineto
          endchar
        </CharString>
        <CharString name="agrave">
          -26 21 -21 144 40.5 257.5 53 hstem
          29 437 vstem
          331 558 rmoveto
          17 24 -51 42 -49 44 -56 55 rlinecurve
          -6 -1 -21 -27 1 -7 54 -47 51 -41 53 -43 rlinecurve
          142 -557 rmoveto
          -182 495 rlineto
          -56 hlineto
          -199 -495 rlineto
          50 hlineto
          13 47 39 97 rlineto
          236 hlineto
          37 -99 11 -45 rlineto
          -63 185 rmoveto
          -104 -1 -100 1 104 257 rlineto
          5 hlineto
          endchar
        </CharString>
        <CharString name="ahookabove">
          -26 21 -21 144 40.5 257.5 53 204 -20 23 33 hstemhm
          274 35 hintmask 00000000
          hintmask 11101100
          248 702 rmoveto
          16 10 -7 -13 -16 -18 -23 -32 -23 hvcurveto
          27 -48 26 13 -18 32 rlineto
          34 26 16 22 22 vvcurveto
          27 -23 21 -31 vhcurveto
          hintmask 11110100
          -24 -28 -13 -23 -23 hvcurveto
          12 -20 rlineto
          hintmask 11101100
          15 18 21 8 17 hhcurveto
          hintmask 11110100
          218 -702 rmoveto
          -182 495 rlineto
          -56 hlineto
          -199 -495 rlineto
          50 hlineto
          13 47 39 97 rlineto
          236 hlineto
          37 -99 11 -45 rlineto
          -63 185 rmoveto
          -104 -1 -100 1 104 257 rlineto
          5 hlineto
          endchar
        </CharString>
        <CharString name="amacron">
          -26 21 -21 144 40.5 257.5 53 128 37 hstem
          29 437 vstem
          114 623 rmoveto
          285 hlineto
          3 33 -4 4 rlineto
          -285 hlineto
          -3 -32 rlineto
          356 -628 rmoveto
          -182 495 rlineto
          -56 hlineto
          -199 -495 rlineto
          50 hlineto
          13 47 39 97 rlineto
          236 hlineto
          37 -99 11 -45 rlineto
          -63 185 rmoveto
          -104 -1 -100 1 104 257 rlineto
          5 hlineto
          endchar
        </CharString>
        <CharString name="ampersand">
          246 -10 41 218 40 -4 40 137 38 211 -20 hstemhm
          49 46 213 38 217 41 hintmask 11011111
          815 360 rmoveto
          -7 -2 rlineto
          -47 -18 -29 -22 -42 hhcurveto
          hintmask 10111111
          -56 -119 36 -51 hhcurveto
          -55 -4 -29 -26 -26 -53 15 -28 rcurveline
          7 2 rlineto
          48 20 29 21 40 hhcurveto
          16 25 -4 -6 28 hvcurveto
          -146 3 -103 -98 -151 hhcurveto
          -116 -75 67 105 -21 hvcurveto
          237 83 231 197 87 190 -4 15 -6 11 -11 12 rrcurveto
          -6 hlineto
          -56 -126 -106 -121 -129 -92 rrcurveto
          7 15 2 15 12 vvcurveto
          50 -42 36 -67 -104 -84 -97 -145 -163 100 -105 161 174 117 111 166 3 vhcurveto
          hintmask 11011111
          -9 43 45 -9 29 hhcurveto
          55 4 28 26 26 53 rrcurveto
          -593 130 rmoveto
          40 28 -19 -34 3 hvcurveto
          2 -22 -7 -33 -36 -29 -55 -33 -57 -28 -59 -21 -1 20 rcurveline
          120 60 79 82 vhcurveto
          endchar
        </CharString>
        <CharString name="aogonek">
          -26 -196 38 179 -21 144 40.5 257.5 53 hstem
          365 38 vstem
          504 -110 rmoveto
          -3 hlineto
          -30 -19 -20 -18 -24 hhcurveto
          -19 -16 10 27 21 7 26 50 74 hvcurveto
          6 hlineto
          -182 495 rlineto
          -56 hlineto
          -199 -495 rlineto
          50 hlineto
          13 47 39 97 rlineto
          236 hlineto
          37 -99 11 -45 rlineto
          8 hlineto
          -46 -72 -12 -30 -28 vvcurveto
          -42 31 -24 36 33 26 21 34 24 vhcurveto
          -163 326 rmoveto
          -104 -1 -100 1 104 257 rlineto
          5 hlineto
          endchar
        </CharString>
        <CharString name="approxequal">
          -50 147 43 113 43 hstem
          74 361 vstem
          162 349 rmoveto
          31 117 -42 -5 47 hvcurveto
          8 2 70 65 rlineto
          6 vlineto
          -15 19 rlineto
          -8 hlineto
          -29 -32 -18 -19 -15 hhcurveto
          -31 -118 40 7 -47 hvcurveto
          -8 -4 -69 -64 rlineto
          -7 vlineto
          15 -18 rlineto
          8 hlineto
          28 31 19 21 15 hhcurveto
          -156 vmoveto
          31 117 -42 -5 47 hvcurveto
          8 2 70 65 rlineto
          6 vlineto
          -15 19 rlineto
          -8 hlineto
          -29 -32 -18 -19 -15 hhcurveto
          -31 -118 40 7 -47 hvcurveto
          -8 -4 -69 -64 rlineto
          -7 vlineto
          15 -18 rlineto
          8 hlineto
          28 31 19 21 15 hhcurveto
          endchar
        </CharString>
        <CharString name="aring">
          -26 21 -21 144 40.5 257.5 53 74 30 93 30 hstem
          177 30 96 29 vstem
          254 569 rmoveto
          41 37 28 50 40 -27 35 -50 -48 -30 -31 -45 -49 35 -28 42 hvcurveto
          123 vmoveto
          33 16 -20 -27 -30 -22 -16 -27 -27 -20 17 31 27 17 18 30 hvcurveto
          212 -692 rmoveto
          -182 495 rlineto
          -56 hlineto
          -199 -495 rlineto
          50 hlineto
          13 47 39 97 rlineto
          236 hlineto
          37 -99 11 -45 rlineto
          -63 185 rmoveto
          -104 -1 -100 1 104 257 rlineto
          5 hlineto
          endchar
        </CharString>
        <CharString name="aringacute">
          -26 21 -21 144 40.5 257.5 53 74 30 93 30 hstem
          177 30 96 29 vstem
          176 743 rmoveto
          6 -5 66 18 63 17 69 22 rlinecurve
          3 7 -8 32 -7 3 -73 -28 -63 -20 -63 -18 rlinecurve
          8 -125 rmoveto
          -49 35 -28 42 41 37 28 50 40 -27 35 -50 -48 -30 -31 -45 vhcurveto
          126 -1 rmoveto
          -30 -22 -16 -27 -27 -20 17 31 27 17 18 30 33 16 -20 -27 vhcurveto
          163 -645 rmoveto
          -182 495 rlineto
          -56 hlineto
          -199 -495 rlineto
          50 hlineto
          13 47 39 97 rlineto
          236 hlineto
          37 -99 11 -45 rlineto
          -63 185 rmoveto
          -104 -1 -100 1 104 257 rlineto
          5 hlineto
          endchar
        </CharString>
        <CharString name="arrowdown">
          -21 19 -21 458 -20 23 -20 hstemhm
          235 37.5 hintmask 10110000
          453 190 rmoveto
          -10 30 rlineto
          -10 hlineto
          -161 -157 rlineto
          hintmask 11010000
          1 393 rlineto
          hintmask 10110000
          -35 3 -4 -4 2 -392 -162 157 rlineto
          -9 hlineto
          -10 -30 195 -192 rlineto
          8 hlineto
          endchar
        </CharString>
        <CharString name="arrowdownleft">
          -21 62 35.5 hstem
          102 35.5 vstem
          390 96 rmoveto
          -226 3 280 277 -23 28 rlineto
          -6 hlineto
          -276 -280 -3 226 -7 6 -28 -13 2 -274 6 -6 274 -2 14 28 rlineto
          endchar
        </CharString>
        <CharString name="arrowdownright">
          -21 60 35.5 hstem
          368.5 35.5 vstem
          405 341 rmoveto
          -29 14 -6 -7 -3 -226 -278 280 -27 -23 rlineto
          -6 vlineto
          279 -276 -225 -3 -7 -6 14 -29 274 2 6 6 rlineto
          endchar
        </CharString>
        <CharString name="arrowleft">
          -21 211 38 hstem
          22 461 vstem
          480 210 rmoveto
          3 36 -4 4 -391 -2 156 161 rlineto
          9 vlineto
          -30 11 -192 -196 rlineto
          -8 vlineto
          192 -195 30 11 rlineto
          9 vlineto
          -158 162 rlineto
          endchar
        </CharString>
        <CharString name="arrowright">
          -21 212 38 hstem
          23 461 vstem
          484 235 rmoveto
          -192 195 -30 -10 rlineto
          -10 vlineto
          157 -161 -393 2 -3 -36 4 -4 392 2 -157 -162 rlineto
          -9 vlineto
          30 -10 192 195 rlineto
          endchar
        </CharString>
        <CharString name="arrowup">
          -21 22 -21 461 -20 hstem
          234 38 vstem
          452 270 rmoveto
          -195 192 rlineto
          -9 hlineto
          -194 -192 10 -30 rlineto
          9 hlineto
          162 157 -2 -394 36 -2 4 3 -2 393 161 -157 rlineto
          10 hlineto
          endchar
        </CharString>
        <CharString name="arrowupleft">
          -21 362.5 35 hstem
          102 36 vstem
          444 85 rmoveto
          -279 276 225 3 7 6 -14 29 -274 -3 -6 -5 -2 -274 29 -14 6 7 4 225 277 -279 27 23 rlineto
          endchar
        </CharString>
        <CharString name="arrowupright">
          -21 363.5 35.5 hstem
          369.5 35.5 vstem
          406 119 rmoveto
          -2 273 -6 6 -274 2 -13 -28 6 -7 226 -3 -280 -277 23 -27 rlineto
          6 hlineto
          276 278 3 -225 7 -6 rlineto
          endchar
        </CharString>
        <CharString name="asciicircum">
          -114 446 43 hstem
          23 371 vstem
          394 128 rmoveto
          -156 361 rlineto
          -45 hlineto
          -7 -4 -163 -360 30 -12 7 3 151 330 rlineto
          5 hlineto
          142 -333 32 9 rlineto
          endchar
        </CharString>
        <CharString name="asciitilde">
          -50 222 42 3 45 hstemhm
          60 361 hintmask 01100000
          148 267 rmoveto
          hintmask 10100000
          31 117 -42 -4 47 hvcurveto
          8 2 70 65 rlineto
          6 vlineto
          -15 19 rlineto
          -8 hlineto
          -29 -32 -18 -20 -15 hhcurveto
          hintmask 01100000
          -31 -118 41 7 -47 hvcurveto
          -8 -4 -69 -64 rlineto
          -7 vlineto
          15 -18 rlineto
          8 hlineto
          28 31 19 20 15 hhcurveto
          endchar
        </CharString>
        <CharString name="asterisk">
          -161 589 -20 23 -20 71 -20 hstemhm
          168 28 hintmask 01110000
          213 720 rmoveto
          -3 5 rlineto
          -14 -14 -2 -5 -13 hvcurveto
          -2 -111 5 -6 24 3 rlineto
          hintmask 10110000
          -46 -15 rmoveto
          -101 54 -5 -2 rlineto
          -4 -13 -2 -16 -13 vvcurveto
          102 -36 6 2 rlineto
          hintmask 01110000
          70 27 rmoveto
          -3 -6 10 -22 111 20 3 3 -4 14 -7 13 -8 11 rlinecurve
          -99 -85 rmoveto
          -8 1 -17 -16 51 -105 6 -1 10 8 11 9 8 13 rlinecurve
          -110 80 rmoveto
          -21 11 -80 -84 1 -5 12 -7 12 -8 14 -4 rlinecurve
          62 89 rlineto
          endchar
        </CharString>
        <CharString name="at">
          286 -192 35 151 57 -55 40 -21 -21 23 -21 424 41 -3 -20 128 38 hstemhm
          40 38 147 45 471 38 hintmask 1000101111100000
          779 292 rmoveto
          186 -128 126 -201 -247 -163 -170 -245 -232 163 -145 243 -4 vhcurveto
          19 29 -2 6 rlineto
          -232 -153 132 221 217 147 152 220 1 hvcurveto
          183 2 113 -112 -166 vvcurveto
          hintmask 1010001111100000
          -148 -82 -90 -146 -16 vhcurveto
          4 72 48 350 -7 4 rlineto
          hintmask 1001010111100000
          -32 -17 -64 16 rlineto
          -4 hlineto
          -153 -17 -80 -147 -153 vvcurveto
          -79 22 -43 43 -28 vhcurveto
          13 hlineto
          65 60 63 86 52 95 rrcurveto
          9 hlineto
          hintmask 1000101111100000
          -33 -239 rlineto
          206 10 114 103 183 vvcurveto
          hintmask 1100010111100000
          -474 -241 rmoveto
          -12 -23 24 81 139 68 123 113 2 hvcurveto
          61 -15 -3 -45 -2 -17 rlineto
          -189 -89 -95 -103 -18 hhcurveto
          endchar
        </CharString>
        <CharString name="atilde">
          -26 21 -21 144 40.5 257.5 53 146 40 -36 -20 hstemhm
          29 437 hintmask 00000000
          hintmask 11110100
          124 597 rmoveto
          6 hlineto
          24 27 14 20 13 hhcurveto
          26 90 -33 -5 40 hvcurveto
          8 3 rlineto
          hintmask 11101100
          57 59 rlineto
          6 vlineto
          -18 18 rlineto
          -5 hlineto
          -25 -27 -14 -19 -14 hhcurveto
          -25 -90 33 4 -40 hvcurveto
          -8 -2 rlineto
          hintmask 11110100
          -57 -59 rlineto
          -6 vlineto
          359 -615 rmoveto
          -182 495 rlineto
          -56 hlineto
          -199 -495 rlineto
          50 hlineto
          13 47 39 97 rlineto
          236 hlineto
          37 -99 11 -45 rlineto
          -63 185 rmoveto
          -104 -1 -100 1 104 257 rlineto
          5 hlineto
          endchar
        </CharString>
        <CharString name="b">
          -66 -2 38 198 41 181 40 hstemhm
          99 46 181 52 -15 50 hintmask 11110100
          298 258 rmoveto
          hintmask 11111000
          50 20 30 39 61 vvcurveto
          76 -55 42 -93 vhcurveto
          -132 -1 2 -345 -2 -150 rlineto
          -2 35 46 0 29 hhcurveto
          hintmask 11110100
          133 72 48 92 70 -43 38 -72 12 hvcurveto
          hintmask 11111000
          28 115 rmoveto
          -56 -29 -33 -54 -10 vhcurveto
          -97 2 1 180 rlineto
          73 hlineto
          69 37 -29 -54 hvcurveto
          hintmask 11110100
          -115 -337 rmoveto
          -19 -24 1 2 -22 hvcurveto
          -1 115 rlineto
          79 vlineto
          107 2 rlineto
          72 -8 39 -31 -56 vvcurveto
          -67 -55 -37 -97 vhcurveto
          endchar
        </CharString>
        <CharString name="b.sups">
          -187 338 34 225 -20 28 39 hstemhm
          59.5 46 158.5 45 hintmask 10111000
          195 644 rmoveto
          hintmask 11111000
          -32 -31 -18 -29 -24 hvcurveto
          -2 hlineto
          2 203 -49 -4 1 -328 -1 -122 6 -5 23 8 rlineto
          -7 25 26 -4 25 hhcurveto
          90 55 59 103 hvcurveto
          hintmask 10111000
          91 -42 53 -72 vhcurveto
          -34 -272 rmoveto
          -14 -20 3 8 -21 hvcurveto
          -1 92 1 93 rlineto
          24 22 26 13 29 hhcurveto
          52 29 -39 -71 -82 -38 -41 -65 hvcurveto
          endchar
        </CharString>
        <CharString name="backslash">
          -241 -111 787 hstem
          13 245 vstem
          54 676 rmoveto
          -36 hlineto
          -5 -6 204 -781 rlineto
          37 hlineto
          4 5 rlineto
          endchar
        </CharString>
        <CharString name="bar">
          -213 -264 1058 hstem
          137 42 vstem
          180 790 rmoveto
          -4 4 -39 -3 rlineto
          -1048 vlineto
          5 -7 37 2 rlineto
          548 vlineto
          endchar
        </CharString>
        <CharString name="braceleft">
          -245 -139 36 720 31 -5 -20 hstemhm
          49 65 3 43 -24 44 hintmask 11001000
          222 654 rmoveto
          -69 -36 -37 -73 hvcurveto
          hintmask 11000100
          -58 19 -78 -45 vvcurveto
          -52 -27 -29 -60 -10 vhcurveto
          hintmask 11010000
          -30 vlineto
          hintmask 11000100
          60 -9 27 -29 -53 -45 -19 -77 -58 vvcurveto
          hintmask 11001000
          -73 36 -37 69 17 14 2 4 14 vhcurveto
          3 5 -6 30 rlineto
          -3 -15 -10 -2 -13 hhcurveto
          -44 -22 25 55 hvcurveto
          hintmask 11000100
          53 20 76 47 vvcurveto
          50 -22 35 -44 18 vhcurveto
          3 vlineto
          44 18 22 34 51 vvcurveto
          hintmask 11001000
          46 -20 77 52 vvcurveto
          56 22 24 44 13 10 -2 -3 15 vhcurveto
          hintmask 10101000
          6 31 -3 5 rlineto
          hintmask 11001000
          3 -14 -14 3 -17 hhcurveto
          endchar
        </CharString>
        <CharString name="braceright">
          -245 -139 37 720 36 hstemhm
          105 43 -23 43 3 65 hintmask 11010000
          63 -139 rmoveto
          69 36 37 73 hvcurveto
          hintmask 11100000
          58 -20 77 46 vvcurveto
          52 28 29 60 10 vhcurveto
          hintmask 11001000
          30 vlineto
          hintmask 11100000
          -60 9 -28 29 52 46 20 77 58 vvcurveto
          hintmask 11010000
          73 -36 37 -69 -18 -13 -2 -4 -14 vhcurveto
          -3 -5 6 -30 rlineto
          3 15 10 2 13 hhcurveto
          44 22 -25 -56 hvcurveto
          hintmask 11100000
          -52 -20 -76 -48 vvcurveto
          -49 22 -35 44 -18 vhcurveto
          -3 vlineto
          -44 -18 -22 -35 -50 vvcurveto
          hintmask 11010000
          -47 20 -76 -53 vvcurveto
          -55 -22 -24 -44 -13 -10 2 3 -15 vhcurveto
          -6 -31 3 -5 rlineto
          -4 14 13 -2 18 hhcurveto
          endchar
        </CharString>
        <CharString name="bracketleft">
          -245 -126 32 703 37 -4 -20 hstemhm
          108 43 hintmask 00000000
          hintmask 10110000
          275 642 rmoveto
          -5 4 rlineto
          hintmask 11010000
          -163 -10 2 -378 -2 -379 163 -10 5 4 rlineto
          28 vlineto
          -124 10 rlineto
          693 vlineto
          124 10 rlineto
          endchar
        </CharString>
        <CharString name="bracketright">
          -245 -126 32 703 37 hstem
          134 43 vstem
          10 -126 rmoveto
          5 -5 163 10 -2 378 2 379 -163 10 -5 -4 rlineto
          -28 vlineto
          124 -10 rlineto
          -693 vlineto
          -124 -10 rlineto
          endchar
        </CharString>
        <CharString name="breve">
          524 40 hstem
          81 229 vstem
          292 656 rmoveto
          -9 hlineto
          -62 -11 -29 -30 -48 hhcurveto
          -48 -29 30 62 -11 hvcurveto
          -9 hlineto
          -17 -21 rlineto
          -71 13 36 -40 64 hhcurveto
          64 37 39 72 15 hvcurveto
          endchar
        </CharString>
        <CharString name="breve.cap">
          543 39 43 20 hstem
          81 229 vstem
          292 645 rmoveto
          -9 hlineto
          -40 -13 -31 -23 -44 hhcurveto
          -45 -31 23 40 -12 hvcurveto
          -9 hlineto
          -17 -20 rlineto
          -53 16 40 -29 57 hhcurveto
          56 42 29 53 18 hvcurveto
          endchar
        </CharString>
        <CharString name="breveacute">
          523 39 78 -20 hstem
          81 229 vstem
          276 722 rmoveto
          -24 18 rlineto
          -7 hlineto
          -28 -34 -28 -33 -29 -33 20 -17 rcurveline
          7 -1 31 32 29 30 29 32 rlinecurve
          16 -91 rmoveto
          -9 hlineto
          -40 -13 -31 -23 -44 hhcurveto
          -45 -31 23 40 -12 hvcurveto
          -9 hlineto
          -17 -20 rlineto
          -53 16 40 -29 57 hhcurveto
          56 42 29 53 18 hvcurveto
          endchar
        </CharString>
        <CharString name="brevegrave">
          523 39 78 -20 hstem
          81 229 vstem
          134 740 rmoveto
          -25 -18 1 -6 28 -32 30 -30 31 -32 rlinecurve
          7 1 20 17 -30 33 -27 33 -29 34 rlinecurve
          152 -115 rmoveto
          -9 hlineto
          -40 -13 -31 -23 -44 hhcurveto
          -45 -31 23 40 -12 hvcurveto
          -9 hlineto
          -17 -20 rlineto
          -53 16 40 -29 57 hhcurveto
          56 42 29 53 18 hvcurveto
          endchar
        </CharString>
        <CharString name="brevehookabove">
          523 39 189 32 hstem
          217 35 vstem
          198 783 rmoveto
          -24 -28 -13 -23 -23 hvcurveto
          12 -20 rlineto
          16 18 21 8 17 hhcurveto
          16 10 -8 -13 -16 -18 -23 -32 -23 hvcurveto
          27 -48 26 13 -18 32 rlineto
          34 27 16 21 23 vvcurveto
          26 -23 21 -31 vhcurveto
          94 -158 rmoveto
          -9 hlineto
          -40 -13 -31 -23 -44 hhcurveto
          -45 -31 23 40 -12 hvcurveto
          -9 hlineto
          -17 -20 rlineto
          -53 16 40 -29 57 hhcurveto
          56 42 29 53 18 hvcurveto
          endchar
        </CharString>
        <CharString name="brevetilde">
          523 39 145 40 -35 -20 hstemhm
          58 281 hintmask 10110000
          339 737 rmoveto
          -16 18 rlineto
          -6 hlineto
          -25 -25 -13 -18 -13 hhcurveto
          -24 -85 32 4 -38 hvcurveto
          -8 -2 rlineto
          hintmask 11010000
          -53 -58 rlineto
          -6 vlineto
          16 -18 rlineto
          6 hlineto
          24 25 13 19 13 hhcurveto
          24 86 -32 -5 37 hvcurveto
          7 3 rlineto
          hintmask 10110000
          54 58 rlineto
          -47 -107 rmoveto
          -9 hlineto
          -40 -13 -30 -22 -44 hhcurveto
          -45 -30 22 40 -12 hvcurveto
          -8 hlineto
          -18 -20 rlineto
          -52 16 40 -29 56 hhcurveto
          55 41 29 52 18 hvcurveto
          endchar
        </CharString>
        <CharString name="brokenbar">
          -213 -264 1058 hstem
          137 42 vstem
          180 790 rmoveto
          -4 4 -39 -3 rlineto
          -421 vlineto
          5 -4 37 4 rlineto
          -217 vmoveto
          -5 7 -37 -5 rlineto
          -412 vlineto
          5 -7 37 2 rlineto
          endchar
        </CharString>
        <CharString name="bullet">
          -286 201 73 hstem
          85 72 vstem
          122 274 rmoveto
          -22 -15 -15 -22 -22 14 -14 22 22 14 15 23 21 -13 14 -22 hvcurveto
          endchar
        </CharString>
        <CharString name="bulletoperator">
          -286 201 73 hstem
          85 72 vstem
          122 274 rmoveto
          -22 -15 -15 -22 -22 14 -14 22 22 14 15 23 21 -13 14 -22 hvcurveto
          endchar
        </CharString>
        <CharString name="c">
          -66 -5 42 420 42 -39 -20 hstemhm
          51 52 hintmask 11010000
          281 499 rmoveto
          -147 -83 -91 -163 -160 79 -90 141 52 50 15 28 45 hvcurveto
          4 45 -7 3 rlineto
          -30 -41 -52 -19 -50 hhcurveto
          -109 -60 74 137 138 61 71 113 49 46 -16 -28 35 hvcurveto
          8 2 rlineto
          hintmask 10110000
          10 45 rlineto
          hintmask 11010000
          25 -40 -51 14 -53 hhcurveto
          endchar
        </CharString>
        <CharString name="c.sups">
          -276 338 41 227 40 hstem
          35 45 vstem
          165 646 rmoveto
          -80 -50 -59 -98 -92 47 -59 76 31 31 10 12 24 hvcurveto
          5 38 -5 3 rlineto
          -14 -24 -27 -8 -25 hhcurveto
          -55 -33 43 71 70 33 43 52 25 25 -10 -12 19 hvcurveto
          5 1 10 38 rlineto
          13 -22 -32 10 -30 hhcurveto
          endchar
        </CharString>
        <CharString name="cacute">
          -66 -5 42 420 42 -39 -20 hstemhm
          51 51 hintmask 11010000
          361 722 rmoveto
          -6 1 -56 -55 -49 -44 -51 -42 rlinecurve
          17 -24 7 -1 53 43 51 41 54 47 rlinecurve
          1 7 rlineto
          -101 -196 rmoveto
          -147 -83 -91 -163 -160 78 -90 142 52 50 15 28 45 hvcurveto
          4 45 -7 3 rlineto
          -30 -41 -52 -19 -50 hhcurveto
          -109 -61 74 137 138 62 71 112 50 46 -16 -28 35 hvcurveto
          7 2 rlineto
          hintmask 10110000
          11 45 rlineto
          hintmask 11010000
          25 -40 -51 14 -53 hhcurveto
          endchar
        </CharString>
        <CharString name="caron">
          521 43 87 -20 hstem
          72 245 vstem
          301 674 rmoveto
          -7 hlineto
          -37 -38 -31 -35 -31 -37 -31 37 -32 35 -37 38 rrcurveto
          -7 hlineto
          -16 -23 38 -39 36 -43 38 -48 rlinecurve
          21 hlineto
          40 50 36 42 36 38 rrcurveto
          endchar
        </CharString>
        <CharString name="caron.alt">
          506.5 165 hstemhm
          170 51 hintmask 00000000
          hintmask 11000000
          221 667 rmoveto
          -4 6 -39 -3 -8 -161 5 -4 28 3 rlineto
          endchar
        </CharString>
        <CharString name="caron.cap">
          626 25 0 -20 hstemhm
          77 236 hintmask 01100000
          301 651 rmoveto
          -7 hlineto
          -34 -23 -33 -22 -32 -23 -32 23 -33 22 -34 23 rrcurveto
          -7 hlineto
          hintmask 10100000
          -12 -25 38 -26 36 -29 35 -28 rlinecurve
          19 hlineto
          34 28 36 29 38 26 rrcurveto
          endchar
        </CharString>
        <CharString name="ccaron">
          -66 -5 42 420 42 -39 -20 120 43 87 23 0 -20 hstemhm
          51 51 hintmask 11010110
          367 713 rmoveto
          -7 hlineto
          -37 -38 -31 -35 -31 -37 -31 37 -32 35 -37 38 rrcurveto
          -7 hlineto
          hintmask 11011010
          -16 -23 38 -39 36 -43 38 -48 rlinecurve
          21 hlineto
          40 50 36 42 36 38 rrcurveto
          -102 -191 rmoveto
          -147 -83 -91 -163 -160 78 -90 142 52 50 15 28 45 hvcurveto
          4 45 -7 3 rlineto
          -30 -41 -52 -19 -50 hhcurveto
          -109 -61 74 137 138 62 71 112 50 46 -16 -28 35 hvcurveto
          7 2 rlineto
          hintmask 10110110
          11 45 rlineto
          hintmask 11011010
          25 -40 -51 14 -53 hhcurveto
          endchar
        </CharString>
        <CharString name="ccedilla">
          -66 -186 31 150 42 -41 41 420 42 -39 -20 hstemhm
          51 51 198 37 hintmask 10110110
          272 37 rmoveto
          -109 -61 74 137 138 62 71 112 50 46 -16 -28 35 hvcurveto
          7 2 rlineto
          hintmask 10101110
          11 45 rlineto
          hintmask 10110110
          25 -40 -51 14 -53 hhcurveto
          -147 -83 -91 -163 -152 70 -89 129 -8 hvcurveto
          -19 -64 46 -28 rlineto
          14 -8 9 -7 -14 vvcurveto
          -19 -15 -11 -21 -24 -14 13 18 -15 vhcurveto
          -4 -1 -7 -29 rlineto
          -16 13 21 -16 32 hhcurveto
          40 31 24 36 hvcurveto
          hintmask 11010110
          22 -10 16 -26 15 vhcurveto
          -32 20 15 48 47 3 46 14 41 26 rlinecurve
          hintmask 10110110
          4 45 -7 3 rlineto
          -30 -41 -52 -19 -50 hhcurveto
          endchar
        </CharString>
        <CharString name="ccircumflex">
          -66 -5 42 420 42 -39 -20 230 43 0 -20 hstemhm
          51 51 hintmask 11001100
          155 560 rmoveto
          7 hlineto
          hintmask 11010100
          37 38 31 35 31 37 31 -37 32 -35 37 -38 rrcurveto
          7 hlineto
          16 23 -38 39 -36 43 -38 48 rlinecurve
          -21 hlineto
          -40 -50 -36 -42 -36 -38 rrcurveto
          142 -84 rmoveto
          -147 -83 -91 -163 -160 78 -90 142 52 50 15 28 45 hvcurveto
          4 45 -7 3 rlineto
          -30 -41 -52 -19 -50 hhcurveto
          -109 -61 74 137 138 62 71 112 50 46 -16 -28 35 hvcurveto
          7 2 rlineto
          hintmask 10101100
          11 45 rlineto
          hintmask 11010100
          25 -40 -51 14 -53 hhcurveto
          endchar
        </CharString>
        <CharString name="cdotaccent">
          -66 -5 42 420 42 -39 -20 179 68 hstemhm
          51 51 125 67 hintmask 11011100
          261 687 rmoveto
          -21 -13 -14 -21 -21 12 -12 21 21 13 13 22 20 -12 13 -21 hvcurveto
          20 -188 rmoveto
          -147 -83 -91 -163 -160 78 -90 142 52 50 15 28 45 hvcurveto
          4 45 -7 3 rlineto
          -30 -41 -52 -19 -50 hhcurveto
          -109 -61 74 137 138 62 71 112 50 46 -16 -28 35 hvcurveto
          7 2 rlineto
          hintmask 10111100
          11 45 rlineto
          hintmask 11011100
          25 -40 -51 14 -53 hhcurveto
          endchar
        </CharString>
        <CharString name="cedilla">
          -186 31 hstem
          226 37 vstem
          195 -53 rmoveto
          21 68 rlineto
          -34 hlineto
          -25 -83 46 -28 rlineto
          14 -8 9 -7 -14 vvcurveto
          -19 -15 -11 -21 -24 -14 13 18 -15 vhcurveto
          -4 -1 -7 -29 rlineto
          -16 13 21 -16 32 hhcurveto
          40 31 24 36 22 -10 16 -26 15 hvcurveto
          endchar
        </CharString>
        <CharString name="cent">
          -146 39 37 390 -20 57 -20 22 -20 160 -20 26 -20 hstemhm
          45 42 94.5 34 15.5 34.5 hintmask 0000000000000000
          hintmask 1110101110000000
          363 112 rmoveto
          -7 3 rlineto
          -23 -35 -46 -16 -41 hhcurveto
          -9 hlineto
          32 389 32 -5 32 -13 22 -16 rlinecurve
          7 hlineto
          10 35 -26 18 -37 14 -37 5 rlinecurve
          11 142 -6 6 rlineto
          hintmask 1101011110000000
          -28 hlineto
          -12 -146 rlineto
          -110 -4 -70 -91 -143 vvcurveto
          -122 54 -83 89 -19 vhcurveto
          hintmask 1101011100000000
          -13 -154 6 -6 rlineto
          28 hlineto
          13 156 rlineto
          5 hlineto
          hintmask 1101011110000000
          48 49 16 23 35 hvcurveto
          -272 192 rmoveto
          116 53 75 82 6 vhcurveto
          -31 -385 rlineto
          -65 21 -39 68 99 vvcurveto
          endchar
        </CharString>
        <CharString name="circle1">
          -84 9 -21 476 -20 hstem
          -14 476 vstem
          224 464 rmoveto
          -131 -107 -107 -131 -131 107 -107 131 131 107 107 131 131 -107 107 -131 hvcurveto
          endchar
        </CharString>
        <CharString name="circle2">
          104 649 -20 hstem
          -15 664 vstem
          317 649 rmoveto
          -183 -149 -149 -183 -183 149 -148 183 183 149 148 183 183 -149 149 -183 hvcurveto
          endchar
        </CharString>
        <CharString name="circumflex">
          521 153 hstem
          72 245 vstem
          88 521 rmoveto
          8 hlineto
          36 38 32 35 31 38 31 -38 31 -35 37 -38 rrcurveto
          7 hlineto
          16 23 -37 39 -36 43 -39 48 rlinecurve
          -20 hlineto
          -41 -50 -36 -42 -36 -38 rrcurveto
          endchar
        </CharString>
        <CharString name="circumflex.cap">
          552 108 hstem
          76 237 vstem
          88 552 rmoveto
          8 hlineto
          99 68 32 -23 32 -22 35 -23 rlinecurve
          7 hlineto
          12 25 -38 26 -37 28 -35 29 rlinecurve
          -19 hlineto
          -33 -29 -36 -28 -39 -26 rrcurveto
          endchar
        </CharString>
        <CharString name="circumflexacute">
          600 40 6 -20 hstemhm
          76 272 hintmask 01100000
          348 724 rmoveto
          -26 14 rlineto
          -6 hlineto
          -70 -92 20 -17 rlineto
          7 hlineto
          75 88 rlineto
          hintmask 10100000
          -260 -185 rmoveto
          8 hlineto
          99 68 32 -23 32 -22 35 -23 rlinecurve
          7 hlineto
          12 25 -38 26 -37 28 -35 29 rlinecurve
          -19 hlineto
          -33 -29 -36 -28 -39 -26 rrcurveto
          endchar
        </CharString>
        <CharString name="circumflexgrave">
          600 40 6 -20 hstemhm
          76 244 hintmask 01100000
          250 738 rmoveto
          -6 hlineto
          -26 -14 rlineto
          -7 vlineto
          75 -88 rlineto
          7 hlineto
          20 17 rlineto
          hintmask 10100000
          -232 -114 rmoveto
          8 hlineto
          99 68 32 -23 32 -22 35 -23 rlinecurve
          7 hlineto
          12 25 -38 26 -37 28 -35 29 rlinecurve
          -19 hlineto
          -33 -29 -36 -28 -39 -26 rrcurveto
          endchar
        </CharString>
        <CharString name="circumflexhookabove">
          600 40 0 -20 120 31 hstemhm
          304 33 hintmask 01110000
          286 771 rmoveto
          -24 -26 -12 -22 -22 hvcurveto
          11 -19 rlineto
          15 18 20 7 16 hhcurveto
          15 10 -7 -12 -15 -17 -22 -31 -22 hvcurveto
          26 -46 25 13 -17 30 rlineto
          31 25 16 21 21 vvcurveto
          25 -22 20 -29 vhcurveto
          hintmask 10110000
          -198 -239 rmoveto
          8 hlineto
          99 68 32 -23 32 -22 35 -23 rlinecurve
          7 hlineto
          12 25 -38 26 -37 28 -35 29 rlinecurve
          -19 hlineto
          -33 -29 -36 -28 -39 -26 rrcurveto
          endchar
        </CharString>
        <CharString name="circumflextilde">
          600 40 0 -20 87 40 -35 -20 hstemhm
          58 281 hintmask 01011000
          339 737 rmoveto
          -16 18 rlineto
          -6 hlineto
          -25 -25 -13 -18 -13 hhcurveto
          -24 -85 32 4 -38 hvcurveto
          -8 -2 rlineto
          hintmask 01101000
          -53 -58 rlineto
          -6 vlineto
          16 -18 rlineto
          6 hlineto
          24 25 13 19 13 hhcurveto
          24 86 -32 -5 37 hvcurveto
          7 3 rlineto
          hintmask 10011000
          54 58 rlineto
          -251 -199 rmoveto
          8 hlineto
          99 68 32 -23 32 -22 35 -23 rlinecurve
          7 hlineto
          12 25 -38 26 -37 28 -35 29 rlinecurve
          -19 hlineto
          -33 -29 -36 -28 -39 -26 rrcurveto
          endchar
        </CharString>
        <CharString name="colon">
          -300 -3 68 205 68 hstem
          77 67 vstem
          111 338 rmoveto
          -21 -13 -14 -21 -20 12 -13 21 21 13 13 22 20 -12 13 -21 hvcurveto
          -273 vmoveto
          -21 -13 -14 -21 -21 12 -12 21 21 13 13 22 20 -12 13 -21 hvcurveto
          endchar
        </CharString>
        <CharString name="comma">
          -300 -107 173 hstem
          115 45 vstem
          120 66 rmoveto
          -14 -5 -12 -7 -10 -8 rrcurveto
          -6 vlineto
          20 -11 11 -14 -16 vvcurveto
          -27 -19 -29 -36 -27 vhcurveto
          -5 vlineto
          19 -18 rlineto
          53 40 28 39 35 vvcurveto
          24 -15 20 -25 15 vhcurveto
          endchar
        </CharString>
        <CharString name="commaaccent">
          -530 -228 167 hstem
          111 44 vstem
          116 -61 rmoveto
          -13 -5 -11 -6 -10 -8 rrcurveto
          -5 vlineto
          19 -11 10 -14 -15 vvcurveto
          -26 -18 -28 -34 -27 vhcurveto
          -1 -4 19 -18 rlineto
          51 38 27 38 35 vvcurveto
          23 -14 19 -25 14 vhcurveto
          endchar
        </CharString>
        <CharString name="copyright">
          153 -12 27 110 35 271 34 106 27 hstem
          48 27 122 40 371 27 vstem
          341 598 rmoveto
          -176 -117 -122 -183 -183 117 -122 176 176 118 122 183 183 -118 122 -176 hvcurveto
          -27 vmoveto
          160 107 -111 -167 -167 -107 -111 -160 -160 -106 111 167 167 106 111 160 hvcurveto
          12 -106 rmoveto
          -101 -55 -61 -109 -109 52 -61 98 32 35 11 17 29 hvcurveto
          4 33 -5 1 rlineto
          -17 -28 -34 -10 -30 hhcurveto
          -73 -40 48 89 88 40 46 75 29 32 -9 -16 23 hvcurveto
          5 1 8 32 rlineto
          16 -28 -34 10 -34 hhcurveto
          endchar
        </CharString>
        <CharString name="currency">
          -94 224 35 206 34 8 -20 hstemhm
          73 35 207 33 hintmask 11011000
          385 515 rmoveto
          -24 23 rlineto
          -6 hlineto
          -65 -66 rlineto
          17 -22 -28 10 -29 hhcurveto
          -30 -29 -10 -19 -22 hvcurveto
          hintmask 10111000
          -65 67 rlineto
          -7 hlineto
          -22 -23 -1 -7 67 -64 rlineto
          -18 -22 -11 -28 -31 vvcurveto
          -30 11 -29 19 -22 vhcurveto
          -66 -64 -1 -7 24 -23 rlineto
          7 hlineto
          64 67 rlineto
          -18 21 29 -12 30 hhcurveto
          30 29 12 18 22 hvcurveto
          64 -66 7 -1 23 24 rlineto
          7 vlineto
          -67 64 rlineto
          19 22 10 29 29 vvcurveto
          hintmask 11011000
          31 -10 28 -19 23 vhcurveto
          65 64 rlineto
          -173 -43 rmoveto
          57 47 -46 -57 -57 -47 -46 -57 -57 -46 46 57 57 46 46 57 hvcurveto
          endchar
        </CharString>
        <CharString name="d">
          33 -4 41 -16 -21 456 43 hstemhm
          99 48 315 50 hintmask 10111000
          98 495 rmoveto
          2 -345 rlineto
          hintmask 01111000
          -2 -150 rlineto
          hintmask 10111000
          -2 43 96 -2 29 hhcurveto
          158 88 95 173 150 -82 85 -150 hvcurveto
          -8 -462 rmoveto
          -19 -72 2 2 -34 hvcurveto
          -1 113 2 298 rlineto
          2 33 79 2 17 hhcurveto
          121 64 -67 -134 -144 -69 -74 -121 hvcurveto
          endchar
        </CharString>
        <CharString name="d.sups">
          -186 341 37 233 35 -8 -20 hstemhm
          35 45 159 44 hintmask 11011000
          285 800 rmoveto
          -48 -4 rlineto
          hintmask 10111000
          1 -158 rlineto
          hintmask 11011000
          5 -20 -19 3 -18 hhcurveto
          -91 -55 -56 -103 -92 48 -54 72 33 27 18 27 23 hvcurveto
          3 hlineto
          -33 5 14 -13 25 hhcurveto
          14 14 4 8 11 hvcurveto
          7 29 -5 3 rlineto
          -5 -8 -8 -2 -7 hhcurveto
          -13 -7 9 22 hvcurveto
          -103 203 rmoveto
          20 19 -4 -6 19 hvcurveto
          2 -181 rlineto
          -28 -23 -25 -14 -30 hhcurveto
          -49 -33 39 75 79 36 40 64 hvcurveto
          endchar
        </CharString>
        <CharString name="dagger">
          -58 -72 -21 453 39 187 -20 23 -20 hstemhm
          216 39 hintmask 11011000
          426 360 rmoveto
          4 34 -5 5 rlineto
          -170 hlineto
          hintmask 11101000
          1 187 -3 3 -37 -3 rlineto
          -187 -169 vlineto
          -3 -34 4 -5 rlineto
          168 -449 hlineto
          5 -5 34 1 rlineto
          379 vlineto
          74 vlineto
          endchar
        </CharString>
        <CharString name="daggerdbl">
          -58 -72 -21 184 39 233 39 184 -20 23 -20 hstemhm
          216 39 hintmask 11101100
          425 130 rmoveto
          -170 156 hlineto
          77 171 vlineto
          4 34 -5 5 rlineto
          -170 hlineto
          hintmask 11110100
          1 184 -3 3 -37 -3 rlineto
          -184 -169 vlineto
          -3 -34 4 -5 rlineto
          168 -233 -169 hlineto
          -3 -34 4 -5 rlineto
          168 -180 hlineto
          5 -5 34 1 rlineto
          184 171 vlineto
          4 35 rlineto
          endchar
        </CharString>
        <CharString name="dcaron">
          33 -4 41 -16 -21 456 43 61 43 87 23 0 -20 hstemhm
          98.5 47.5 316 50 hintmask 10110111
          275 560 rmoveto
          hintmask 01111011
          40 50 36 42 36 38 -16 23 rcurveline
          -7 hlineto
          -37 -38 -31 -35 -31 -37 -31 37 -32 35 -37 38 rrcurveto
          -7 hlineto
          -16 -23 38 -39 36 -43 38 -48 rlinecurve
          -156 -65 rmoveto
          1 -345 -1 -150 rlineto
          hintmask 10110111
          -2 43 96 -2 28 hhcurveto
          158 89 95 173 150 -83 85 -149 hvcurveto
          -8 -462 rmoveto
          -19 -73 2 2 -34 hvcurveto
          -1 113 2 298 rlineto
          2 32 81 2 17 hhcurveto
          121 64 -67 -134 -144 -69 -74 -121 hvcurveto
          endchar
        </CharString>
        <CharString name="dcroat">
          33 -4 41 -16 -21 456 43 124 37 hstemhm
          98.5 47.5 316 50 hintmask 10111100
          123 623 rmoveto
          285 hlineto
          3 33 -4 4 rlineto
          -285 hlineto
          -3 -32 rlineto
          -21 -133 rmoveto
          1 -345 rlineto
          hintmask 01111100
          -1 -150 rlineto
          hintmask 10111100
          -2 43 96 -2 28 hhcurveto
          158 89 95 173 150 -83 85 -149 hvcurveto
          -8 -462 rmoveto
          -19 -73 2 2 -34 hvcurveto
          -1 113 2 298 rlineto
          2 32 81 2 17 hhcurveto
          121 64 -67 -134 -144 -69 -74 -121 hvcurveto
          endchar
        </CharString>
        <CharString name="degree">
          -236 401 30 184 30 hstem
          23 30 187 30 vstem
          147 645 rmoveto
          -69 -55 -54 -69 -68 55 -53 69 68 55 53 68 69 -55 54 -68 hvcurveto
          -30 vmoveto
          50 43 -42 -51 -49 -43 -42 -50 -51 -43 42 49 51 43 42 51 hvcurveto
          endchar
        </CharString>
        <CharString name="dieresis">
          568 66 hstem
          87 66 83 66 vstem
          121 634 rmoveto
          -21 -13 -13 -21 -20 12 -12 20 21 13 13 21 20 -12 12 -20 hvcurveto
          149 hmoveto
          -21 -13 -13 -21 -20 12 -12 20 21 13 13 21 20 -12 12 -20 hvcurveto
          endchar
        </CharString>
        <CharString name="dieresis.i">
          568 66 hstem
          104 66 49 66 vstem
          138 634 rmoveto
          -21 -13 -13 -21 -20 12 -12 20 21 13 13 21 20 -12 12 -20 hvcurveto
          115 hmoveto
          -21 -13 -13 -21 -20 12 -12 20 21 13 13 21 20 -12 12 -20 hvcurveto
          endchar
        </CharString>
        <CharString name="dieresisacute">
          550 63 hstem
          88 63 86 63 vstem
          293 762 rmoveto
          -6 4 -73 -28 -63 -20 -63 -17 rlinecurve
          6 -28 7 -5 66 17 63 17 68 21 rlinecurve
          4 7 rlineto
          -182 -117 rmoveto
          -20 -12 -13 -19 -19 12 -12 19 19 13 13 19 19 -12 12 -19 hvcurveto
          149 hmoveto
          -19 -13 -13 -19 -19 12 -12 19 20 12 13 19 19 -12 12 -19 hvcurveto
          endchar
        </CharString>
        <CharString name="dieresiscaron">
          550 63 hstem
          88 63 86 63 vstem
          301 749 rmoveto
          -7 hlineto
          -34 -23 -33 -22 -32 -23 -32 23 -33 22 -34 23 rrcurveto
          -7 hlineto
          -12 -25 38 -27 36 -28 35 -28 rlinecurve
          19 hlineto
          34 28 36 28 38 27 rrcurveto
          -193 -111 rmoveto
          -20 -12 -13 -19 -19 12 -12 19 19 13 13 19 19 -12 12 -19 hvcurveto
          149 hmoveto
          -19 -13 -13 -19 -19 12 -12 19 20 12 13 19 19 -12 12 -19 hvcurveto
          endchar
        </CharString>
        <CharString name="dieresisgrave">
          550 63 88 -20 hstemhm
          88 63 86 63 -11 10 hintmask 11110000
          97 762 rmoveto
          -9 -32 4 -7 rlineto
          hintmask 11101000
          68 -21 64 -17 65 -17 7 5 rcurveline
          6 28 -63 17 -63 20 -73 28 rlinecurve
          17 -153 rmoveto
          -20 -12 -13 -19 -19 12 -12 19 19 13 13 19 19 -12 12 -19 hvcurveto
          hintmask 11110000
          149 hmoveto
          -19 -13 -13 -19 -19 12 -12 19 20 12 13 19 19 -12 12 -19 hvcurveto
          endchar
        </CharString>
        <CharString name="dieresismacron">
          550 63 71 37 hstem
          88 63 86 63 vstem
          323 716 rmoveto
          -4 5 rlineto
          -249 hlineto
          -3 -33 5 -4 rlineto
          248 hlineto
          -200 -71 rmoveto
          -20 -12 -13 -19 -19 12 -12 19 19 13 13 19 19 -12 12 -19 hvcurveto
          149 hmoveto
          -19 -13 -13 -19 -19 12 -12 19 20 12 13 19 19 -12 12 -19 hvcurveto
          endchar
        </CharString>
        <CharString name="divide">
          -50 58 65 125 39 127 66 hstem
          229 65 vstem
          262 480 rmoveto
          -20 -13 -14 -20 -20 12 -12 20 20 13 13 21 19 -12 13 -20 hvcurveto
          196 -198 rmoveto
          -5 5 rlineto
          -402 hlineto
          -4 -35 5 -4 rlineto
          402 hlineto
          -192 -125 rmoveto
          -20 -13 -13 -20 -20 12 -12 20 20 13 13 20 20 -12 12 -20 hvcurveto
          endchar
        </CharString>
        <CharString name="divisionslash">
          -241 -111 787 hstem
          34 246 vstem
          280 670 rmoveto
          -5 6 rlineto
          -37 hlineto
          -204 -782 4 -5 rlineto
          37 hlineto
          endchar
        </CharString>
        <CharString name="dollar">
          -104 -4 37 428 36 -1 -20 165 -20 hstemhm
          67 43 62.5 34 -18 34.5 -14.5 34.5 -18.5 35 55.5 44 hintmask 1101101001000000
          359 133 rmoveto
          72 -62 33 -62 27 vhcurveto
          hintmask 1011100101000000
          16 194 rlineto
          hintmask 1011100011000000
          24 -4 25 -9 26 -16 9 2 rcurveline
          8 42 rlineto
          hintmask 1101100011000000
          -31 13 -31 7 -27 2 11 139 rcurveline
          -6 6 rlineto
          -29 hlineto
          -11 -144 rlineto
          -93 -4 -59 -57 -69 vvcurveto
          -74 66 -31 64 -29 vhcurveto
          hintmask 1101101001000000
          -17 -200 -37 3 -44 15 -33 28 rlinecurve
          -7 -3 -5 -45 rlineto
          hintmask 1101110001000000
          38 -21 45 -12 40 -2 -9 -117 rcurveline
          5 -6 rlineto
          28 hlineto
          11 124 rlineto
          hintmask 1101101001000000
          91 8 56 60 68 vvcurveto
          -249 237 rmoveto
          41 38 46 68 4 vhcurveto
          hintmask 1101100101000000
          -15 -181 rlineto
          hintmask 1101101001000000
          -49 22 -42 24 44 vvcurveto
          121 -152 rmoveto
          46 -22 38 -25 -45 vvcurveto
          -43 -38 -42 -62 -8 vhcurveto
          endchar
        </CharString>
        <CharString name="dotaccent">
          -292 580 68 hstem
          85 67 vstem
          119 648 rmoveto
          -21 -13 -14 -21 -20 12 -13 21 21 13 14 21 20 -12 13 -21 hvcurveto
          endchar
        </CharString>
        <CharString name="dotbelowcomb">
          -530 -146 68 hstem
          82 67 vstem
          116 -78 rmoveto
          -21 -13 -14 -21 -21 12 -12 21 21 13 13 22 20 -12 13 -21 hvcurveto
          endchar
        </CharString>
        <CharString name="dotlessi">
          -281 21 -21 495 -20 hstem
          98.5 47.5 vstem
          145 154 rmoveto
          2 341 rlineto
          -49 hlineto
          1 -345 -1 -150 rlineto
          49 hlineto
          endchar
        </CharString>
        <CharString name="dotlessj">
          -254 455.5 39.5 -35 -20 hstemhm
          128 47 hintmask 10100000
          176 495 rmoveto
          -147 hlineto
          hintmask 01100000
          -4 -35 4 -5 rlineto
          hintmask 10100000
          98 1 1 -298 rlineto
          -68 vlineto
          -60 -24 -38 -61 -38 vhcurveto
          -6 vlineto
          22 -26 rlineto
          81 47 29 45 77 vvcurveto
          73 vlineto
          endchar
        </CharString>
        <CharString name="down">
          -124 75 277 hstem
          65 277 vstem
          203 75 rmoveto
          139 277 rlineto
          -277 hlineto
          endchar
        </CharString>
        <CharString name="e">
          -106 0 41 192.5 42 178.5 41 hstem
          99 47 vstem
          386 38 rmoveto
          -5 5 -132 -2 rlineto
          -102 hlineto
          -1 113 rlineto
          79 vlineto
          99 1 91 -2 4 39 -3 6 -88 -2 -102 1 1 178 rlineto
          108 hlineto
          123 -3 5 38 -4 6 rlineto
          -282 hlineto
          2 -345 -2 -150 rlineto
          282 hlineto
          endchar
        </CharString>
        <CharString name="e.sups">
          -233 338 38 120 27 89 34 hstem
          35 45 154 42 vstem
          165 646 rmoveto
          -79 -51 -59 -97 -92 49 -60 84 34 34 10 14 27 hvcurveto
          5 37 -5 3 rlineto
          -17 -27 -33 -9 -30 hhcurveto
          -61 -32 44 73 hvcurveto
          3 189 vlineto
          6 7 rlineto
          8 1 12 6 vvcurveto
          72 -41 45 -70 vhcurveto
          -83 -123 rmoveto
          56 7 30 33 45 hhcurveto
          42 28 -29 -48 -3 0 -2 -1 -7 hvcurveto
          endchar
        </CharString>
        <CharString name="eacute">
          -106 0 41 192.5 42 178.5 41 hstem
          98.5 48 vstem
          195 558 rmoveto
          7 -1 53 43 51 41 54 47 rlinecurve
          1 7 -21 27 -6 1 -56 -55 -49 -44 -51 -42 rlinecurve
          208 -544 rmoveto
          -5 5 -132 -2 rlineto
          -103 hlineto
          -1 113 rlineto
          79 vlineto
          99 1 92 -2 4 39 -3 6 -88 -2 -103 1 1 178 rlineto
          109 hlineto
          123 -3 5 38 -4 6 rlineto
          -282 hlineto
          1 -345 -1 -150 rlineto
          282 hlineto
          endchar
        </CharString>
        <CharString name="ebreve">
          -106 0 41 192.5 42 178.5 41 68 40 hstem
          98.5 48 vstem
          239 563 rmoveto
          64 37 39 72 15 hvcurveto
          -18 21 rlineto
          -9 hlineto
          -62 -11 -29 -30 -48 hhcurveto
          -48 -29 30 62 -11 hvcurveto
          -9 hlineto
          -17 -21 rlineto
          -71 13 36 -40 64 hhcurveto
          147 -525 rmoveto
          -5 5 -132 -2 rlineto
          -103 hlineto
          -1 113 rlineto
          79 vlineto
          99 1 92 -2 4 39 -3 6 -88 -2 -103 1 1 178 rlineto
          109 hlineto
          123 -3 5 38 -4 6 rlineto
          -282 hlineto
          1 -345 -1 -150 rlineto
          282 hlineto
          endchar
        </CharString>
        <CharString name="ecaron">
          -106 0 41 192.5 42 178.5 41 65 43 87 23 0 -20 hstemhm
          98.5 48 hintmask 11110110
          250 560 rmoveto
          hintmask 11111010
          40 50 36 42 36 38 -16 23 rcurveline
          -7 hlineto
          -37 -38 -31 -35 -31 -37 -31 37 -32 35 -37 38 rrcurveto
          -7 hlineto
          -16 -23 38 -39 36 -43 38 -48 rlinecurve
          157 -522 rmoveto
          -5 5 -132 -2 rlineto
          -103 hlineto
          -1 113 rlineto
          79 vlineto
          99 1 92 -2 4 39 -3 6 -88 -2 -103 1 1 178 rlineto
          109 hlineto
          123 -3 5 38 -4 6 rlineto
          -282 hlineto
          1 -345 -1 -150 rlineto
          282 hlineto
          endchar
        </CharString>
        <CharString name="ecircumflex">
          -106 0 41 192.5 42 178.5 41 175 43 0 -20 hstemhm
          98.5 48 hintmask 11101100
          134 560 rmoveto
          7 hlineto
          hintmask 11110100
          37 38 31 35 31 37 31 -37 32 -35 37 -38 rrcurveto
          7 hlineto
          16 23 -38 39 -36 43 -38 48 rlinecurve
          -21 hlineto
          -40 -50 -36 -42 -36 -38 rrcurveto
          268 -545 rmoveto
          -5 5 -132 -2 rlineto
          -103 hlineto
          -1 113 rlineto
          79 vlineto
          99 1 92 -2 4 39 -3 6 -88 -2 -103 1 1 178 rlineto
          109 hlineto
          123 -3 5 38 -4 6 rlineto
          -282 hlineto
          1 -345 -1 -150 rlineto
          282 hlineto
          endchar
        </CharString>
        <CharString name="ecircumflexacute">
          -106 0 41 192.5 42 178.5 41 101 -20 hstem
          98.5 48 vstem
          394 763 rmoveto
          -26 14 rlineto
          -7 hlineto
          -70 -92 21 -17 rlineto
          7 hlineto
          75 88 rlineto
          -260 -185 rmoveto
          7 hlineto
          34 23 33 22 32 23 32 -23 33 -22 34 -23 rrcurveto
          7 hlineto
          12 25 -38 26 -36 29 -35 28 rlinecurve
          -19 hlineto
          -34 -28 -36 -29 -38 -26 rrcurveto
          259 -553 rmoveto
          -132 -2 rlineto
          -103 hlineto
          -1 113 rlineto
          79 vlineto
          99 1 92 -2 4 39 -3 6 -88 -2 -103 1 1 178 rlineto
          109 hlineto
          123 -3 5 38 -4 6 rlineto
          -282 hlineto
          1 -345 -1 -150 rlineto
          282 hlineto
          6 38 rlineto
          endchar
        </CharString>
</ttFont>
